<?xml version="1.0" encoding="utf-8"?>
<!-- Generator: Adobe Illustrator 24.0.2, SVG Export Plug-In . SVG Version: 6.00 Build 0)  -->
<svg version="1.1" xmlns="http://www.w3.org/2000/svg" xmlns:xlink="http://www.w3.org/1999/xlink" x="0px" y="0px"
	 viewBox="0 0 1940 1080" style="enable-background:new 0 0 1940 1080;" xml:space="preserve">
<style type="text/css">
	.st0{fill:#4C0C10;}
	.st1{fill:#771C23;}
	.st2{fill:#962C31;}
	.st3{fill:#600E15;}
	.st4{fill:#6B0B17;}
	.st5{fill:none;stroke:#FFFFFF;stroke-miterlimit:10;}
	.st6{fill:#696B6D;}
	.st7{fill:#303233;}
	.st8{fill:#353638;}
	.st9{fill:#56585A;}
	.st10{fill:#3A3C3D;}
	.st11{fill:#464B4F;}
	.st12{fill-rule:evenodd;clip-rule:evenodd;fill:#3B3C3D;stroke:#FFFFFF;stroke-width:2;stroke-miterlimit:10;}
	.st13{fill:#8E4F55;}
	.st14{fill:#A05757;}
	.st15{fill:#684D52;}
	.st16{opacity:0.32;fill:#3B3C3D;}
	.st17{fill:#A26925;}
	.st18{fill:#A12E28;}
	.st19{fill:#D49E5B;}
	.st20{fill:#6E3826;}
	.st21{fill:#FF8B8B;}
	.st22{fill:#D55857;}
	.st23{fill:#D29F54;}
	.st24{fill:#A02F2A;}
	.st25{fill:#D35A5D;}
	.st26{fill:#A16B24;}
	.st27{fill:#D29C59;}
	.st28{fill:#6E3838;}
	.st29{fill:#6C3725;}
	.st30{fill:#D45723;}
	.st31{fill:#9F6C26;}
	.st32{fill:#D59C5C;}
	.st33{fill:#A16B28;}
	.st34{fill:#D3585A;}
	.st35{fill:#D25C59;}
	.st36{fill:#D29F59;}
	.st37{fill:#D45923;}
	.st38{fill:#FF8D8B;}
	.st39{fill:#A06A27;}
	.st40{fill:#A22F24;}
	.st41{fill:#6F3739;}
	.st42{fill:#703725;}
	.st43{fill:#A12E24;}
	.st44{fill:#D55824;}
	.st45{fill:#D5585A;}
	.st46{fill:#AC6E33;}
	.st47{fill:#AC6C33;}
	.st48{fill:#DE5B66;}
	.st49{fill:#783A00;}
	.st50{fill:#790000;}
	.st51{fill:#AA2834;}
	.st52{fill:#470800;}
	.st53{fill:#770003;}
	.st54{fill:#780800;}
	.st55{fill:#AA2C00;}
	.st56{fill:#790005;}
	.st57{fill:#460800;}
	.st58{fill:#780003;}
	.st59{fill:#DEA065;}
	.st60{fill:#AB6D35;}
	.st61{fill:#793B00;}
	.st62{fill:#770800;}
	.st63{fill:#AC6F36;}
	.st64{fill:#AC6C31;}
	.st65{fill:#DC5C66;}
	.st66{fill:#AB2B35;}
	.st67{fill:#783A02;}
	.st68{fill:#AA2A32;}
	.st69{fill:#7A3A00;}
	.st70{fill:#AC2C00;}
	.st71{fill:#790002;}
	.st72{fill:#AD6A32;}
	.st73{fill:#780000;}
	.st74{fill:#A86D35;}
	.st75{fill:#783C00;}
	.st76{fill:#AD6B32;}
	.st77{fill:#7B0000;}
	.st78{fill:#AC2933;}
	.st79{fill:#A96E33;}
	.st80{fill:#DE5C68;}
	.st81{fill:#AD2A00;}
	.st82{fill:#AD6B2F;}
	.st83{fill:#AA6C34;}
	.st84{fill:#793B01;}
	.st85{fill:#770002;}
	.st86{fill:#780600;}
	.st87{fill:#AD6F2F;}
	.st88{fill:#AC6E34;}
	.st89{fill:#AA2A34;}
	.st90{fill:#793A00;}
	.st91{fill:#AA2A00;}
	.st92{fill:#770006;}
	.st93{fill:#753A01;}
	.st94{fill:#AC6C39;}
	.st95{fill:#6F0911;}
	.st96{fill:#700912;}
	.st97{fill:#A13D43;}
	.st98{fill:#6E3D10;}
	.st99{fill:#A26F77;}
	.st100{fill:#6F3C44;}
	.st101{fill:#A03C44;}
	.st102{fill:#6B0A0D;}
	.st103{fill:#A3707C;}
	.st104{fill:#6E3E45;}
	.st105{fill:#713B12;}
	.st106{fill:#A17045;}
	.st107{fill:#9F7179;}
	.st108{fill:#D36D75;}
	.st109{fill:#3C0B00;}
	.st110{fill:#3A0000;}
	.st111{fill:#9F6F76;}
	.st112{fill:#D46E76;}
	.st113{fill:#6F3E0E;}
	.st114{fill:#A13B45;}
	.st115{fill:#A36E44;}
	.st116{fill:#A06F77;}
	.st117{fill:#A13B43;}
	.st118{fill:#6D0911;}
	.st119{fill:#E3CC98;}
	.st120{fill:#E2CDCB;}
	.st121{fill:#AF9A98;}
	.st122{fill:#E2989A;}
	.st123{fill:#E4CB97;}
	.st124{fill:#7E6533;}
	.st125{fill:#DF989C;}
	.st126{fill:#AE9A98;}
	.st127{fill:#7D6668;}
	.st128{fill:#7C3231;}
	.st129{fill:#7C6531;}
	.st130{fill:#E19997;}
	.st131{fill:#493234;}
	.st132{fill:#7D3332;}
	.st133{fill:#E09999;}
	.st134{fill:#B26367;}
	.st135{fill:#AE9999;}
	.st136{fill:#AF9A67;}
	.st137{fill:#B0989B;}
	.st138{fill:#7D6632;}
	.st139{fill:#E39998;}
	.st140{fill:#B06568;}
	.st141{fill:#7E6731;}
	.st142{fill:#B19866;}
	.st143{fill:#B09763;}
	.st144{fill:#AF9898;}
	.st145{fill:#7E6733;}
	.st146{fill:#E6CC9B;}
	.st147{fill:#E5C9CC;}
	.st148{fill:#B19A67;}
	.st149{fill:#E49999;}
	.st150{fill:#E1CC9B;}
	.st151{fill:#E5CB9A;}
	.st152{fill:#AE9A97;}
	.st153{fill:#AF6764;}
	.st154{fill:#E59898;}
	.st155{fill:#AF6765;}
	.st156{fill:#7F6666;}
	.st157{fill:#E4CBCD;}
	.st158{fill:#7C6736;}
	.st159{fill:#B09999;}
	.st160{fill:#E0CBC9;}
	.st161{fill:#E39898;}
	.st162{fill:#B19864;}
	.st163{fill:#B19898;}
	.st164{fill:#A75852;}
	.st165{fill:#735A55;}
	.st166{fill:#410000;}
	.st167{fill:#765822;}
	.st168{fill:#76581F;}
	.st169{fill:#752623;}
	.st170{fill:#170000;}
	.st171{fill:#765752;}
	.st172{fill:#765C21;}
	.st173{fill:#402600;}
	.st174{fill:#422623;}
	.st175{fill:#73591F;}
	.st176{fill:#420000;}
	.st177{fill:#775922;}
	.st178{fill:#74271F;}
	.st179{fill:#442522;}
	.st180{fill:#412700;}
	.st181{fill:#765854;}
	.st182{fill:#752523;}
	.st183{fill:#4A3500;}
	.st184{fill:#493432;}
	.st185{fill:#4C3332;}
	.st186{fill:#4B0000;}
	.st187{fill:#7C3431;}
	.st188{fill:#7C3234;}
	.st189{fill:#483300;}
	.st190{fill:#493431;}
	.st191{fill:#AF6564;}
	.st192{fill:#7F6632;}
	.st193{fill:#7E3331;}
	.st194{fill:#4B3201;}
	.st195{fill:#493200;}
	.st196{fill:#483234;}
	.st197{fill:#B26534;}
	.st198{fill:#7C6334;}
	.st199{fill:#7C6834;}
	.st200{fill:#B16667;}
	.st201{fill:#7E6531;}
	.st202{fill:#7D3232;}
	.st203{fill:#AE9965;}
	.st204{fill:#483400;}
	.st205{fill:#7C6734;}
	.st206{fill:#B16633;}
	.st207{fill:#7D3235;}
	.st208{fill:#AE9968;}
	.st209{fill:#AE6666;}
	.st210{fill:#AF9867;}
	.st211{fill:#483302;}
	.st212{fill:#7C3400;}
	.st213{fill:#7E3334;}
	.st214{fill:#4A3300;}
	.st215{fill:#AE6630;}
	.st216{fill:#AF652D;}
	.st217{fill:#7D6635;}
	.st218{fill:#7B6731;}
	.st219{fill:#7C3500;}
	.st220{fill:#7F3234;}
	.st221{fill:#4B0002;}
	.st222{fill:#7C6733;}
	.st223{fill:#7C3434;}
	.st224{fill:#190002;}
	.st225{fill:#4E3203;}
	.st226{fill:#493434;}
	.st227{fill:#4B3132;}
	.st228{fill:#AF6767;}
	.st229{fill:#7C342D;}
	.st230{fill:#4B3200;}
	.st231{fill:#7E6537;}
	.st232{fill:#4B3400;}
	.st233{fill:#7E6764;}
	.st234{fill:#7E3133;}
	.st235{fill:#B06565;}
	.st236{fill:#B06566;}
	.st237{fill:#7E6534;}
	.st238{fill:#AE9966;}
	.st239{fill:#B29865;}
	.st240{fill:#E49799;}
	.st241{fill:#B06530;}
	.st242{fill:#7D6433;}
	.st243{fill:#AF9896;}
	.st244{fill:#B0652E;}
	.st245{fill:#493500;}
	.st246{fill:#7D3200;}
	.st247{fill:#170200;}
	.st248{fill:#B06532;}
	.st249{fill:#7D3230;}
	.st250{fill:#B06563;}
	.st251{fill:#7E6734;}
	.st252{fill:#7E652F;}
	.st253{fill:#483331;}
	.st254{fill:#861F16;}
	.st255{fill:#B6524B;}
	.st256{fill:#845349;}
	.st257{fill:#B78446;}
	.st258{fill:#855217;}
	.st259{fill:#520000;}
	.st260{fill:#530000;}
	.st261{fill:#532000;}
	.st262{fill:#1F0000;}
	.st263{fill:#1E0000;}
	.st264{fill:#B65045;}
	.st265{fill:#511F00;}
	.st266{fill:#861D18;}
	.st267{fill:#855215;}
	.st268{fill:#210000;}
	.st269{fill:#200000;}
	.st270{fill:#550000;}
	.st271{fill:#500000;}
	.st272{fill:#1D0000;}
	.st273{fill:#531F00;}
	.st274{fill:#531D00;}
	.st275{fill:#865113;}
	.st276{fill:#522000;}
	.st277{fill:#875119;}
	.st278{fill:#831F12;}
	.st279{fill:#865015;}
	.st280{fill:#852000;}
	.st281{fill:#835213;}
	.st282{fill:#865048;}
	.st283{fill:#841E16;}
	.st284{fill:#B75146;}
	.st285{fill:#851E17;}
	.st286{fill:#B95049;}
	.st287{fill:#865016;}
	.st288{fill:#845116;}
	.st289{fill:#835046;}
	.st290{fill:#510000;}
	.st291{fill:#B8524A;}
	.st292{fill:#521E00;}
	.st293{fill:#851E14;}
	.st294{fill:#501F00;}
	.st295{fill:#861D15;}
	.st296{fill:#835317;}
	.st297{fill:#851C14;}
	.st298{fill:#540000;}
	.st299{fill:#855017;}
	.st300{fill:#861D16;}
	.st301{fill:#831D17;}
	.st302{fill:#881C15;}
	.st303{fill:#B8834A;}
	.st304{fill:#855417;}
	.st305{fill:#851D00;}
	.st306{fill:#6D4709;}
	.st307{fill:#3A1500;}
	.st308{fill:#3C0000;}
	.st309{fill:#A4793D;}
	.st310{fill:#3B1200;}
	.st311{fill:#A1473B;}
	.st312{fill:#A17A6B;}
	.st313{fill:#704509;}
	.st314{fill:#71463B;}
	.st315{fill:#3C1306;}
	.st316{fill:#3B140A;}
	.st317{fill:#6D1307;}
	.st318{fill:#6E4508;}
	.st319{fill:#9F7B6E;}
	.st320{fill:#6D473D;}
	.st321{fill:#A04637;}
	.st322{fill:#6D1306;}
	.st323{fill:#6E4840;}
	.st324{fill:#A37A3D;}
	.st325{fill:#6C463B;}
	.st326{fill:#6D1407;}
	.st327{fill:#3C1300;}
	.st328{fill:#A2793B;}
	.st329{fill:#A3453A;}
	.st330{fill:#A4793B;}
	.st331{fill:#A2443B;}
	.st332{fill:#A17A3B;}
	.st333{fill:#6E4707;}
	.st334{fill:#6E4739;}
	.st335{fill:#3E1206;}
	.st336{fill:#A17B3A;}
	.st337{fill:#A1786E;}
	.st338{fill:#6E4807;}
	.st339{fill:#6F1106;}
	.st340{fill:#6B4707;}
	.st341{fill:#3B1508;}
	.st342{fill:#6D4906;}
	.st343{fill:#3B1500;}
	.st344{fill:#483330;}
	.st345{fill:#4A3100;}
	.st346{fill:#7D6435;}
	.st347{fill:#E39865;}
	.st348{fill:#7D6633;}
	.st349{fill:#B09966;}
	.st350{fill:#B16666;}
	.st351{fill:#B16464;}
	.st352{fill:#7B6630;}
	.st353{fill:#7C3135;}
	.st354{fill:#B09766;}
	.st355{fill:#7C6535;}
	.st356{fill:#B06632;}
	.st357{fill:#E29865;}
	.st358{fill:#B26563;}
	.st359{fill:#7B6632;}
	.st360{fill:#E4CB9A;}
	.st361{fill:#7B6633;}
	.st362{fill:#B06330;}
	.st363{fill:#AE6730;}
	.st364{fill:#AF9865;}
	.st365{fill:#7B3130;}
	.st366{fill:#AF6534;}
	.st367{fill:#AF6567;}
	.st368{fill:#AF6531;}
	.st369{fill:#7E6431;}
	.st370{fill:#7E3333;}
	.st371{fill:#7A3200;}
	.st372{fill:#AF6434;}
	.st373{fill:#7A3530;}
	.st374{fill:#7E3400;}
	.st375{fill:#7B3500;}
	.st376{fill:#7D3233;}
	.st377{fill:#4C0005;}
	.st378{fill:#E29797;}
	.st379{fill:#B09965;}
	.st380{fill:#7B6733;}
	.st381{fill:#AF9A66;}
	.st382{fill:#793231;}
	.st383{fill:#B19A64;}
	.st384{fill:#AD9965;}
	.st385{fill:#E3989B;}
	.st386{fill:#AF9A64;}
	.st387{fill:#483333;}
	.st388{fill:#B16664;}
	.st389{fill:#7C3232;}
	.st390{fill:#AE9A64;}
	.st391{fill:#AF9A9A;}
	.st392{fill:#AF9864;}
	.st393{fill:#E4999A;}
	.st394{fill:#AE9A66;}
	.st395{fill:#E3CA9B;}
	.st396{fill:#493400;}
	.st397{fill:#7F3434;}
	.st398{fill:#7C3300;}
	.st399{fill:#B29965;}
	.st400{fill:#AF6565;}
	.st401{fill:#7F3034;}
	.st402{fill:#AF6532;}
	.st403{fill:#B16431;}
	.st404{fill:#AE9A9C;}
	.st405{fill:#4D3334;}
	.st406{fill:#7A332F;}
	.st407{fill:#B09B65;}
	.st408{fill:#E29A9A;}
	.st409{fill:#7E642F;}
	.st410{fill:#7C312F;}
	.st411{fill-rule:evenodd;clip-rule:evenodd;fill:#FFFFFF;}
	.st412{fill-rule:evenodd;clip-rule:evenodd;fill:#B2292E;}
	.st413{fill-rule:evenodd;clip-rule:evenodd;fill:#937532;}
	.st414{fill-rule:evenodd;clip-rule:evenodd;fill:#53575A;}
	.st415{fill:#FFFFFF;}
</style>
<g id="Capa_9">
	<polygon class="st0" points="0,0 240.17,0 0,244.49 	"/>
	<polygon class="st1" points="0,244.49 197.27,417.6 0,509.18 	"/>
	<polygon class="st2" points="0,509.18 0,752.15 240.17,722.37 	"/>
	<polygon class="st3" points="240.17,722.37 0,909.68 0,752.15 	"/>
	<polygon class="st3" points="240.17,0 197.27,417.6 0,244.49 	"/>
	<polygon class="st1" points="0,909.68 295.33,1080 0,1080 	"/>
	<polygon class="st4" points="197.27,417.6 240.17,722.37 0,509.18 	"/>
	<polygon class="st0" points="240.17,722.37 295.33,1080 0,909.68 	"/>
	<polygon class="st4" points="218.19,214.02 536.11,-1.16 240.17,0 	"/>
	<path class="st5" d="M532.76,1.25"/>
	<polygon class="st3" points="218.19,214.02 554.66,268.45 532.76,1.25 	"/>
	<polygon class="st2" points="197.27,417.6 554.66,268.45 218.19,214.02 	"/>
	<polygon class="st0" points="240.17,722.37 375.47,342.53 197.27,417.6 	"/>
	<polygon class="st3" points="240.17,722.37 505.72,897.68 286.39,1022.06 	"/>
	<polygon class="st0" points="375.47,342.53 547.6,435.21 554.66,268.45 	"/>
	<polygon class="st1" points="240.17,722.37 547.6,435.21 375.47,342.53 	"/>
	<polygon class="st2" points="505.72,897.68 547.6,435.21 240.17,722.37 	"/>
	<polygon class="st1" points="505.72,897.68 688.7,1007.84 286.39,1022.06 	"/>
	<polygon class="st4" points="295.33,1080 688.7,1007.84 286.39,1022.06 	"/>
	<polygon class="st2" points="542.02,114.3 840.37,0 532.56,-1.15 	"/>
	<polygon class="st0" points="542.02,114.3 840.37,0 554.66,268.45 	"/>
	<polygon class="st2" points="688.7,1007.84 838.19,1080 295.33,1080 	"/>
	<polygon class="st6" points="1940,0 1666.53,0 1940,240.98 	"/>
	<polygon class="st7" points="1940,918.39 1686.44,1080 1940,1080 	"/>
	<polygon class="st8" points="1940,734.7 1783.55,1018.11 1940,918.39 	"/>
	<polygon class="st9" points="1848.37,160.23 1940,509.18 1940,240.98 	"/>
	<polygon class="st10" points="1940,734.7 1715.55,644.14 1940,509.18 	"/>
	<polygon class="st6" points="1783.55,1018.11 1715.55,644.14 1940,734.7 	"/>
	<polygon class="st7" points="1848.37,160.23 1715.55,644.14 1940,509.18 	"/>
	<polygon class="st9" points="1666.53,0 1800.48,334.71 1848.37,160.23 	"/>
	<polygon class="st10" points="1715.55,644.14 1686.44,1080 1783.55,1018.11 	"/>
	<polygon class="st11" points="1700.66,867.21 1338.7,1080 1686.44,1080 	"/>
	<polygon class="st7" points="1715.55,644.14 1428.02,737.26 1700.66,867.21 	"/>
	<polygon class="st8" points="1666.53,0 1385.3,0 1710.01,108.65 	"/>
	<polygon class="st9" points="1385.3,0 1092.6,0 1240.87,205.85 	"/>
	<polygon class="st6" points="1710.01,108.65 1240.87,205.85 1385.3,0 	"/>
	<polygon class="st11" points="1800.48,334.71 1240.87,205.85 1710.01,108.65 	"/>
	<polygon class="st9" points="1715.55,644.14 1544.51,275.77 1800.48,334.71 	"/>
	<polygon class="st10" points="1428.02,737.26 1544.51,275.77 1715.55,644.14 	"/>
	<polygon class="st8" points="1240.87,205.85 1428.02,737.26 1544.51,275.77 	"/>
	<polygon class="st9" points="1700.66,867.21 1428.02,737.26 1338.7,1080 	"/>
	<path class="st12" d="M547.6,435.21"/>
	<polygon class="st0" points="547.6,435.21 688.7,1007.84 505.72,897.68 	"/>
	<polygon class="st13" points="840.37,0 1240.87,205.85 1092.6,0 	"/>
	<polygon class="st3" points="554.66,268.45 1240.87,205.85 840.37,0 	"/>
	<polygon class="st1" points="547.6,435.21 955.88,231.85 554.66,268.45 	"/>
	<polygon class="st9" points="1428.02,737.26 1240.87,205.85 1131.25,845.87 	"/>
	<polygon class="st1" points="638.51,804.16 1131.25,845.87 688.7,1007.84 	"/>
	<polygon class="st3" points="547.6,435.21 846.89,821.8 638.51,804.16 	"/>
	<polygon class="st2" points="719.5,657.26 955.88,231.85 547.6,435.21 	"/>
	<polygon class="st14" points="846.89,821.8 719.5,657.26 1131.25,845.87 	"/>
	<polygon class="st9" points="1131.25,845.87 1240.87,205.85 949.07,231.85 	"/>
	<polygon class="st15" points="719.5,657.26 955.88,231.85 1131.25,845.87 	"/>
	<polygon class="st14" points="1131.25,845.87 838.19,1080 688.7,1007.84 	"/>
	<polygon class="st15" points="1338.7,1080 1131.25,845.87 838.19,1080 	"/>
	<polygon class="st11" points="1428.02,737.26 1131.25,845.87 1338.7,1080 	"/>
</g>
<g id="Capa_11">
	<rect class="st16" width="1940" height="1080"/>
</g>
<g id="Capa_2">
	<polygon class="st17" points="1100.26,451.09 1069.39,475.97 1094.75,473.61 	"/>
	<polygon class="st18" points="1100.26,451.09 1122.78,447.62 1119.64,463.53 	"/>
	<polygon class="st19" points="1094.75,473.61 1120.42,482.11 1100.26,451.09 	"/>
	<polygon class="st17" points="1119.64,463.53 1120.42,482.11 1100.26,451.09 	"/>
	<polygon class="st20" points="1119.64,463.53 1149.56,456.28 1122.78,447.62 	"/>
	<polygon class="st21" points="1120.42,482.11 1149.56,456.28 1119.64,463.53 	"/>
	<polygon class="st22" points="1120.42,482.11 1143.89,488.41 1138.55,466.04 	"/>
	<polygon class="st23" points="1149.56,456.28 1143.89,488.41 1138.55,466.04 	"/>
	<polygon class="st24" points="1146.33,474.57 1173.18,473.77 1149.56,456.28 	"/>
	<polygon class="st25" points="1143.89,488.41 1173.18,473.77 1146.33,474.57 	"/>
	<polygon class="st26" points="1158.54,481.09 1189.56,490.46 1173.18,473.77 	"/>
	<polygon class="st27" points="1143.89,488.41 1189.56,490.46 1158.54,481.09 	"/>
	<polygon class="st28" points="903.81,446.83 914.42,467.94 927.33,461.43 	"/>
	<polygon class="st29" points="914.42,467.94 934.47,479.5 927.33,461.43 	"/>
	<polygon class="st20" points="903.81,446.83 878.4,443.79 908.81,456.78 	"/>
	<polygon class="st18" points="914.42,467.94 908.81,484 934.47,479.5 	"/>
	<polygon class="st30" points="908.81,456.78 908.81,484 914.42,467.94 	"/>
	<polygon class="st31" points="878.4,443.79 908.81,467.52 908.81,456.78 	"/>
	<polygon class="st20" points="878.4,443.79 846.17,455.02 890.61,453.31 	"/>
	<polygon class="st32" points="890.61,453.31 893.61,472.98 908.81,467.52 	"/>
	<polygon class="st33" points="893.61,472.98 908.81,484 908.81,467.52 	"/>
	<polygon class="st34" points="893.61,472.98 865.27,454.29 890.61,453.31 	"/>
	<polygon class="st35" points="893.61,472.98 872.31,486.73 908.81,484 	"/>
	<polygon class="st36" points="865.27,454.29 881.48,480.81 893.61,472.98 	"/>
	<polygon class="st37" points="846.17,455.02 881.48,480.81 865.27,454.29 	"/>
	<polygon class="st38" points="863.85,467.94 872.31,486.73 881.48,480.81 	"/>
	<polygon class="st39" points="863.85,467.94 830.84,488.73 872.31,486.73 	"/>
	<polygon class="st40" points="846.17,455.02 842.85,481.17 863.85,467.94 	"/>
	<polygon class="st41" points="846.17,455.02 822.02,465.63 842.85,481.17 	"/>
	<polygon class="st42" points="822.02,465.63 810.47,476.55 842.85,481.17 	"/>
	<polygon class="st43" points="810.47,476.55 830.84,488.73 842.85,481.17 	"/>
	<polygon class="st44" points="1069.39,475.97 1092.23,483.06 1094.75,473.61 	"/>
	<polygon class="st45" points="1092.23,483.06 1120.42,482.11 1094.75,473.61 	"/>
	<polygon class="st46" points="972.27,608.43 1007.34,619.55 936.78,625.64 	"/>
	<polygon class="st47" points="936.78,625.64 910.74,651.05 963.47,623.34 	"/>
	<polygon class="st48" points="963.47,623.34 999.78,645.59 1007.34,619.55 	"/>
	<polygon class="st49" points="910.74,651.05 888.06,667.22 910.74,685.28 	"/>
	<polygon class="st50" points="888.06,667.22 875.88,689.27 901.91,678.25 	"/>
	<polygon class="st51" points="910.74,651.05 937.11,661.34 942.34,634.45 	"/>
	<polygon class="st52" points="875.88,689.27 910.74,685.28 901.91,678.25 	"/>
	<polygon class="st53" points="910.74,685.28 937.11,661.34 910.74,651.05 	"/>
	<polygon class="st49" points="942.34,634.45 999.78,645.59 963.47,623.34 	"/>
	<polygon class="st53" points="937.11,661.34 973.54,640.5 942.34,634.45 	"/>
	<polygon class="st54" points="937.11,661.34 944.34,670.79 910.74,685.28 	"/>
	<polygon class="st55" points="875.88,689.27 888.9,697.67 910.74,685.28 	"/>
	<polygon class="st56" points="944.34,670.79 973.54,640.5 937.11,661.34 	"/>
	<polygon class="st57" points="944.34,670.79 985.41,656.51 973.54,640.5 	"/>
	<polygon class="st58" points="999.78,645.59 985.41,656.51 973.54,640.5 	"/>
	<polygon class="st59" points="1007.34,619.55 1040.52,608.43 1067.61,623.34 	"/>
	<polygon class="st60" points="1067.61,623.34 1073.7,661.34 1094.07,652.1 	"/>
	<polygon class="st61" points="1094.07,652.1 1123.05,694.52 1130.61,681.92 	"/>
	<polygon class="st62" points="1123.05,694.52 1085.25,689.27 1116.96,707.54 	"/>
	<polygon class="st63" points="1073.7,661.34 1105.04,668.17 1094.07,652.1 	"/>
	<polygon class="st64" points="999.78,645.59 1036.09,621.36 1007.34,619.55 	"/>
	<polygon class="st65" points="1036.09,621.36 1073.7,661.34 1067.61,623.34 	"/>
	<polygon class="st66" points="999.78,645.59 1057,643.59 1036.09,621.36 	"/>
	<polygon class="st58" points="999.78,645.59 1024.56,660.14 985.41,656.51 	"/>
	<polygon class="st67" points="1024.56,660.14 1038.84,644.23 999.78,645.59 	"/>
	<polygon class="st68" points="1038.84,644.23 1073.7,661.34 1057,643.59 	"/>
	<polygon class="st57" points="1105.04,668.17 1085.25,689.27 1123.05,694.52 	"/>
	<polygon class="st69" points="1073.7,661.34 1085.25,689.27 1105.04,668.17 	"/>
	<polygon class="st70" points="1024.56,660.14 1073.7,661.34 1038.84,644.23 	"/>
	<polygon class="st71" points="1024.56,660.14 1085.25,689.27 1073.7,661.34 	"/>
	<polygon class="st72" points="1099.62,697.55 1095.85,728.28 1116.96,707.54 	"/>
	<polygon class="st73" points="888.9,697.67 899.4,716.63 923.92,719.93 	"/>
	<polygon class="st74" points="910.74,685.28 913.93,713.58 888.9,697.67 	"/>
	<polygon class="st75" points="923.92,719.93 949.54,724.34 938.2,698.51 	"/>
	<polygon class="st76" points="913.93,713.58 938.2,698.51 910.74,685.28 	"/>
	<polygon class="st77" points="923.92,719.93 938.2,698.51 913.93,713.58 	"/>
	<polygon class="st62" points="1098.24,708.8 1065.3,724.34 1095.85,728.28 	"/>
	<polygon class="st78" points="1085.25,689.27 1098.24,708.8 1099.62,697.55 	"/>
	<polygon class="st79" points="1085.25,689.27 1065.3,724.34 1098.24,708.8 	"/>
	<polygon class="st80" points="985.41,656.51 1016.16,676.31 1024.56,660.14 	"/>
	<path class="st55" d="M944.34,670.79c0,0,40.32,6.77,40.16,6.14c-0.16-0.63,0.9-20.42,0.9-20.42L944.34,670.79z"/>
	<polygon class="st81" points="938.2,698.51 944.34,670.79 910.74,685.28 	"/>
	<polygon class="st82" points="1016.16,676.31 984.5,676.94 985.41,656.51 	"/>
	<polygon class="st83" points="1016.16,676.31 1058.24,676.31 1024.56,660.14 	"/>
	<polygon class="st84" points="1065.3,724.34 1071.08,714.17 1022.3,719.26 	"/>
	<polygon class="st85" points="1071.08,714.17 1021.51,704.97 1022.3,719.26 	"/>
	<polygon class="st58" points="943.87,711.43 980.25,708.8 949.54,724.34 	"/>
	<polygon class="st53" points="980.25,708.8 1022.3,719.26 949.54,724.34 	"/>
	<polygon class="st86" points="980.25,708.8 1021.51,704.97 1022.3,719.26 	"/>
	<polygon class="st60" points="1058.24,676.31 1071.08,714.17 1085.25,689.27 	"/>
	<polygon class="st87" points="938.2,698.51 984.5,676.94 944.34,670.79 	"/>
	<polygon class="st88" points="984.5,676.94 1019.31,691.48 1016.16,676.31 	"/>
	<polygon class="st89" points="1019.31,691.48 1058.24,676.31 1016.16,676.31 	"/>
	<polygon class="st90" points="984.5,676.94 980.25,708.8 938.2,698.51 	"/>
	<polygon class="st91" points="938.2,698.51 943.87,711.43 980.25,708.8 	"/>
	<polygon class="st92" points="1019.31,691.48 1021.51,704.97 980.25,708.8 	"/>
	<polygon class="st70" points="1019.31,691.48 984.5,676.94 980.25,708.8 	"/>
	<polygon class="st93" points="1058.24,676.31 1019.31,691.48 1021.51,704.97 	"/>
	<polygon class="st94" points="1039.88,690.64 1071.08,714.17 1058.24,676.31 	"/>
	<polygon class="st67" points="1021.51,704.97 1039.88,690.64 1071.08,714.17 	"/>
</g>
<g id="Capa_3">
	<polygon class="st95" points="881.82,146.4 890.01,190.75 910.79,146.4 	"/>
	<polygon class="st96" points="928.59,224.76 890.01,190.75 899.77,219.09 	"/>
	<polygon class="st97" points="902.33,164.46 905.98,204.83 890.01,190.75 	"/>
	<polygon class="st98" points="905.98,204.83 940.56,184.64 928.59,224.76 	"/>
	<polygon class="st99" points="902.33,164.46 957.26,146.4 910.79,146.4 	"/>
	<polygon class="st100" points="902.33,164.46 940.56,184.64 905.98,204.83 	"/>
	<polygon class="st101" points="957.26,146.4 940.56,184.64 902.33,164.46 	"/>
	<polygon class="st102" points="940.56,184.64 970.01,224.76 928.59,224.76 	"/>
	<polygon class="st103" points="957.26,146.4 994.43,146.4 947.58,168.57 	"/>
	<polygon class="st104" points="970.01,224.76 998.99,193.27 1015.53,223.98 	"/>
	<polygon class="st105" points="940.56,184.64 998.99,193.27 970.01,224.76 	"/>
	<polygon class="st106" points="947.58,168.57 998.99,193.27 940.56,184.64 	"/>
	<polygon class="st107" points="947.58,168.57 994.43,146.4 998.99,193.27 	"/>
	<polygon class="st108" points="996.81,170.88 1044.98,146.4 994.43,146.4 	"/>
	<polygon class="st109" points="1113.34,146.4 1121.05,187.75 1143.42,159.88 	"/>
	<polygon class="st110" points="1121.05,187.75 1063.57,222.09 1095.54,219.25 	"/>
	<polygon class="st111" points="1044.98,146.4 1051.28,178.46 1079.79,146.4 	"/>
	<polygon class="st112" points="1079.79,146.4 1116.9,165.52 1113.34,146.4 	"/>
	<polygon class="st113" points="1051.28,178.46 996.81,170.88 1044.98,146.4 	"/>
	<polygon class="st104" points="1079.79,146.4 1116.9,165.52 1051.28,178.46 	"/>
	<polygon class="st114" points="1121.05,187.75 1051.28,178.46 1116.9,165.52 	"/>
	<polygon class="st115" points="998.99,193.27 1051.28,178.46 996.81,170.88 	"/>
	<polygon class="st116" points="1015.53,223.98 1051.28,178.46 1063.57,222.09 	"/>
	<polygon class="st117" points="998.99,193.27 1015.53,223.98 1051.28,178.46 	"/>
	<polygon class="st118" points="1051.28,178.46 1063.57,222.09 1121.05,187.75 	"/>
</g>
<g id="Capa_4">
	<polygon class="st119" points="844.17,146.4 820.02,162.43 881.82,146.4 	"/>
	<polygon class="st120" points="886.34,170.88 839.08,157.48 881.82,146.4 	"/>
	<polygon class="st121" points="820.02,162.43 829.89,195.79 839.08,157.48 	"/>
	<polygon class="st122" points="829.89,195.79 886.34,170.88 839.08,157.48 	"/>
	<polygon class="st123" points="853.73,185.27 890.01,190.75 886.34,170.88 	"/>
	<polygon class="st124" points="829.89,195.79 831.15,232.32 853.73,185.27 	"/>
	<polygon class="st125" points="890.01,190.75 842.34,209.01 853.73,185.27 	"/>
	<polygon class="st126" points="899.77,219.09 842.34,209.01 890.01,190.75 	"/>
	<polygon class="st127" points="831.15,232.32 867.45,213.42 842.34,209.01 	"/>
	<polygon class="st128" points="867.45,213.42 875.88,240.51 899.77,219.09 	"/>
	<polygon class="st129" points="875.88,240.51 831.15,232.32 867.45,213.42 	"/>
	<polygon class="st130" points="831.15,232.32 837.03,270.33 857.24,237.1 	"/>
	<polygon class="st131" points="837.03,270.33 855.72,281.67 857.24,237.1 	"/>
	<polygon class="st132" points="855.72,281.67 893.52,278.1 857.24,237.1 	"/>
	<polygon class="st133" points="857.24,237.1 875.88,240.51 893.52,278.1 	"/>
	<polygon class="st134" points="899.77,219.09 875.88,240.51 893.52,278.1 	"/>
	<polygon class="st135" points="899.77,219.09 928.59,224.76 896.65,248.6 	"/>
	<polygon class="st136" points="896.65,248.6 929.79,256.89 928.59,224.76 	"/>
	<polygon class="st137" points="893.52,278.1 929.79,256.89 896.65,248.6 	"/>
	<polygon class="st138" points="929.79,256.89 956.1,282.93 893.52,278.1 	"/>
	<polygon class="st139" points="928.59,224.76 970.01,224.76 929.79,256.89 	"/>
	<polygon class="st140" points="956.1,282.93 970.01,224.76 929.79,256.89 	"/>
	<polygon class="st141" points="961.9,258.7 1007.55,251.33 970.01,224.76 	"/>
	<polygon class="st142" points="1007.55,251.33 1015.53,223.98 970.01,224.76 	"/>
	<polygon class="st143" points="956.1,282.93 1012.59,278.1 961.9,258.7 	"/>
	<polygon class="st144" points="1007.55,251.33 961.9,258.7 1012.59,278.1 	"/>
	<polygon class="st145" points="1012.59,278.1 1059.42,285.45 1007.55,251.33 	"/>
	<polygon class="st146" points="1063.57,222.09 1015.53,223.98 1007.55,251.33 	"/>
	<polygon class="st147" points="1143.42,159.88 1179.54,173.11 1121.05,187.75 	"/>
	<polygon class="st148" points="1095.54,219.25 1139.22,226.23 1121.05,187.75 	"/>
	<polygon class="st149" points="1179.54,173.11 1169.04,198.94 1121.05,187.75 	"/>
	<polygon class="st150" points="1139.22,226.23 1169.04,198.94 1121.05,187.75 	"/>
	<path class="st5" d="M1169.04,198.94"/>
	<polygon class="st151" points="1179.54,173.11 1202.64,187.75 1169.04,198.94 	"/>
	<polygon class="st152" points="1169.04,198.94 1181.01,226.23 1202.64,187.75 	"/>
	<polygon class="st153" points="1181.01,226.23 1139.22,226.23 1169.04,198.94 	"/>
	<polygon class="st154" points="1033.48,268.39 1063.57,222.09 1007.55,251.33 	"/>
	<polygon class="st155" points="1063.57,222.09 1084.09,256.89 1095.54,219.25 	"/>
	<polygon class="st146" points="1084.09,256.89 1139.22,226.23 1095.54,219.25 	"/>
	<polygon class="st156" points="1139.22,226.23 1156.65,263.35 1181.01,226.23 	"/>
	<polygon class="st157" points="1147.36,243.57 1084.09,256.89 1139.22,226.23 	"/>
	<polygon class="st158" points="1121.05,249.11 1142.16,287.13 1156.65,263.35 	"/>
	<polygon class="st141" points="1121.05,249.11 1095.54,285.45 1142.16,287.13 	"/>
	<polygon class="st159" points="1147.36,243.57 1121.05,249.11 1156.65,263.35 	"/>
	<polygon class="st160" points="1033.48,268.39 1084.09,256.89 1063.57,222.09 	"/>
	<polygon class="st161" points="1084.09,256.89 1059.42,285.45 1033.48,268.39 	"/>
	<polygon class="st162" points="1084.09,256.89 1095.54,285.45 1121.05,249.11 	"/>
	<polygon class="st163" points="1059.42,285.45 1095.54,285.45 1084.09,256.89 	"/>
</g>
<g id="Capa_5">
	<polygon class="st164" points="820.02,162.43 782.86,178.99 829.89,195.79 	"/>
	<polygon class="st165" points="782.86,178.99 745.48,209.01 803.06,186.2 	"/>
	<polygon class="st166" points="803.06,186.2 831.15,232.32 829.89,195.79 	"/>
	<polygon class="st167" points="745.48,209.01 788.32,226.97 803.06,186.2 	"/>
	<polygon class="st168" points="745.48,209.01 721.75,249.54 765.87,217.56 	"/>
	<polygon class="st169" points="721.75,249.54 751.99,267.81 765.87,217.56 	"/>
	<polygon class="st170" points="721.75,249.54 707.89,297.21 751.99,267.81 	"/>
	<polygon class="st170" points="707.89,297.21 751.99,291.75 751.99,267.81 	"/>
	<polygon class="st171" points="788.32,226.97 831.15,232.32 803.06,186.2 	"/>
	<polygon class="st172" points="788.32,226.97 837.03,270.33 831.15,232.32 	"/>
	<polygon class="st170" points="837.03,270.33 796.51,282.93 855.72,281.67 	"/>
	<polygon class="st166" points="751.99,267.81 796.51,282.93 751.99,291.75 	"/>
	<polygon class="st173" points="788.32,226.97 796.51,282.93 837.03,270.33 	"/>
	<polygon class="st170" points="751.99,267.81 788.32,226.97 765.87,217.56 	"/>
	<polygon class="st174" points="796.51,282.93 788.32,226.97 751.99,267.81 	"/>
	<polygon class="st175" points="1202.64,187.75 1241.69,222.09 1181.01,226.23 	"/>
	<polygon class="st176" points="1142.16,287.13 1197.18,289.02 1156.65,263.35 	"/>
	<path class="st177" d="M1181.01,226.23c-0.44-1.01-24.36,37.12-24.36,37.12l40.53,25.67L1181.01,226.23z"/>
	<polygon class="st178" points="1214.04,223.98 1190.32,262.38 1181.01,226.23 	"/>
	<polygon class="st179" points="1197.18,289.02 1238.75,291.75 1190.32,262.38 	"/>
	<polygon class="st180" points="1214.04,223.98 1224.4,283.05 1190.32,262.38 	"/>
	<polygon class="st181" points="1241.69,222.09 1219.48,255 1214.04,223.98 	"/>
	<polygon class="st170" points="1238.75,291.75 1271.72,265.08 1282.22,310.65 	"/>
	<polygon class="st170" points="1241.69,222.09 1271.72,265.08 1219.48,255 	"/>
	<polygon class="st182" points="1224.4,283.05 1271.72,265.08 1219.48,255 	"/>
	<polygon class="st176" points="1238.75,291.75 1224.4,283.05 1271.72,265.08 	"/>
	<polygon class="st183" points="690.62,414.86 740.7,404 744.16,421.63 	"/>
	<polygon class="st124" points="691.56,436.28 690.62,414.86 722.55,418.9 	"/>
	<polygon class="st184" points="722.55,418.9 747.31,461.64 744.16,421.63 	"/>
	<polygon class="st185" points="740.7,404 759.76,401.32 744.16,421.63 	"/>
	<polygon class="st186" points="744.16,421.63 760.39,449.41 759.76,401.32 	"/>
	<polygon class="st187" points="747.31,461.64 760.39,449.41 744.16,421.63 	"/>
	<polygon class="st188" points="691.56,436.28 734.93,440.27 722.55,418.9 	"/>
	<polygon class="st189" points="691.56,436.28 687.78,477.34 713.95,438.34 	"/>
	<polygon class="st124" points="713.95,438.34 712.19,482.64 734.93,440.27 	"/>
	<polygon class="st190" points="687.78,477.34 712.19,482.64 713.95,438.34 	"/>
	<polygon class="st191" points="712.19,482.64 747.31,461.64 734.93,440.27 	"/>
	<polygon class="st192" points="747.31,461.64 757.55,492.35 760.39,449.41 	"/>
	<polygon class="st193" points="757.55,492.35 731.86,470.88 747.31,461.64 	"/>
	<polygon class="st194" points="712.19,482.64 757.55,492.35 731.86,470.88 	"/>
	<polygon class="st187" points="712.19,482.64 684.47,519.6 687.78,477.34 	"/>
	<polygon class="st195" points="695.77,504.53 720.7,507.31 712.19,482.64 	"/>
	<polygon class="st196" points="718.69,501.48 738.07,488.18 712.19,482.64 	"/>
	<polygon class="st197" points="757.55,492.35 750.23,534.4 738.07,488.18 	"/>
	<polygon class="st198" points="718.69,501.48 742.32,504.34 738.07,488.18 	"/>
	<polygon class="st199" points="718.69,501.48 726.79,525.37 742.32,504.34 	"/>
	<polygon class="st200" points="726.79,525.37 750.23,534.4 742.32,504.34 	"/>
	<polygon class="st201" points="695.77,504.53 684.47,519.6 720.7,507.31 	"/>
	<polygon class="st202" points="726.79,525.37 684.47,519.6 720.7,507.31 	"/>
	<polygon class="st124" points="684.47,519.6 681.01,561.81 705.63,522.48 	"/>
	<polygon class="st203" points="705.63,522.48 720.7,551.1 681.01,561.81 	"/>
	<polygon class="st138" points="726.79,525.37 720.7,551.1 705.63,522.48 	"/>
	<polygon class="st204" points="720.7,551.1 750.23,534.4 726.79,525.37 	"/>
	<polygon class="st205" points="720.7,551.1 750.23,579.13 734.87,543.08 	"/>
	<polygon class="st206" points="750.23,534.4 750.23,579.13 734.87,543.08 	"/>
	<polygon class="st207" points="750.23,579.13 747.81,618.19 729.2,588.27 	"/>
	<polygon class="st208" points="720.7,551.1 729.2,588.27 750.23,579.13 	"/>
	<polygon class="st209" points="699.69,556.77 729.2,588.27 720.7,551.1 	"/>
	<polygon class="st145" points="681.01,561.81 684.47,604.65 699.69,556.77 	"/>
	<polygon class="st210" points="690.9,584.43 716.21,574.4 699.69,556.77 	"/>
	<polygon class="st211" points="690.9,584.43 729.2,588.27 716.21,574.4 	"/>
	<polygon class="st212" points="684.47,604.65 729.2,588.27 690.9,584.43 	"/>
	<polygon class="st213" points="684.47,604.65 685.73,640.5 722.27,652.52 	"/>
	<polygon class="st138" points="729.2,588.27 703.55,628.81 684.47,604.65 	"/>
	<polygon class="st214" points="703.55,628.81 747.81,618.19 729.2,588.27 	"/>
	<polygon class="st124" points="722.27,652.52 747.81,618.19 703.55,628.81 	"/>
	<polygon class="st215" points="722.27,652.52 755.03,666.75 747.81,618.19 	"/>
	<polygon class="st216" points="755.03,666.75 725.68,689.27 763.22,713.58 	"/>
	<polygon class="st217" points="685.73,640.5 685.73,679.93 722.27,652.52 	"/>
	<polygon class="st218" points="722.27,652.52 725.68,689.27 755.03,666.75 	"/>
	<polygon class="st219" points="763.22,713.58 739.71,751.43 775.51,758.05 	"/>
	<polygon class="st214" points="775.51,758.05 775.51,784.51 739.71,751.43 	"/>
	<polygon class="st220" points="725.68,689.27 685.73,679.93 722.27,652.52 	"/>
	<polygon class="st194" points="685.73,679.93 698.02,713.58 725.68,689.27 	"/>
	<polygon class="st214" points="698.02,713.58 739.71,751.43 705.71,745.45 	"/>
	<polygon class="st221" points="705.71,745.45 732.35,770.65 739.71,751.43 	"/>
	<polygon class="st222" points="725.68,689.27 739.71,751.43 698.02,713.58 	"/>
	<polygon class="st223" points="763.22,713.58 739.71,751.43 725.68,689.27 	"/>
	<polygon class="st224" points="732.35,770.65 775.51,784.51 739.71,751.43 	"/>
	<polygon class="st202" points="1246.42,408.72 1246.42,449.04 1265.63,414.7 	"/>
	<polygon class="st225" points="1281.38,438.64 1285.79,416.91 1265.63,414.7 	"/>
	<polygon class="st225" points="1281.38,438.64 1304.69,426.67 1285.79,416.91 	"/>
	<polygon class="st226" points="1246.42,449.04 1281.38,438.64 1265.63,414.7 	"/>
	<polygon class="st227" points="1281.38,438.64 1304.69,465.43 1304.69,426.67 	"/>
	<polygon class="st228" points="1281.38,438.64 1276.97,472.35 1246.42,449.04 	"/>
	<polygon class="st229" points="1304.69,465.43 1276.97,472.35 1281.38,438.64 	"/>
	<polygon class="st230" points="1276.97,472.35 1304.69,488.41 1304.69,465.43 	"/>
	<polygon class="st231" points="1246.42,449.04 1244.53,488.41 1276.97,472.35 	"/>
	<polygon class="st232" points="1276.97,472.35 1285.79,494.71 1293.82,482.11 	"/>
	<polygon class="st233" points="1285.79,494.71 1244.53,488.41 1276.97,472.35 	"/>
	<polygon class="st234" points="1285.79,494.71 1304.69,488.41 1293.82,482.11 	"/>
	<polygon class="st201" points="1285.79,494.71 1302.8,538.81 1304.69,488.41 	"/>
	<polygon class="st235" points="1244.53,488.41 1244.53,527.16 1285.79,494.71 	"/>
	<polygon class="st230" points="1262.82,512.78 1296.55,522.61 1285.79,494.71 	"/>
	<polygon class="st236" points="1296.55,522.61 1276.97,547.95 1302.8,538.81 	"/>
	<polygon class="st237" points="1262.82,512.78 1276.97,547.95 1296.55,522.61 	"/>
	<polygon class="st204" points="1276.97,547.95 1244.53,527.16 1262.82,512.78 	"/>
	<polygon class="st128" points="1244.53,527.16 1246.42,561.18 1276.97,547.95 	"/>
	<polygon class="st238" points="1246.42,561.18 1304.69,574.41 1276.97,547.95 	"/>
	<polygon class="st124" points="1302.8,538.81 1304.69,574.41 1276.97,547.95 	"/>
	<polygon class="st239" points="1246.42,561.18 1244.53,601.81 1276.97,568.11 	"/>
	<polygon class="st145" points="1276.97,568.11 1308.16,615.88 1304.69,574.41 	"/>
	<polygon class="st240" points="1244.53,601.81 1289.89,587.9 1276.97,568.11 	"/>
	<polygon class="st241" points="1289.89,587.9 1285.79,633.48 1308.16,615.88 	"/>
	<polygon class="st242" points="1244.53,601.81 1267.21,615.88 1289.89,587.9 	"/>
	<polygon class="st207" points="1267.21,615.88 1285.79,633.48 1289.89,587.9 	"/>
	<polygon class="st243" points="1244.53,601.81 1237.91,655.36 1267.21,615.88 	"/>
	<polygon class="st209" points="1237.91,655.36 1234.13,694.52 1267.21,673.31 	"/>
	<polygon class="st142" points="1267.21,615.88 1267.21,673.31 1237.91,655.36 	"/>
	<polygon class="st244" points="1234.13,694.52 1226.89,735.68 1260.75,735.68 	"/>
	<polygon class="st245" points="1226.89,735.68 1226.89,765.29 1260.75,735.68 	"/>
	<polygon class="st246" points="1226.89,765.29 1212.09,792.7 1270.36,781.67 	"/>
	<polygon class="st247" points="1212.09,792.7 1256.81,797.74 1270.36,781.67 	"/>
	<polygon class="st223" points="1285.79,633.48 1306.58,668.17 1308.16,615.88 	"/>
	<polygon class="st192" points="1285.79,633.48 1267.21,649.06 1267.21,615.88 	"/>
	<polygon class="st241" points="1267.21,649.06 1306.58,668.17 1285.79,633.48 	"/>
	<polygon class="st248" points="1267.21,673.31 1284.22,714.17 1234.13,694.52 	"/>
	<polygon class="st145" points="1267.21,673.31 1306.58,668.17 1267.21,649.06 	"/>
	<polygon class="st249" points="1306.58,668.17 1301.54,699.04 1267.21,673.31 	"/>
	<polygon class="st250" points="1284.22,714.17 1301.54,699.04 1267.21,673.31 	"/>
	<polygon class="st251" points="1284.22,714.17 1282.96,751.75 1301.54,699.04 	"/>
	<polygon class="st214" points="1282.96,751.75 1226.89,765.29 1270.36,781.67 	"/>
	<polygon class="st252" points="1260.75,735.68 1284.22,714.17 1234.13,694.52 	"/>
	<polygon class="st253" points="1260.75,735.68 1282.96,751.75 1284.22,714.17 	"/>
	<polygon class="st132" points="1226.89,765.29 1282.96,751.75 1260.75,735.68 	"/>
</g>
<g id="Capa_6">
	<polygon class="st254" points="934.47,479.5 911.61,519.37 949.38,496.29 	"/>
	<polygon class="st255" points="908.81,484 923.92,497.9 934.47,479.5 	"/>
	<polygon class="st256" points="908.81,484 872.31,486.73 901.21,501.01 	"/>
	<polygon class="st257" points="872.31,486.73 865.27,507 901.21,501.01 	"/>
	<polygon class="st258" points="901.21,501.01 923.92,497.9 908.81,484 	"/>
	<polygon class="st259" points="901.21,501.01 911.61,519.37 923.92,497.9 	"/>
	<polygon class="st260" points="934.47,479.5 937.11,449.41 958.2,481.61 	"/>
	<polygon class="st261" points="937.11,449.41 927.33,461.43 934.47,479.5 	"/>
	<polygon class="st262" points="937.11,449.41 966.71,449.41 958.2,481.61 	"/>
	<polygon class="st263" points="966.71,449.41 926.54,426.99 937.11,449.41 	"/>
	<polygon class="st264" points="830.84,488.73 865.27,507 872.31,486.73 	"/>
	<polygon class="st265" points="865.27,507 911.61,519.37 901.21,501.01 	"/>
	<polygon class="st266" points="865.27,507 858.35,525.37 911.61,519.37 	"/>
	<polygon class="st267" points="830.84,488.73 816.14,504.34 865.27,507 	"/>
	<polygon class="st260" points="816.14,504.34 858.35,525.37 865.27,507 	"/>
	<polygon class="st265" points="816.14,504.34 810.47,519.37 858.35,525.37 	"/>
	<polygon class="st268" points="810.47,476.55 816.14,504.34 830.84,488.73 	"/>
	<polygon class="st269" points="926.54,426.99 903.81,446.83 937.11,449.41 	"/>
	<polygon class="st270" points="927.33,461.43 903.81,446.83 937.11,449.41 	"/>
	<polygon class="st262" points="926.54,426.99 888.44,411.48 913.7,438.2 	"/>
	<polygon class="st262" points="888.44,411.48 865.27,413.76 913.7,438.2 	"/>
	<polygon class="st271" points="865.27,413.76 837.87,421.63 862.44,429.51 	"/>
	<polygon class="st272" points="837.87,421.63 812.04,438.2 862.44,429.51 	"/>
	<polygon class="st262" points="812.04,438.2 791.89,456.28 810.47,476.55 	"/>
	<polygon class="st270" points="791.89,456.28 781.81,485.78 810.47,476.55 	"/>
	<polygon class="st273" points="781.81,485.78 816.14,504.34 810.47,476.55 	"/>
	<polygon class="st266" points="862.44,429.51 913.7,438.2 865.27,413.76 	"/>
	<polygon class="st274" points="903.81,446.83 888.06,433.85 913.7,438.2 	"/>
	<polygon class="st275" points="862.44,429.51 878.4,443.79 888.06,433.85 	"/>
	<polygon class="st276" points="812.04,438.2 822.02,465.63 810.47,476.55 	"/>
	<polygon class="st274" points="846.17,455.02 812.04,438.2 822.02,465.63 	"/>
	<polygon class="st277" points="846.17,455.02 862.44,429.51 812.04,438.2 	"/>
	<polygon class="st273" points="878.4,443.79 862.44,429.51 846.17,455.02 	"/>
	<polygon class="st278" points="888.06,433.85 878.4,443.79 903.81,446.83 	"/>
	<polygon class="st268" points="966.71,449.41 1004.98,472.98 958.2,481.61 	"/>
	<polygon class="st262" points="1004.98,472.98 1052.7,461.43 1041.67,483.06 	"/>
	<polygon class="st274" points="949.38,496.29 958.2,481.61 934.47,479.5 	"/>
	<polygon class="st273" points="958.2,481.61 997.89,504.34 1004.98,472.98 	"/>
	<polygon class="st279" points="997.89,504.34 1024.66,492.35 1004.98,472.98 	"/>
	<polygon class="st280" points="949.38,496.29 997.89,504.34 958.2,481.61 	"/>
	<polygon class="st281" points="949.38,496.29 955.32,536.29 977.84,501.01 	"/>
	<polygon class="st282" points="955.32,536.29 917.88,554.56 958.2,565.27 	"/>
	<polygon class="st283" points="917.88,554.56 910.74,588.27 958.2,565.27 	"/>
	<polygon class="st260" points="910.74,588.27 927.33,612.21 935.52,576.26 	"/>
	<polygon class="st269" points="935.52,576.26 963.61,591.42 927.33,612.21 	"/>
	<polygon class="st284" points="955.32,536.29 992.54,543.08 977.84,501.01 	"/>
	<polygon class="st285" points="1024.66,492.35 1041.67,483.06 1004.98,472.98 	"/>
	<polygon class="st286" points="1024.66,492.35 1049.13,512.67 1041.67,483.06 	"/>
	<polygon class="st287" points="958.2,565.27 992.54,543.08 955.32,536.29 	"/>
	<polygon class="st288" points="997.89,504.34 1049.13,512.67 1024.66,492.35 	"/>
	<polygon class="st289" points="997.89,504.34 992.54,543.08 977.84,501.01 	"/>
	<polygon class="st274" points="1049.13,512.67 1052.7,549.52 997.89,504.34 	"/>
	<path class="st257" d="M1052.7,549.52c0,0,37.12,36.54,36.67,35.59c-0.45-0.95-7.3-28.35-7.3-28.35L1052.7,549.52z"/>
	<polygon class="st269" points="1076.25,572.6 1071.74,610.95 1089.37,585.12 	"/>
	<polygon class="st290" points="1073.99,591.77 1033.17,588.27 1071.74,610.95 	"/>
	<polygon class="st269" points="1033.17,588.27 993.8,579.13 1004.98,601.18 	"/>
	<polygon class="st262" points="993.8,579.13 963.61,591.42 1004.98,601.18 	"/>
	<polygon class="st291" points="992.54,543.08 1052.7,549.52 997.89,504.34 	"/>
	<polygon class="st292" points="1052.7,549.52 1073.99,591.77 1076.25,572.6 	"/>
	<polygon class="st293" points="1052.7,549.52 1036.09,574.41 1073.99,591.77 	"/>
	<polygon class="st274" points="1033.17,588.27 1036.09,574.41 1073.99,591.77 	"/>
	<polygon class="st258" points="992.54,543.08 1036.09,574.41 1052.7,549.52 	"/>
	<polygon class="st290" points="993.8,579.13 1036.09,574.41 1033.17,588.27 	"/>
	<polygon class="st294" points="963.61,591.42 958.2,565.27 935.52,576.26 	"/>
	<polygon class="st265" points="992.54,543.08 993.8,579.13 958.2,565.27 	"/>
	<polygon class="st290" points="993.8,579.13 958.2,565.27 963.61,591.42 	"/>
	<polygon class="st295" points="992.54,543.08 1036.09,574.41 993.8,579.13 	"/>
	<polygon class="st296" points="1050.72,529.09 1082.07,556.77 1052.7,549.52 	"/>
	<polygon class="st263" points="1052.7,461.43 1066.4,433.85 1100.26,451.09 	"/>
	<polygon class="st260" points="1069.39,475.97 1052.7,461.43 1100.26,451.09 	"/>
	<polygon class="st269" points="1066.4,433.85 1110.34,415.33 1085.92,443.79 	"/>
	<polygon class="st297" points="1100.26,451.09 1110.34,415.33 1085.92,443.79 	"/>
	<polygon class="st298" points="1110.34,415.33 1122.78,447.62 1100.26,451.09 	"/>
	<polygon class="st261" points="1069.39,475.97 1041.67,483.06 1052.7,461.43 	"/>
	<polygon class="st295" points="1041.67,483.06 1069.39,502.51 1069.39,475.97 	"/>
	<polygon class="st299" points="1069.39,502.51 1092.23,483.06 1069.39,475.97 	"/>
	<polygon class="st276" points="1069.39,502.51 1111.52,525.37 1092.23,483.06 	"/>
	<polygon class="st286" points="1120.42,482.11 1092.23,483.06 1101.93,504.34 	"/>
	<polygon class="st259" points="1111.52,525.37 1146.33,511.29 1101.93,504.34 	"/>
	<polygon class="st258" points="1120.42,482.11 1146.33,511.29 1101.93,504.34 	"/>
	<polygon class="st300" points="1143.89,488.41 1146.33,511.29 1120.42,482.11 	"/>
	<polygon class="st262" points="1110.34,415.33 1154.13,425.98 1122.78,447.62 	"/>
	<polygon class="st258" points="1149.56,456.28 1154.13,425.98 1122.78,447.62 	"/>
	<polygon class="st271" points="1202.01,461.64 1173.18,473.77 1189.56,490.46 	"/>
	<polygon class="st265" points="1202.01,461.64 1154.13,425.98 1173.18,473.77 	"/>
	<polygon class="st301" points="1149.56,456.28 1154.13,425.98 1173.18,473.77 	"/>
	<polygon class="st262" points="1202.01,461.64 1212.72,456.28 1154.13,425.98 	"/>
	<polygon class="st302" points="1189.56,490.46 1215.24,472.35 1202.01,461.64 	"/>
	<polygon class="st303" points="1146.33,511.29 1189.56,490.46 1143.89,488.41 	"/>
	<polygon class="st273" points="1111.52,525.37 1167.67,526.93 1146.33,511.29 	"/>
	<polygon class="st304" points="1189.56,490.46 1167.67,526.93 1146.33,511.29 	"/>
	<polygon class="st305" points="1049.13,512.67 1069.39,502.51 1041.67,483.06 	"/>
</g>
<g id="Capa_7">
	<polygon class="st306" points="707.89,297.21 690.35,357.69 751.99,291.75 	"/>
	<polygon class="st170" points="690.35,357.69 690.62,414.86 740.7,404 	"/>
	<polygon class="st170" points="759.76,401.32 760.39,354.38 740.7,404 	"/>
	<polygon class="st307" points="690.35,357.69 740.7,404 721.75,324.1 	"/>
	<polygon class="st308" points="721.75,324.1 760.39,354.38 740.7,404 	"/>
	<polygon class="st309" points="751.99,291.75 760.39,354.38 721.75,324.1 	"/>
	<polygon class="st310" points="759.76,401.32 822.02,391.71 760.39,354.38 	"/>
	<polygon class="st311" points="796.51,282.93 756.41,324.72 751.99,291.75 	"/>
	<polygon class="st312" points="760.39,354.38 796.51,282.93 756.41,324.72 	"/>
	<polygon class="st313" points="822.02,391.71 820.02,336.43 760.39,354.38 	"/>
	<polygon class="st314" points="796.51,282.93 855.72,281.67 820.02,336.43 	"/>
	<polygon class="st315" points="760.39,354.38 820.02,336.43 796.51,282.93 	"/>
	<polygon class="st316" points="1304.69,426.67 1295.24,364.05 1285.79,416.91 	"/>
	<polygon class="st307" points="1265.63,414.7 1295.24,364.05 1285.79,416.91 	"/>
	<polygon class="st317" points="1246.42,408.72 1295.24,364.05 1265.63,414.7 	"/>
	<polygon class="st318" points="1238.75,291.75 1295.24,364.05 1282.22,310.65 	"/>
	<polygon class="st319" points="1295.24,364.05 1232.72,343.99 1238.75,291.75 	"/>
	<polygon class="st320" points="1232.72,343.99 1246.42,408.72 1295.24,364.05 	"/>
	<polygon class="st321" points="1197.18,289.02 1232.72,343.99 1238.75,291.75 	"/>
	<polygon class="st170" points="1246.42,408.72 1183.42,404 1236.97,364.07 	"/>
	<polygon class="st170" points="822.02,391.71 887.83,390.48 820.02,336.43 	"/>
	<polygon class="st322" points="1232.72,343.99 1183.42,404 1236.97,364.07 	"/>
	<polygon class="st323" points="1197.18,289.02 1178.07,345.88 1232.72,343.99 	"/>
	<polygon class="st307" points="1183.42,404 1178.07,345.88 1232.72,343.99 	"/>
	<polygon class="st324" points="1142.16,287.13 1178.07,345.88 1197.18,289.02 	"/>
	<polygon class="st325" points="1178.07,345.88 1127.82,343.99 1183.42,404 	"/>
	<polygon class="st326" points="1183.42,404 1115.73,389.38 1127.82,343.99 	"/>
	<polygon class="st327" points="1127.82,343.99 1063.57,386.39 1115.73,389.38 	"/>
	<polygon class="st328" points="1063.57,386.39 1066.4,341.63 1127.82,343.99 	"/>
	<polygon class="st329" points="1142.16,287.13 1127.82,343.99 1178.07,345.88 	"/>
	<polygon class="st330" points="855.72,281.67 879.44,345.88 820.02,336.43 	"/>
	<polygon class="st331" points="893.52,278.1 879.44,345.88 855.72,281.67 	"/>
	<polygon class="st332" points="879.44,345.88 934.47,311.99 893.52,278.1 	"/>
	<polygon class="st333" points="934.47,311.99 956.1,282.93 893.52,278.1 	"/>
	<polygon class="st334" points="934.47,311.99 961.9,368.56 956.1,282.93 	"/>
	<polygon class="st335" points="958.52,318.66 1012.59,278.1 956.1,282.93 	"/>
	<polygon class="st307" points="958.52,318.66 1025.29,311.99 1012.59,278.1 	"/>
	<polygon class="st336" points="961.9,368.56 1025.29,311.99 958.52,318.66 	"/>
	<polygon class="st333" points="1025.29,311.99 1059.42,285.45 1012.59,278.1 	"/>
	<polygon class="st337" points="1095.54,285.45 1066.4,341.63 1127.82,343.99 	"/>
	<polygon class="st338" points="1142.16,287.13 1095.54,285.45 1127.82,343.99 	"/>
	<polygon class="st339" points="1059.42,285.45 1066.4,341.63 1025.29,311.99 	"/>
	<polygon class="st340" points="1095.54,285.45 1059.42,285.45 1066.4,341.63 	"/>
	<polygon class="st341" points="879.44,345.88 887.83,390.48 820.02,336.43 	"/>
	<polygon class="st331" points="986.66,346.46 1066.4,341.63 1025.29,311.99 	"/>
	<polygon class="st342" points="1063.57,386.39 986.66,346.46 1066.4,341.63 	"/>
	<polygon class="st170" points="934.47,311.99 887.83,390.48 879.44,345.88 	"/>
	<polygon class="st327" points="961.9,368.56 887.83,390.48 934.47,311.99 	"/>
	<polygon class="st343" points="1063.57,386.39 961.9,368.56 986.66,346.46 	"/>
	<polygon class="st170" points="887.83,390.48 951.91,398.33 961.9,368.56 	"/>
	<polygon class="st308" points="1063.57,386.39 951.91,398.33 961.9,368.56 	"/>
</g>
<g id="Capa_8">
	<polygon class="st344" points="759.76,401.32 812.04,438.2 822.02,391.71 	"/>
	<polygon class="st345" points="812.04,438.2 760.39,449.41 759.76,401.32 	"/>
	<polygon class="st346" points="791.89,456.28 760.39,449.41 812.04,438.2 	"/>
	<polygon class="st220" points="781.81,485.78 760.39,449.41 791.89,456.28 	"/>
	<polygon class="st124" points="757.55,492.35 781.81,485.78 760.39,449.41 	"/>
	<polygon class="st142" points="816.14,504.34 757.55,492.35 781.81,485.78 	"/>
	<polygon class="st148" points="810.47,519.37 757.55,492.35 816.14,504.34 	"/>
	<polygon class="st347" points="955.32,536.29 911.61,519.37 949.38,496.29 	"/>
	<polygon class="st348" points="917.88,554.56 911.61,519.37 955.32,536.29 	"/>
	<polygon class="st349" points="858.35,525.37 917.88,554.56 911.61,519.37 	"/>
	<polygon class="st350" points="910.74,588.27 858.35,525.37 917.88,554.56 	"/>
	<polygon class="st351" points="750.23,534.4 810.47,519.37 757.55,492.35 	"/>
	<polygon class="st214" points="775.51,758.05 810.47,795.69 775.51,784.51 	"/>
	<polygon class="st246" points="775.51,758.05 875.25,792.7 810.47,795.69 	"/>
	<polygon class="st221" points="875.25,792.7 889.49,809.86 810.47,795.69 	"/>
	<polygon class="st352" points="810.47,519.37 750.23,579.13 750.23,534.4 	"/>
	<polygon class="st124" points="747.81,618.19 798.97,612.21 750.23,579.13 	"/>
	<polygon class="st353" points="810.47,519.37 798.97,612.21 750.23,579.13 	"/>
	<polygon class="st354" points="858.35,525.37 804.43,568.11 810.47,519.37 	"/>
	<polygon class="st355" points="910.74,588.27 804.43,568.11 858.35,525.37 	"/>
	<polygon class="st356" points="798.97,612.21 865.27,579.65 804.43,568.11 	"/>
	<polygon class="st357" points="910.74,588.27 879.44,621.36 927.33,612.21 	"/>
	<polygon class="st358" points="798.97,612.21 910.74,588.27 865.27,579.65 	"/>
	<polygon class="st359" points="879.44,621.36 798.97,612.21 910.74,588.27 	"/>
	<polygon class="st203" points="927.33,612.21 936.78,625.64 910.74,651.05 	"/>
	<polygon class="st240" points="879.44,621.36 910.74,651.05 927.33,612.21 	"/>
	<polygon class="st360" points="888.06,667.22 879.44,621.36 910.74,651.05 	"/>
	<polygon class="st187" points="798.97,612.21 755.03,666.75 747.81,618.19 	"/>
	<polygon class="st202" points="763.22,713.58 801.97,690.64 755.03,666.75 	"/>
	<polygon class="st361" points="798.97,612.21 801.97,690.64 755.03,666.75 	"/>
	<polygon class="st197" points="879.44,621.36 800.66,656.51 798.97,612.21 	"/>
	<polygon class="st142" points="888.06,667.22 800.66,656.51 879.44,621.36 	"/>
	<polygon class="st237" points="801.97,690.64 888.06,667.22 800.66,656.51 	"/>
	<polygon class="st197" points="875.88,689.27 801.97,690.64 888.06,667.22 	"/>
	<polygon class="st238" points="888.9,697.67 875.88,689.27 899.4,716.63 	"/>
	<polygon class="st362" points="875.88,689.27 844.36,728.28 899.4,716.63 	"/>
	<polygon class="st363" points="801.97,690.64 844.36,728.28 763.22,713.58 	"/>
	<polygon class="st364" points="875.88,689.27 801.97,690.64 844.36,728.28 	"/>
	<polygon class="st230" points="844.36,728.28 775.51,758.05 763.22,713.58 	"/>
	<polygon class="st365" points="875.25,792.7 812.04,742.25 775.51,758.05 	"/>
	<polygon class="st366" points="844.36,728.28 875.25,792.7 812.04,742.25 	"/>
	<polygon class="st367" points="899.4,716.63 917.88,750.49 844.36,728.28 	"/>
	<polygon class="st210" points="875.25,792.7 917.88,750.49 844.36,728.28 	"/>
	<polygon class="st368" points="923.92,719.93 899.4,716.63 917.88,750.49 	"/>
	<polygon class="st369" points="949.54,724.34 917.88,750.49 923.92,719.93 	"/>
	<polygon class="st370" points="875.25,792.7 964.87,781.67 917.88,750.49 	"/>
	<polygon class="st371" points="949.54,724.34 917.88,750.49 964.87,781.67 	"/>
	<polygon class="st187" points="964.87,781.67 889.49,809.86 875.25,792.7 	"/>
	<polygon class="st189" points="993.8,803.72 964.87,781.67 889.49,809.86 	"/>
	<polygon class="st372" points="1022.3,719.26 959.21,760.49 949.54,724.34 	"/>
	<polygon class="st373" points="964.87,781.67 1013.48,774.43 959.21,760.49 	"/>
	<polygon class="st201" points="1022.3,719.26 1013.48,774.43 959.21,760.49 	"/>
	<polygon class="st350" points="1065.3,724.34 1073.99,758.05 1022.3,719.26 	"/>
	<polygon class="st149" points="1013.48,774.43 1073.99,758.05 1022.3,719.26 	"/>
	<polygon class="st206" points="1095.85,728.28 1073.99,758.05 1065.3,724.34 	"/>
	<polygon class="st374" points="993.8,803.72 1013.48,774.43 964.87,781.67 	"/>
	<polygon class="st375" points="1073.99,758.05 1085.25,809.86 1013.48,774.43 	"/>
	<polygon class="st376" points="993.8,803.72 1085.25,809.86 1013.48,774.43 	"/>
	<polygon class="st189" points="1078.54,778.99 1152.87,803.72 1085.25,809.86 	"/>
	<polygon class="st235" points="1095.85,728.28 1078.54,778.99 1073.99,758.05 	"/>
	<polygon class="st377" points="1152.87,803.72 1226.89,765.29 1212.09,792.7 	"/>
	<polygon class="st378" points="963.61,591.42 936.78,625.64 927.33,612.21 	"/>
	<polygon class="st379" points="972.27,608.43 963.61,591.42 936.78,625.64 	"/>
	<polygon class="st380" points="1004.98,601.18 972.27,608.43 963.61,591.42 	"/>
	<polygon class="st142" points="1007.34,619.55 1004.98,601.18 972.27,608.43 	"/>
	<polygon class="st192" points="1033.17,588.27 1007.34,619.55 1004.98,601.18 	"/>
	<polygon class="st123" points="1040.52,608.43 1033.17,588.27 1007.34,619.55 	"/>
	<polygon class="st381" points="1071.74,610.95 1040.52,608.43 1033.17,588.27 	"/>
	<polygon class="st123" points="1067.61,623.34 1040.52,608.43 1071.74,610.95 	"/>
	<polygon class="st382" points="1089.37,585.12 1099.62,631.63 1071.74,610.95 	"/>
	<polygon class="st154" points="1094.07,652.1 1071.74,610.95 1067.61,623.34 	"/>
	<polygon class="st383" points="1099.62,631.63 1071.74,610.95 1094.07,652.1 	"/>
	<polygon class="st384" points="1069.39,502.51 1050.72,529.09 1049.13,512.67 	"/>
	<polygon class="st385" points="1082.07,556.77 1069.39,502.51 1050.72,529.09 	"/>
	<polygon class="st370" points="1111.52,525.37 1069.39,502.51 1082.07,556.77 	"/>
	<polygon class="st386" points="1095.85,728.28 1143.89,774.43 1078.54,778.99 	"/>
	<polygon class="st359" points="1152.87,803.72 1143.89,774.43 1078.54,778.99 	"/>
	<polygon class="st230" points="1226.89,765.29 1143.89,774.43 1152.87,803.72 	"/>
	<polygon class="st187" points="822.02,391.71 837.87,421.63 812.04,438.2 	"/>
	<polygon class="st238" points="1246.42,408.72 1154.13,425.98 1212.72,456.28 	"/>
	<polygon class="st192" points="1246.42,449.04 1212.72,456.28 1246.42,408.72 	"/>
	<polygon class="st387" points="1215.24,472.35 1212.72,456.28 1202.01,461.64 	"/>
	<polygon class="st388" points="1244.53,488.41 1212.72,456.28 1246.42,449.04 	"/>
	<polygon class="st389" points="1215.24,472.35 1244.53,488.41 1212.72,456.28 	"/>
	<polygon class="st222" points="1189.56,490.46 1244.53,488.41 1215.24,472.35 	"/>
	<polygon class="st390" points="1111.52,525.37 1124.13,576.26 1082.07,556.77 	"/>
	<polygon class="st209" points="1089.37,585.12 1124.13,576.26 1082.07,556.77 	"/>
	<polygon class="st368" points="1167.67,526.93 1124.13,576.26 1111.52,525.37 	"/>
	<polygon class="st391" points="1189.56,490.46 1244.53,527.16 1244.53,488.41 	"/>
	<polygon class="st154" points="1167.67,526.93 1219.12,510.19 1189.56,490.46 	"/>
	<polygon class="st392" points="1244.53,527.16 1167.67,526.93 1219.12,510.19 	"/>
	<polygon class="st393" points="1246.42,561.18 1167.67,526.93 1244.53,527.16 	"/>
	<polygon class="st222" points="1124.13,576.26 1185.39,590.16 1167.67,526.93 	"/>
	<polygon class="st394" points="1099.62,631.63 1124.13,576.26 1089.37,585.12 	"/>
	<polygon class="st153" points="1185.39,590.16 1246.42,561.18 1167.67,526.93 	"/>
	<polygon class="st395" points="1130.61,681.92 1099.62,631.63 1094.07,652.1 	"/>
	<polygon class="st222" points="1185.39,590.16 1244.53,601.81 1246.42,561.18 	"/>
	<polygon class="st250" points="1237.91,655.36 1185.39,590.16 1244.53,601.81 	"/>
	<polygon class="st396" points="1226.89,735.68 1142,695.24 1226.89,765.29 	"/>
	<polygon class="st248" points="1143.89,774.43 1178.54,725.39 1226.89,765.29 	"/>
	<polygon class="st214" points="1095.85,728.28 1178.54,725.39 1143.89,774.43 	"/>
	<polygon class="st397" points="1116.96,707.54 1178.54,725.39 1095.85,728.28 	"/>
	<polygon class="st242" points="1130.61,681.92 1142,695.24 1123.05,694.52 	"/>
	<polygon class="st242" points="1116.96,707.54 1142,695.24 1123.05,694.52 	"/>
	<polygon class="st398" points="1178.54,725.39 1142,695.24 1116.96,707.54 	"/>
	<polygon class="st248" points="1099.62,631.63 1185.39,590.16 1124.13,576.26 	"/>
	<polygon class="st399" points="1130.61,681.92 1144.05,610.14 1099.62,631.63 	"/>
	<polygon class="st192" points="1234.13,694.52 1142,695.24 1226.89,735.68 	"/>
	<polygon class="st400" points="1144.05,610.14 1185.39,590.16 1130.61,681.92 	"/>
	<polygon class="st401" points="1234.13,694.52 1237.91,655.36 1142,695.24 	"/>
	<polygon class="st402" points="1130.61,681.92 1200.27,670.79 1142,695.24 	"/>
	<polygon class="st208" points="1185.39,590.16 1200.27,670.79 1237.91,655.36 	"/>
	<polygon class="st149" points="1155.62,640.02 1200.27,670.79 1185.39,590.16 	"/>
	<polygon class="st403" points="1130.61,681.92 1155.62,640.02 1200.27,670.79 	"/>
	<polygon class="st404" points="1183.42,404 1154.13,425.98 1246.42,408.72 	"/>
	<polygon class="st387" points="837.87,421.63 887.83,390.48 822.02,391.71 	"/>
	<polygon class="st195" points="887.83,390.48 888.44,411.48 865.27,413.76 837.87,421.63 	"/>
	<polygon class="st405" points="887.83,390.48 926.54,426.99 888.44,411.48 	"/>
	<polygon class="st230" points="951.91,398.33 912.57,413.81 887.83,390.48 	"/>
	<polygon class="st406" points="926.54,426.99 951.91,398.33 912.57,413.81 	"/>
	<polygon class="st131" points="966.71,449.41 951.91,398.33 926.54,426.99 	"/>
	<polygon class="st407" points="1110.34,415.33 1183.42,404 1154.13,425.98 	"/>
	<polygon class="st408" points="1115.73,389.38 1110.34,415.33 1183.42,404 	"/>
	<polygon class="st162" points="1063.57,386.39 1110.34,415.33 1115.73,389.38 	"/>
	<polygon class="st409" points="1063.57,386.39 1066.4,433.85 1110.34,415.33 	"/>
	<polygon class="st410" points="1052.7,461.43 1063.57,386.39 1066.4,433.85 	"/>
	<path class="st5" d="M1004.98,472.98"/>
	<polygon class="st245" points="966.71,449.41 1028.39,390.15 951.91,398.33 	"/>
	<polygon class="st381" points="1004.98,472.98 1006.19,411.48 966.71,449.41 	"/>
	<polygon class="st214" points="1063.57,386.39 1028.39,390.15 1052.7,461.43 	"/>
	<polygon class="st361" points="1006.19,411.48 1052.7,461.43 1028.39,390.15 	"/>
	<polygon class="st236" points="1004.98,472.98 1052.7,461.43 1006.19,411.48 	"/>
</g>
<g id="Capa_10">
	<rect y="1000.23" class="st411" width="1940" height="79.77"/>
	<rect x="822.24" y="917.42" class="st411" width="378.07" height="91.03"/>
	<g>
		<g>
			<path class="st412" d="M977.42,999.64c-4.98,0-9.88,0-14.84,0c0-16.92,0-33.79,0-50.75c0.31-0.02,0.61-0.07,0.9-0.07
				c5.1,0,10.2,0.01,15.3-0.02c0.65,0,0.98,0.24,1.29,0.78c5.36,9.25,10.74,18.49,16.11,27.72c0.16,0.27,0.31,0.53,0.57,0.97
				c0-9.88,0-19.58,0-29.37c4.91,0,9.86,0,14.87,0c0,16.9,0,33.77,0,50.79c-0.34,0-0.67,0-0.99,0c-5.13,0-10.27-0.01-15.4,0.02
				c-0.69,0-1.03-0.23-1.37-0.81c-5.25-9.2-10.53-18.39-15.8-27.58c-0.17-0.29-0.34-0.57-0.66-1.1
				C977.42,980.18,977.42,989.87,977.42,999.64z"/>
			<path class="st412" d="M1108.91,999.66c-0.43,0.02-0.7,0.04-0.97,0.04c-5.38,0-10.76-0.01-16.14,0.02c-0.64,0-0.98-0.2-1.28-0.77
				c-2.96-5.43-5.96-10.83-8.9-16.26c-0.42-0.77-0.89-1.04-1.73-0.99c-1.13,0.07-2.27,0.02-3.52,0.02c0,6.02,0,11.93,0,17.92
				c-5.41,0-10.71,0-16.07,0c0-16.89,0-33.76,0-50.71c0.22-0.03,0.45-0.09,0.68-0.09c9.65,0.01,19.3,0,28.94,0.05
				c2.51,0.01,5,0.32,7.38,1.19c5.42,1.97,8.25,6.05,9.3,11.53c0.52,2.74,0.47,5.47-0.34,8.17c-1.16,3.87-3.58,6.64-7.24,8.33
				c-0.81,0.37-1.64,0.7-2.55,1.08C1100.62,986,1104.72,992.75,1108.91,999.66z M1076.37,971.43c3.33-0.12,6.57-0.15,9.79-0.39
				c1.61-0.12,2.99-0.94,3.88-2.4c2.31-3.81,0.15-8.58-4.25-9c-3.06-0.29-6.17-0.14-9.26-0.18c-0.05,0-0.09,0.08-0.17,0.14
				C1076.37,963.44,1076.37,967.3,1076.37,971.43z"/>
			<path class="st412" d="M956.1,959.97c-8.07,0-16.03,0-24.04,0c0,2.55,0,5,0,7.58c7.51,0,14.98,0,22.5,0c0,3.69,0,7.26,0,10.95
				c-7.5,0-14.99,0-22.62,0c0,0.69,0,1.26,0,1.84c0,2.47,0.03,4.95-0.02,7.42c-0.01,0.78,0.23,0.99,0.99,0.99
				c8.07-0.02,16.14-0.01,24.21-0.01c0.37,0,0.73,0,1.16,0c0,3.65,0,7.22,0,10.88c-14.08,0-28.18,0-42.34,0c0-16.88,0-33.75,0-50.7
				c13.36,0,26.72,0,40.15,0C956.1,952.56,956.1,956.19,956.1,959.97z"/>
			<path class="st412" d="M1056.82,961.29c-3.98,0-7.87,0.03-11.77-0.02c-0.89-0.01-1.13,0.24-1.13,1.13
				c0.03,12,0.02,23.99,0.02,35.99c0,0.4,0,0.79,0,1.25c-5.36,0-10.62,0-16,0c0-12.76,0-25.48,0-38.31c-4.35,0-8.6,0-12.92,0
				c0-4.2,0-8.29,0-12.44c13.93,0,27.83,0,41.79,0C1056.82,952.99,1056.82,957.08,1056.82,961.29z"/>
			<path class="st412" d="M1129.76,962.59c-4.34,6.09-4.55,12.61-2.34,19.33c1.33,4.05,4.48,6.04,8.67,6.49
				c7.47,0.8,10.98-4.68,11.93-9.65c0.61-3.18,0.64-6.39,0.09-9.59c-0.05-0.27,0.15-0.76,0.37-0.87c4.47-2.32,8.95-4.61,13.46-6.92
				c0.11,0.12,0.21,0.19,0.26,0.29c4.55,9.99,2.95,24.78-5.99,32.96c-4.22,3.86-9.25,5.89-14.87,6.48
				c-5.25,0.56-10.44,0.24-15.45-1.62c-2.57-0.95-4.94-2.28-6.99-4.11c-0.48-0.43-0.89-1.04-1.09-1.65
				c-2.33-7.02-1.76-13.91,1.24-20.59C1121.23,968.32,1124.85,964.85,1129.76,962.59z"/>
			<path class="st412" d="M880.23,962.29c-4.21,5.92-4.16,12.33-2.18,18.87c1.04,3.44,3.37,5.9,6.96,6.85
				c4.92,1.3,9.97-1.15,12.08-5.79c0.32-0.7,0.58-1.43,0.9-2.23c4.56,2.19,9.08,4.37,13.68,6.58c-1.42,2.75-3,5.27-5.18,7.37
				c-4.19,4.02-9.23,6.27-14.93,7.01c-5.28,0.69-10.49,0.41-15.5-1.61c-0.54-0.22-1.07-0.48-1.61-0.72
				c-4.35-1.92-6.63-5.31-6.96-9.99c-0.42-5.86,0.32-11.55,3.02-16.85c2.05-4.02,5.06-7.13,9.09-9.19
				C879.81,962.46,880.03,962.38,880.23,962.29z"/>
		</g>
		<path class="st413" d="M1160.75,960.29c-4.21,2.15-8.3,4.24-12.45,6.36c-0.36-0.72-0.65-1.43-1.06-2.07
			c-2.91-4.67-7.09-6.38-12.52-5.2c-4.69,1.02-8.89,3.01-12.33,6.38c-3.78,3.7-5.9,8.31-6.87,13.47c-0.68,3.6-0.8,7.22-0.2,11.12
			c-0.43-0.68-0.75-1.15-1.04-1.64c-0.33-0.56-0.64-1.13-0.93-1.7c-0.28-0.55-0.54-1.11-0.78-1.68c-1.84-4.18-2.56-8.58-2.15-13.1
			c0.62-6.96,2.76-13.34,7.94-18.36c3.32-3.21,7.35-5.07,11.84-5.89c6.68-1.23,13.21-0.64,19.51,1.96c2.9,1.19,5.27,3.2,7.36,5.5
			c1.14,1.25,2.11,2.65,3.15,3.98C1160.4,959.66,1160.54,959.94,1160.75,960.29z"/>
		<path class="st413" d="M898.67,966.8c-0.9-1.49-1.66-3.02-2.67-4.35c-1.91-2.49-4.43-3.95-7.66-3.99
			c-5.04-0.06-9.39,1.8-13.28,4.82c-5.16,4-7.73,9.53-8.93,15.8c-0.64,3.34-0.67,6.7-0.46,10.23c-1.62-2.45-2.67-5-3.38-7.68
			c-1.76-6.65-0.83-13.06,1.76-19.32c1.22-2.97,2.92-5.64,5.18-7.9c3.58-3.58,7.96-5.59,12.96-6.31c5.56-0.8,10.93-0.14,16.15,1.86
			c2.13,0.82,4,2.1,5.63,3.64c2.09,1.98,3.99,4.17,5.96,6.28c0.43,0.46,0.51,0.88-0.18,1.23c-3.62,1.86-7.23,3.74-10.84,5.61
			C898.8,966.77,898.68,966.8,898.67,966.8z"/>
		<g>
			<path class="st414" d="M901.99,1012.94c0-2.88,0-5.77,0-8.71c1.1,0,2.13,0,3.23,0c0,4.78,0,9.53,0,14.41
				c-1.07,0-2.11,0.04-3.14-0.03c-0.24-0.02-0.53-0.38-0.69-0.64c-1.42-2.39-2.82-4.79-4.23-7.19c-0.17-0.29-0.34-0.57-0.68-0.81
				c0,2.84,0,5.68,0,8.6c-1.1,0-2.19,0-3.32,0c0-4.8,0-9.54,0-14.39c1.09,0,2.14-0.04,3.17,0.03c0.24,0.02,0.52,0.38,0.68,0.64
				c1.41,2.39,2.8,4.8,4.2,7.21c0.18,0.31,0.38,0.62,0.57,0.93C901.86,1012.98,901.93,1012.96,901.99,1012.94z"/>
			<path class="st414" d="M1120.83,1018.56c0-4.77,0-9.52,0-14.53c2.75,0.17,5.49,0.11,8.13,0.55c2.78,0.45,4.48,2.57,4.68,5.38
				c0.1,1.36,0,2.79-0.3,4.13c-0.62,2.68-2.53,4.19-5.19,4.46c-2.3,0.24-4.63,0.1-6.95,0.12
				C1121.1,1018.67,1120.98,1018.6,1120.83,1018.56z M1124.39,1015.93c1.08-0.08,2-0.1,2.91-0.24c1.47-0.22,2.43-1.13,2.69-2.57
				c0.17-0.98,0.2-2.03,0.07-3.02c-0.24-1.77-1.32-2.74-3.07-2.94c-0.67-0.08-1.36-0.07-2.04-0.01c-0.2,0.02-0.53,0.34-0.54,0.52
				C1124.38,1010.36,1124.39,1013.04,1124.39,1015.93z"/>
			<path class="st414" d="M983.88,1018.78c0-4.98,0-9.72,0-14.61c2.89,0.16,5.8-0.4,8.64,0.5c2.68,0.85,3.95,2.86,4.19,5.54
				c0.1,1.09,0.03,2.24-0.18,3.31c-0.5,2.65-2.08,4.51-4.78,4.89C989.19,1018.76,986.55,1018.67,983.88,1018.78z M987.42,1015.93
				c1.09-0.09,2.02-0.09,2.92-0.25c1.54-0.26,2.5-1.2,2.72-2.75c0.13-0.96,0.15-1.98,0-2.93c-0.1-0.66-0.49-1.33-0.92-1.86
				c-0.73-0.89-3.68-1.63-4.37-0.91c-0.47,0.5-0.26,1.64-0.35,2.5c-0.01,0.12,0,0.25,0,0.37
				C987.42,1011.97,987.42,1013.85,987.42,1015.93z"/>
			<path class="st414" d="M1025.79,1018.66c0-4.91,0-9.63,0-14.47c1.42,0,2.8-0.02,4.18,0c1.51,0.03,3.04-0.05,4.53,0.17
				c2.14,0.32,3.39,1.75,3.62,3.77c0.26,2.25-0.5,3.59-2.59,4.58c-0.08,0.04-0.15,0.1-0.33,0.23c1.06,1.85,2.12,3.7,3.26,5.71
				c-1.32,0-2.48,0.03-3.63-0.03c-0.21-0.01-0.46-0.35-0.6-0.6c-0.77-1.34-1.51-2.69-2.28-4.03c-0.28-0.49-2.1-0.85-2.49-0.46
				c-0.16,0.16-0.18,0.51-0.18,0.77c-0.02,1.2-0.03,2.41,0,3.62c0.01,0.57-0.2,0.77-0.76,0.75
				C1027.64,1018.64,1026.75,1018.66,1025.79,1018.66z M1029.26,1008.8c0,0.49-0.04,0.99,0.02,1.47c0.03,0.21,0.26,0.55,0.41,0.56
				c1.14,0.02,2.28,0.07,3.4-0.08c1.04-0.14,1.6-1.03,1.54-2.09c-0.06-1.11-0.65-1.76-1.77-1.88c-0.52-0.05-1.04-0.03-1.57-0.03
				C1029.25,1006.75,1029.25,1006.75,1029.26,1008.8z"/>
			<path class="st414" d="M954.27,1004.06c2.55,0.13,5.19,0.02,7.75,0.46c3.78,0.64,5.15,3.73,4.96,7.35
				c-0.06,1.06-0.3,2.15-0.7,3.14c-0.89,2.22-2.72,3.36-5.02,3.55c-2.15,0.18-4.32,0.11-6.48,0.09c-0.24,0-0.67-0.38-0.67-0.59
				c-0.03-4.51-0.02-9.02-0.01-13.54C954.09,1004.45,954.15,1004.36,954.27,1004.06z M957.61,1011.46c0,0.8,0,1.6,0,2.4
				c0,2.24,0.06,2.27,2.34,1.96c1.55-0.21,2.85-0.82,3.21-2.46c0.23-1.06,0.3-2.21,0.16-3.29c-0.24-1.81-1.45-2.8-3.28-2.93
				c-0.58-0.04-1.17,0.01-1.76-0.02c-0.54-0.02-0.69,0.23-0.68,0.73C957.62,1009.05,957.61,1010.25,957.61,1011.46z"/>
			<path class="st414" d="M1135.41,1011.32c-0.02-3.83,2.16-6.77,5.5-7.45c4.65-0.95,8.68,2.13,8.9,6.88
				c0.05,1.12-0.07,2.3-0.41,3.37c-1.12,3.56-4.29,5.38-8.15,4.83c-3.23-0.46-5.64-3.23-5.84-6.7
				C1135.4,1011.94,1135.41,1011.63,1135.41,1011.32z M1142.62,1006.67c-1.54,0.01-2.56,0.71-3.19,1.98
				c-0.72,1.45-0.73,2.99-0.34,4.52c0.46,1.8,1.83,2.9,3.5,2.9c1.67-0.01,3.04-1.11,3.52-2.89c0.4-1.48,0.3-2.94-0.31-4.35
				C1145.18,1007.41,1144.07,1006.7,1142.62,1006.67z"/>
			<path class="st414" d="M883.44,1019.03c-4.31,0.01-7.24-3.08-7.24-7.65c-0.01-4.51,2.93-7.64,7.16-7.63
				c4.39,0.01,7.3,3.06,7.34,7.7C890.73,1015.81,887.67,1019.02,883.44,1019.03z M887.33,1011.48c-0.27-1.01-0.43-1.99-0.81-2.88
				c-0.53-1.23-1.58-1.85-2.94-1.92c-1.4-0.07-2.5,0.49-3.15,1.71c-1.03,1.92-1.04,3.92-0.03,5.86c0.62,1.18,1.64,1.82,3.01,1.82
				c1.4,0,2.48-0.63,3.09-1.85C886.9,1013.38,887.05,1012.42,887.33,1011.48z"/>
			<path class="st414" d="M864.65,1009.38c1.91,0,3.63,0,5.47,0c0-1.73,0-3.4,0-5.14c1.25,0,2.37,0,3.54,0c0,4.79,0,9.53,0,14.34
				c-1.15,0-2.27,0-3.51,0c0-2.02,0-4.01,0-6.06c-1.86,0-3.6,0-5.48,0c0,1.61,0.01,3.17,0,4.74c-0.01,1.53,0.2,1.39-1.38,1.4
				c-0.67,0.01-1.34,0-2.08,0c0-4.85,0-9.59,0-14.4c1.11,0,2.2,0,3.44,0C864.65,1005.91,864.65,1007.59,864.65,1009.38z"/>
			<path class="st414" d="M920.52,1016.04c0.89-0.56,1.73-1.08,2.62-1.65c0.98,1.04,2.19,1.7,3.57,1.75
				c0.91,0.03,1.87-0.22,2.73-0.56c0.35-0.14,0.67-0.86,0.63-1.28c-0.03-0.37-0.53-0.89-0.92-1c-1.06-0.3-2.17-0.42-3.27-0.62
				c-0.54-0.1-1.09-0.21-1.62-0.37c-1.79-0.54-2.85-1.68-2.97-3.16c-0.18-2.18,0.62-3.7,2.39-4.6c3.04-1.55,7.33-0.69,9.69,1.98
				c-0.25,0.19-0.51,0.35-0.73,0.56c-1.02,0.95-1.93,1.43-3.23,0.21c-0.84-0.79-2.12-0.96-3.33-0.58c-0.73,0.23-1.32,0.69-1.28,1.5
				c0.03,0.86,0.74,1.15,1.48,1.29c1.36,0.25,2.74,0.44,4.1,0.72c1.51,0.31,2.72,1.04,3.12,2.66c0.43,1.75-0.03,3.26-1.32,4.48
				C929.33,1020.05,922.86,1019.35,920.52,1016.04z"/>
			<path class="st414" d="M1164.14,1006.46c-0.95,0.68-1.77,1.27-2.36,1.69c-1.3-0.57-2.37-1.17-3.53-1.5
				c-0.58-0.17-1.39,0-1.94,0.3c-0.42,0.23-0.83,0.91-0.81,1.37c0.02,0.38,0.63,0.93,1.08,1.05c1.21,0.33,2.48,0.5,3.72,0.69
				c2.94,0.46,3.92,1.92,3.98,3.83c0.07,2.3-1.46,4.17-4,4.77c-2.54,0.6-5.04,0.5-7.34-0.91c-0.66-0.41-1.22-1-1.94-1.61
				c1.01-0.64,1.85-1.18,2.76-1.75c0.98,1.04,2.19,1.71,3.58,1.75c0.91,0.03,1.87-0.23,2.72-0.56c0.34-0.14,0.66-0.86,0.62-1.28
				c-0.04-0.37-0.53-0.88-0.92-1c-1.06-0.3-2.18-0.41-3.26-0.62c-0.52-0.1-1.03-0.2-1.53-0.35c-1.59-0.46-2.82-1.32-3.03-3.1
				c-0.26-2.21,0.54-3.83,2.39-4.68c2.73-1.26,5.41-0.98,7.96,0.54C1162.9,1005.45,1163.44,1005.93,1164.14,1006.46z"/>
			<path class="st414" d="M1065.56,1006.47c-0.22,0.17-0.41,0.31-0.6,0.47c-1.08,0.93-2.06,1.65-3.47,0.31
				c-0.76-0.73-1.96-0.87-3.08-0.59c-0.81,0.21-1.49,0.65-1.47,1.55c0.02,0.91,0.79,1.18,1.55,1.32c1.31,0.24,2.62,0.41,3.92,0.67
				c1.65,0.34,2.98,1.14,3.29,2.95c0.32,1.9-0.29,3.51-1.89,4.62c-1.89,1.31-4.05,1.38-6.24,1.1c-1.98-0.25-3.65-1.08-4.96-2.8
				c0.88-0.55,1.73-1.09,2.64-1.67c0.98,1.03,2.18,1.69,3.57,1.75c0.88,0.04,1.83-0.17,2.65-0.5c0.38-0.15,0.76-0.89,0.72-1.32
				c-0.03-0.38-0.58-0.92-1-1.04c-1.06-0.3-2.18-0.4-3.27-0.61c-0.51-0.09-1.03-0.21-1.53-0.36c-1.59-0.48-2.79-1.38-2.98-3.15
				c-0.22-1.95,0.41-3.61,2.23-4.51c2.94-1.46,5.8-1.08,8.52,0.68c0.28,0.18,0.54,0.41,0.81,0.62
				C1065.17,1006.11,1065.35,1006.28,1065.56,1006.47z"/>
			<path class="st414" d="M1068.02,1004.22c1.13,0,2.24,0,3.5,0c0,0.33,0,0.65,0,0.98c0,2.78-0.01,5.56,0.01,8.35
				c0.02,1.74,0.81,2.5,2.58,2.52c1.74,0.03,2.61-0.74,2.64-2.48c0.05-2.84,0.02-5.69,0.02-8.53c0-0.24,0.02-0.49,0.04-0.8
				c1.12,0,2.21,0,3.31,0c0.03,0.04,0.1,0.09,0.1,0.14c0.01,3.21,0.12,6.43-0.03,9.64c-0.14,2.83-2.43,4.76-5.56,4.91
				c-0.94,0.04-1.92-0.08-2.83-0.32c-2.25-0.61-3.69-2.07-3.76-4.47C1067.95,1010.87,1068.02,1007.6,1068.02,1004.22z"/>
			<path class="st414" d="M1050.63,1009.69c0,0.94,0,1.71,0,2.62c-1.41,0-2.78,0-4.16,0c-2.56,0-2.56,0-2.53,2.6
				c0,0.3,0.04,0.6,0.06,0.98c2.6,0,5.13,0,7.73,0c0,0.92,0,1.77,0,2.7c-3.74,0-7.46,0-11.25,0c0-4.75,0-9.5,0-14.33
				c3.49,0,6.99,0,10.57,0c0,0.83,0,1.68,0,2.63c-1.87,0-3.72-0.01-5.56,0c-1.72,0.02-1.54-0.29-1.56,1.6c0,0.09,0.01,0.19,0,0.28
				c-0.11,0.77,0.27,0.94,0.97,0.93C1046.78,1009.67,1048.67,1009.69,1050.63,1009.69z"/>
			<path class="st414" d="M911.92,1006.89c-0.1,0.17-0.12,0.19-0.13,0.22c-0.26,2.58-0.26,2.58,2.29,2.58c1.41,0,2.83,0,4.3,0
				c0,0.9,0,1.69,0,2.62c-1.54,0-3.07,0-4.61,0c-2.03,0-2.03,0-2.03,2.05c0,0.46,0,0.92,0,1.53c1.35,0,2.63,0,3.92,0
				c1.26,0,2.52,0,3.84,0c0,0.94,0,1.78,0,2.68c-0.27,0.03-0.51,0.08-0.75,0.08c-3.21,0-6.43-0.01-9.64,0.01
				c-0.59,0-0.9-0.11-0.9-0.81c0.02-4.36,0.01-8.71,0.02-13.07c0-0.15,0.04-0.3,0.07-0.53c3.51,0,7.01,0,10.52,0
				c0.03,0.05,0.08,0.1,0.09,0.16c0.24,2.48,0.24,2.48-2.2,2.48C915.11,1006.89,913.51,1006.89,911.92,1006.89z"/>
			<path class="st414" d="M973.08,1004.21c1.32,0,2.52,0,3.78,0c1.76,4.76,3.51,9.52,5.32,14.43c-1.24,0-2.34,0.02-3.44-0.02
				c-0.17-0.01-0.39-0.27-0.47-0.46c-0.17-0.39-0.21-0.85-0.42-1.22c-0.15-0.26-0.49-0.56-0.76-0.57c-1.42-0.06-2.84,0.01-4.26-0.04
				c-0.66-0.02-0.74,0.41-0.88,0.85c-0.47,1.47-0.47,1.47-1.98,1.47c-0.7,0-1.41,0-2.26,0C969.54,1013.76,971.3,1009,973.08,1004.21
				z M975.03,1007.82c-0.09,0.01-0.17,0.02-0.26,0.03c-0.56,1.96-1.13,3.91-1.7,5.92c1.34,0,2.5,0,3.79,0
				C976.23,1011.72,975.63,1009.77,975.03,1007.82z"/>
			<path class="st414" d="M1104.69,1018.66c0.83-2.23,1.58-4.24,2.33-6.26c0.91-2.46,1.86-4.9,2.72-7.38
				c0.24-0.69,0.57-0.89,1.26-0.85c0.92,0.06,1.85,0.02,2.83,0.02c1.76,4.79,3.52,9.55,5.33,14.47c-1.24,0-2.31,0.04-3.38-0.03
				c-0.22-0.01-0.5-0.39-0.59-0.66c-0.57-1.6-0.55-1.6-2.27-1.6c-0.96,0-1.92,0.04-2.87-0.01c-0.63-0.03-0.92,0.16-1.11,0.8
				c-0.44,1.53-0.48,1.52-2.12,1.52C1106.16,1018.66,1105.52,1018.66,1104.69,1018.66z M1110.03,1013.78c1.35,0,2.52,0,3.81,0
				c-0.63-2.05-1.24-4.01-1.85-5.97c-0.08,0.01-0.16,0.02-0.24,0.03C1111.19,1009.78,1110.63,1011.72,1110.03,1013.78z"/>
			<path class="st414" d="M1003.68,1004.18c1.32,0,2.43-0.05,3.54,0.03c0.32,0.02,0.71,0.31,0.9,0.6c0.93,1.37,1.8,2.78,2.79,4.33
				c0.94-1.48,1.82-2.8,2.62-4.17c0.36-0.62,0.78-0.85,1.48-0.8c0.95,0.06,1.91,0.02,3.02,0.02c-0.22,0.34-0.36,0.6-0.53,0.83
				c-1.46,2.03-2.95,4.04-4.36,6.11c-0.32,0.47-0.51,1.12-0.53,1.69c-0.07,1.66-0.05,3.33-0.02,5c0.01,0.63-0.18,0.89-0.84,0.86
				c-0.83-0.04-1.66-0.01-2.64-0.01c0-1.15-0.11-2.24,0.02-3.29c0.31-2.45-0.43-4.48-2.01-6.35
				C1005.89,1007.57,1004.9,1005.92,1003.68,1004.18z"/>
			<path class="st414" d="M945.81,1004.24c0,0.91,0,1.73,0,2.68c-0.81,0-1.57,0-2.33,0c-1.64,0.01-1.46-0.15-1.46,1.42
				c-0.01,3.06,0,6.12,0,9.18c0,0.33,0,0.67,0,1.13c-1.07,0-2.05,0.01-3.02,0c-0.65-0.01-0.5-0.51-0.5-0.88
				c-0.01-3.18,0-6.37-0.01-9.55c0-1.29,0-1.29-1.32-1.29c-0.8,0-1.59,0-2.45,0c0-0.93,0-1.77,0-2.68
				C938.4,1004.24,942.06,1004.24,945.81,1004.24z"/>
			<path class="st414" d="M1104.31,1006.92c-0.92,0-1.81,0.05-2.69-0.01c-0.84-0.06-1.13,0.2-1.11,1.07
				c0.05,3.21-0.01,6.42,0.03,9.64c0.01,0.79-0.18,1.13-1.02,1.05c-0.79-0.07-1.59-0.01-2.47-0.01c-0.02-0.43-0.05-0.76-0.05-1.09
				c0-3.21-0.03-6.42,0.02-9.64c0.01-0.84-0.26-1.08-1.06-1.02c-0.89,0.06-1.78,0.01-2.75,0.01c0-0.9,0-1.75,0-2.67
				c3.68,0,7.36,0,11.1,0C1104.31,1005.12,1104.31,1005.96,1104.31,1006.92z"/>
			<path class="st414" d="M1092.44,1018.65c-2.93,0-5.77,0.01-8.61-0.02c-0.19,0-0.55-0.33-0.55-0.51c-0.03-4.6-0.02-9.2-0.02-13.87
				c1.17,0,2.27,0,3.46,0c0,3.75,0,7.51,0,11.4c1.95,0,3.81,0,5.73,0C1092.44,1016.69,1092.44,1017.6,1092.44,1018.65z"/>
			<path class="st414" d="M951.05,1018.66c-0.92,0-1.75-0.04-2.58,0.01c-0.69,0.04-0.91-0.2-0.9-0.89c0.03-3.21,0.01-6.42,0.01-9.63
				c0-1.29,0-2.57,0-3.91c1.22,0,2.32,0,3.46,0C951.05,1009.02,951.05,1013.76,951.05,1018.66z"/>
		</g>
		<g>
			<path class="st412" d="M987.92,1035.49c-0.15,0.78-0.26,1.77-0.55,2.7c-0.88,2.77-3.02,4.26-5.77,4.12
				c-2.58-0.13-4.5-1.88-5.08-4.71c-0.34-1.66-0.28-3.32,0.22-4.94c0.85-2.75,2.93-4.23,5.77-4.09c2.73,0.13,4.63,1.85,5.15,4.69
				C987.78,1033.92,987.82,1034.6,987.92,1035.49z M980.1,1035.72c0.13,0.81,0.21,1.8,0.45,2.74c0.18,0.71,0.79,1.25,1.51,1.1
				c0.55-0.12,1.03-0.64,1.47-1.06c0.19-0.19,0.27-0.57,0.28-0.86c0.02-1.62,0.07-3.26-0.05-4.87c-0.08-1.02-0.82-1.63-1.6-1.64
				c-0.76-0.01-1.48,0.6-1.68,1.59C980.28,1033.63,980.23,1034.59,980.1,1035.72z"/>
			<path class="st412" d="M1044.86,1035.34c-0.21,1.02-0.33,2.08-0.66,3.06c-0.89,2.63-3.08,4.06-5.75,3.9
				c-2.55-0.16-4.59-1.92-5-4.66c-0.22-1.49-0.19-3.1,0.11-4.57c0.62-3.05,2.87-4.66,5.88-4.5c2.8,0.15,4.72,1.99,5.17,5
				c0.09,0.58,0.1,1.17,0.16,1.75C1044.8,1035.33,1044.83,1035.34,1044.86,1035.34z M1040.98,1035.22c-0.15-1.1-0.23-1.9-0.39-2.68
				c-0.16-0.8-0.65-1.37-1.5-1.41c-0.89-0.04-1.46,0.53-1.66,1.34c-0.48,1.87-0.55,3.78-0.12,5.68c0.19,0.82,0.7,1.41,1.59,1.44
				c0.91,0.03,1.45-0.58,1.62-1.38C1040.77,1037.14,1040.87,1036.03,1040.98,1035.22z"/>
			<path class="st412" d="M1045.82,1041.92c-0.03-0.17-0.04-0.27-0.06-0.36c-0.23-1.41,0.21-2.35,1.52-3.15
				c1.65-1,3.15-2.29,4.6-3.57c0.5-0.44,0.81-1.23,0.94-1.91c0.16-0.85-0.41-1.43-1.23-1.54c-0.99-0.14-1.74,0.28-1.92,1.16
				c-0.11,0.51-0.08,1.04-0.12,1.68c-1.18-0.14-2.38-0.28-3.58-0.43c-0.4-2.33,0.84-4.4,3.14-4.85c1.43-0.27,2.98-0.33,4.4-0.07
				c3.08,0.55,4.36,3.89,2.54,6.45c-0.54,0.76-1.31,1.39-2.06,1.97c-0.72,0.56-1.54,1-2.56,1.64c1.04,0,1.84,0,2.64,0
				c0.83,0,1.66,0,2.55,0c0,1.04,0,1.98,0,2.98C1053.02,1041.92,1049.45,1041.92,1045.82,1041.92z"/>
			<path class="st412" d="M970,1038.97c1.61,0,3.23,0,4.89,0c0,1.01,0,1.93,0,2.92c-3.59,0-7.15,0-10.72,0
				c-0.48-1.68-0.24-2.26,1.17-3.27c1.55-1.12,3.09-2.27,4.56-3.49c0.5-0.41,0.9-1.03,1.16-1.63c0.39-0.93-0.08-1.85-0.93-2.09
				c-1.08-0.3-1.97,0.18-2.19,1.25c-0.1,0.47-0.07,0.97-0.11,1.55c-1.18-0.14-2.36-0.29-3.53-0.43c-0.43-2.09,0.66-4.06,2.65-4.73
				c1.74-0.59,3.54-0.63,5.3-0.12c2.7,0.78,3.8,3.91,2.17,6.28c-0.56,0.82-1.39,1.48-2.17,2.11c-0.69,0.55-1.5,0.96-2.25,1.44
				C969.98,1038.84,969.99,1038.91,970,1038.97z"/>
			<path class="st412" d="M1020.93,1041.9c0-0.72-0.06-1.43,0.03-2.12c0.03-0.26,0.37-0.51,0.62-0.71c1.77-1.35,3.58-2.63,5.3-4.04
				c0.53-0.43,0.93-1.17,1.12-1.84c0.27-0.97-0.31-1.69-1.22-1.81c-1.06-0.15-1.83,0.35-1.97,1.34c-0.07,0.45-0.01,0.91-0.01,1.51
				c-1.27-0.15-2.44-0.29-3.59-0.43c-0.45-2.26,0.68-4.3,2.92-4.78c1.47-0.32,3.09-0.4,4.57-0.14c3.12,0.54,4.45,3.99,2.47,6.49
				c-0.95,1.2-2.39,2-3.61,2.97c-0.23,0.18-0.49,0.32-0.93,0.6c1.04,0,1.86,0,2.67,0c0.83,0,1.65,0,2.51,0c0,1.05,0,1.97,0,2.97
				C1028.21,1041.9,1024.62,1041.9,1020.93,1041.9z"/>
			<path class="st412" d="M994.88,1038.96c1.62,0,3.23,0,4.9,0c0,1.02,0,1.96,0,2.96c-3.6,0-7.17,0-10.85,0
				c0-0.72-0.07-1.4,0.03-2.05c0.04-0.3,0.38-0.6,0.65-0.8c1.65-1.25,3.34-2.44,4.97-3.73c0.52-0.41,1.05-0.97,1.25-1.56
				c0.19-0.56,0.15-1.44-0.18-1.86c-0.3-0.38-1.14-0.49-1.73-0.45c-0.74,0.05-1.05,0.71-1.13,1.39c-0.05,0.42-0.01,0.85-0.01,1.38
				c-1.23-0.15-2.42-0.29-3.59-0.43c-0.44-1.85,0.52-3.85,2.29-4.58c1.99-0.81,4.06-0.86,6.07-0.12c2.47,0.9,3.35,4.09,1.63,6.26
				c-0.88,1.1-2.17,1.88-3.3,2.78c-0.32,0.26-0.7,0.43-1.05,0.65C994.83,1038.84,994.85,1038.9,994.88,1038.96z"/>
			<path class="st412" d="M1058.14,1039.24c-0.37-1.72,0-3.01,1.06-4.25c1.53-1.77,2.86-3.72,4.33-5.55
				c0.26-0.32,0.78-0.55,1.21-0.59c0.98-0.09,1.97-0.03,3.08-0.03c0,2.6,0,5.14,0,7.77c0.59,0.04,1.07,0.07,1.63,0.11
				c0,0.79,0,1.57,0,2.45c-0.46,0.04-0.97,0.07-1.58,0.12c0,0.88,0,1.73,0,2.63c-1.26,0-2.42,0-3.68,0c0-0.86,0-1.71,0-2.67
				C1062.11,1039.24,1060.13,1039.24,1058.14,1039.24z M1064.12,1036.62c0-1.38,0-2.66,0-4.09c-1.03,1.41-1.96,2.69-2.97,4.09
				C1062.24,1036.62,1063.12,1036.62,1064.12,1036.62z"/>
			<path class="st412" d="M1002.97,1033.51c0-1.06,0-1.94,0-2.77c0.77-0.2,1.47-0.37,2.18-0.56c0.14-0.04,0.31-0.14,0.38-0.26
				c0.97-1.78,2.6-0.9,4.06-1.1c0,4.4,0,8.7,0,13.08c-1.24,0-2.46,0-3.8,0c0-2.83,0-5.68,0-8.54
				C1004.78,1033.41,1003.91,1033.46,1002.97,1033.51z"/>
			<path class="st412" d="M1019.71,1037.52c-1.84,0-3.63,0.01-5.42-0.02c-0.17,0-0.47-0.31-0.48-0.48
				c-0.05-0.86-0.02-1.72-0.02-2.65c2,0,3.92,0,5.92,0C1019.71,1035.37,1019.71,1036.37,1019.71,1037.52z"/>
		</g>
	</g>
	<g>
		<g>
			<path class="st415" d="M1826.86,896.41c0.88-5.99,2.97-11.76,6.19-16.9c0.38-0.61,0.78-1.22,1.2-1.81
				c0.22-0.31,0.77-1.19,1.17-1.33c0.47-0.17,1.48,0.18,1.81,0.47c1.11,1,1.77,2.95,2.28,4.32c0.99,2.66,1.47,5.47,1.87,8.27
				c1.91,13.18,2.24,26.58,1.22,39.85c-0.98,12.84-2.95,25.94-6.87,38.23c-0.51,1.59-1.06,3.17-1.66,4.73
				c-0.29,0.75-1.21,4.28-2.35,3.97c-0.56-0.15-1.08-1.23-1.38-1.69c-0.36-0.55-0.7-1.11-1.01-1.69c-0.75-1.35-1.37-2.78-1.87-4.24
				c-1.81-5.24-2.11-10.93-1.26-16.39c2.03-12.98,10.54-23.71,19.72-32.59c-0.21-0.04-0.43-0.08-0.64-0.13
				c-0.73,1.14,0.64,2.27,1.77,2.16c1.67-0.17,2.13-2.11,2.06-3.5c-0.02-0.36-0.73-0.24-0.73,0.06c-0.02,1.31-1.01,3.59,0.62,4.41
				c1.04,0.52,2.01-0.29,2.44-1.2c0.41-0.85,0.49-1.83,0.64-2.75c0.22-1.27,0.43-2.54,0.65-3.82c0.43-2.54,0.86-5.09,1.3-7.63
				c-0.24,0.02-0.49,0.04-0.73,0.06c-0.67,4.88-0.6,9.8,0.21,14.66c0.04,0.25,0.47,0.14,0.6,0.05c1.78-1.23,2.68-3.25,2.38-5.39
				c-0.04-0.32-0.68-0.11-0.73,0.13c-0.34,1.88,0.18,3.69,1.47,5.1c0.14,0.15,0.43,0.11,0.57,0c1.82-1.46,2.73-3.59,2.51-5.92
				c-0.03-0.28-0.56-0.13-0.66,0c-1.02,1.23-1.3,2.92-0.65,4.4c0.43,0.98,1.72,2.44,2.89,1.55c0.53-0.41,0.62-1.16,0.74-1.77
				c0.26-1.32,0.48-2.65,0.67-3.98c0.4-2.74,0.65-5.5,0.78-8.27c0.02-0.36-0.7-0.24-0.73,0.06c-0.23,2.45-0.47,4.9-0.7,7.35
				c-0.13,1.35-0.89,3.83,0.34,4.9c0.77,0.67,1.97,0.5,2.79,0.01c1.31-0.79,1.58-2.43,1.77-3.83c-0.24,0.02-0.49,0.04-0.73,0.06
				c-0.15,1.22-2.72,4.37-0.41,5.19c2.29,0.81,2.6-2.84,3.51-3.88c-0.22-0.02-0.44-0.04-0.67-0.06c-0.7,2.44-1.46,6.26,1.47,7.64
				c1.63,0.77,3.95-0.2,4.05-2.12c0.01-0.1-0.06-0.17-0.15-0.2c-3.69-1-7.48-0.76-11.21-0.09c-4.2,0.76-8.36,1.82-12.53,2.76
				c-4.35,0.99-8.7,1.98-13.05,2.96c-2.18,0.49-4.35,0.99-6.53,1.48c-0.71,0.16-2.51,0.74-2.98-0.14c-0.53-1,1.37-1.85,2.15-2.11
				c1.94-0.63,4.09-0.74,6.1-0.95c2.19-0.23,4.38-0.39,6.58-0.48c4.53-0.2,9.07-0.16,13.61,0c8.8,0.32,17.59,1,26.36,1.75
				c9.96,0.85,19.9,1.86,29.85,2.87c0.17,0.02,0.75-0.26,0.41-0.45c-1.67-0.93-3.42-1.62-5.28-2.06c-0.29-0.07-0.86,0.36-0.42,0.46
				c1.81,0.43,3.52,1.09,5.14,2c0.14-0.15,0.27-0.3,0.41-0.45c-10.19-1.03-20.38-2.07-30.59-2.93c-10.23-0.86-20.5-1.69-30.76-1.81
				c-4.92-0.06-9.85,0.07-14.74,0.56c-2.13,0.21-4.38,0.36-6.45,0.94c-1,0.28-3.09,1.05-3.29,2.3c-0.45,2.81,8.09,0.05,8.87-0.13
				c4.99-1.13,9.99-2.27,14.98-3.4c5.43-1.23,10.97-2.92,16.55-3.23c1.49-0.09,2.99-0.05,4.46,0.19c0.64,0.1,2.08,0.07,1.6,1.02
				c-0.41,0.81-1.49,1.2-2.34,0.95c-3.11-0.91-2.17-5.21-1.54-7.4c0.1-0.33-0.56-0.19-0.67-0.06c-0.38,0.43-0.59,0.87-0.78,1.41
				c-0.16,0.44-0.24,0.92-0.46,1.33c-0.35,0.65-1.41,1.17-1.78,0.26c-0.56-1.4,1.08-2.82,1.25-4.18c0.04-0.35-0.69-0.24-0.73,0.06
				c-0.19,1.43-0.47,3.4-2.2,3.58c-2.06,0.21-1.45-2.53-1.33-3.81c0.27-2.78,0.53-5.55,0.8-8.33c-0.24,0.02-0.49,0.04-0.73,0.06
				c-0.16,3.4-0.51,6.79-1.07,10.15c-0.13,0.78-0.25,1.56-0.42,2.34c-0.05,0.27-0.11,0.53-0.2,0.79c-0.42-0.02-0.83-0.05-1.25-0.07
				c-0.24-0.12-0.6-0.82-0.68-1c-0.6-1.33-0.4-2.9,0.52-4.02c-0.22,0-0.44,0-0.66,0c0.21,2.1-0.61,4.1-2.25,5.43
				c0.19,0,0.38,0,0.57,0c-1.24-1.35-1.73-3.05-1.4-4.85c-0.24,0.04-0.49,0.09-0.73,0.13c0.28,1.93-0.51,3.78-2.12,4.9
				c0.2,0.02,0.4,0.04,0.6,0.05c-0.8-4.82-0.87-9.69-0.21-14.53c0.05-0.35-0.68-0.24-0.73,0.06c-0.55,3.26-1.11,6.52-1.66,9.78
				c-0.14,0.8-0.27,1.59-0.41,2.39c-0.1,0.56-0.14,1.62-0.55,2.05c-0.11,0.3-0.37,0.39-0.79,0.27c-0.54,0.33-0.87,0.22-0.98-0.35
				c-0.13-0.34-0.13-0.71-0.1-1.06c0.06-0.75,0.29-1.45,0.3-2.21c-0.24,0.02-0.49,0.04-0.73,0.06c0.04,0.73,0.01,1.53-0.37,2.18
				c-0.71,1.24-2.84,0.41-2.04-0.84c0.22-0.34-0.5-0.27-0.64-0.13c-8.77,8.49-16.95,18.64-19.5,30.88
				c-1.21,5.83-1.14,12.03,0.66,17.74c0.85,2.7,2.1,5.52,3.86,7.77c0.5,0.63,1.22,1.29,2.08,0.95c1.03-0.41,1.36-2.03,1.73-2.94
				c2.61-6.38,4.35-13.08,5.72-19.83c1.45-7.15,2.52-14.38,3.2-21.65c1.34-14.41,1.1-28.99-0.99-43.31
				c-0.52-3.55-1.19-7.15-2.86-10.36c-0.52-1.01-1.27-2.68-2.5-3c-0.99-0.26-1.9,0.41-2.51,1.12c-2.25,2.62-3.9,6.04-5.21,9.21
				c-1.39,3.37-2.34,6.89-2.87,10.49C1826.08,896.82,1826.82,896.72,1826.86,896.41L1826.86,896.41z"/>
		</g>
	</g>
	<g>
		<g>
			<path class="st415" d="M1869.19,926.81c9.85-0.11,19.71-0.22,29.56-0.33c0.41,0,0.56-0.52,0.07-0.51
				c-9.85,0.11-19.71,0.22-29.56,0.33C1868.85,926.3,1868.69,926.82,1869.19,926.81L1869.19,926.81z"/>
		</g>
	</g>
	<g>
		<g>
			<path class="st415" d="M1880.84,927.82c0.16,0,0.82-0.3,0.47-0.3C1881.15,927.52,1880.49,927.82,1880.84,927.82L1880.84,927.82z"
				/>
		</g>
	</g>
	<g>
		<g>
			<path class="st415" d="M1847.79,913.3c13.45-0.09,26.9-0.44,40.34-1.05c0.26-0.01,0.77-0.41,0.29-0.39
				c-13.44,0.61-26.89,0.96-40.34,1.05C1847.82,912.92,1847.31,913.31,1847.79,913.3L1847.79,913.3z"/>
		</g>
	</g>
</g>
</svg>
