<?xml version="1.0" encoding="utf-8"?>
<!-- Generator: Adobe Illustrator 24.0.2, SVG Export Plug-In . SVG Version: 6.00 Build 0)  -->
<svg version="1.1" xmlns="http://www.w3.org/2000/svg" xmlns:xlink="http://www.w3.org/1999/xlink" x="0px" y="0px"
	 viewBox="0 0 1940 1080" style="enable-background:new 0 0 1940 1080;" xml:space="preserve">
<style type="text/css">
	.st0{fill:#4C0C10;stroke:#1D1D1B;stroke-width:0.5;stroke-miterlimit:10;}
	.st1{fill:#771C23;stroke:#1D1D1B;stroke-width:0.5;stroke-miterlimit:10;}
	.st2{fill:#962C31;stroke:#1D1D1B;stroke-width:0.5;stroke-miterlimit:10;}
	.st3{fill:#600E15;stroke:#1D1D1B;stroke-width:0.5;stroke-miterlimit:10;}
	.st4{fill:#6B0B17;stroke:#1D1D1B;stroke-width:0.5;stroke-miterlimit:10;}
	.st5{fill:none;stroke:#1D1D1B;stroke-width:0.5;stroke-miterlimit:10;}
	.st6{fill:#696B6D;stroke:#1D1D1B;stroke-width:0.5;stroke-miterlimit:10;}
	.st7{fill:#303233;stroke:#1D1D1B;stroke-width:0.5;stroke-miterlimit:10;}
	.st8{fill:#353638;stroke:#1D1D1B;stroke-width:0.5;stroke-miterlimit:10;}
	.st9{fill:#56585A;stroke:#1D1D1B;stroke-width:0.5;stroke-miterlimit:10;}
	.st10{fill:#3A3C3D;stroke:#1D1D1B;stroke-width:0.5;stroke-miterlimit:10;}
	.st11{fill:#464B4F;stroke:#1D1D1B;stroke-width:0.5;stroke-miterlimit:10;}
	.st12{fill-rule:evenodd;clip-rule:evenodd;fill:#3B3C3D;stroke:#1D1D1B;stroke-width:0.5;stroke-miterlimit:10;}
	.st13{fill:#8E4F55;stroke:#1D1D1B;stroke-width:0.5;stroke-miterlimit:10;}
	.st14{fill:#A05757;stroke:#1D1D1B;stroke-width:0.5;stroke-miterlimit:10;}
	.st15{fill:#684D52;stroke:#1D1D1B;stroke-width:0.5;stroke-miterlimit:10;}
	.st16{opacity:0.32;fill:#3B3C3D;}
	.st17{fill:#A28869;}
	.st18{fill:#A16D69;}
	.st19{fill:#D4BB9C;}
	.st20{fill:#6E564D;}
	.st21{fill:#FFCACA;}
	.st22{fill:#D59C9C;}
	.st23{fill:#D2BB99;}
	.st24{fill:#A06C6A;}
	.st25{fill:#D39B9D;}
	.st26{fill:#A18968;}
	.st27{fill:#D2BA9A;}
	.st28{fill:#6E5656;}
	.st29{fill:#6C544C;}
	.st30{fill:#D49B83;}
	.st31{fill:#9F8867;}
	.st32{fill:#D5BB9D;}
	.st33{fill:#A18969;}
	.st34{fill:#D39B9B;}
	.st35{fill:#D29C9A;}
	.st36{fill:#D2BB9A;}
	.st37{fill:#D49C83;}
	.st38{fill:#FFCBCA;}
	.st39{fill:#A08868;}
	.st40{fill:#A26E68;}
	.st41{fill:#6F5557;}
	.st42{fill:#70564E;}
	.st43{fill:#A16D68;}
	.st44{fill:#D59C84;}
	.st45{fill:#D59C9D;}
	.st46{fill:#AC9074;}
	.st47{fill:#AC8F74;}
	.st48{fill:#DEA2A7;}
	.st49{fill:#785C41;}
	.st50{fill:#794141;}
	.st51{fill:#AA6F74;}
	.st52{fill:#472A27;}
	.st53{fill:#774142;}
	.st54{fill:#784541;}
	.st55{fill:#AA705D;}
	.st56{fill:#794144;}
	.st57{fill:#462A26;}
	.st58{fill:#784142;}
	.st59{fill:#DEC2A6;}
	.st60{fill:#AB8F75;}
	.st61{fill:#795D41;}
	.st62{fill:#774441;}
	.st63{fill:#AC9076;}
	.st64{fill:#DCA1A6;}
	.st65{fill:#AB7075;}
	.st66{fill:#785C42;}
	.st67{fill:#AA6F73;}
	.st68{fill:#7A5D42;}
	.st69{fill:#AC715D;}
	.st70{fill:#794143;}
	.st71{fill:#AD8F75;}
	.st72{fill:#784141;}
	.st73{fill:#A88D74;}
	.st74{fill:#785D41;}
	.st75{fill:#7B4343;}
	.st76{fill:#AC7074;}
	.st77{fill:#A98E73;}
	.st78{fill:#DEA3A8;}
	.st79{fill:#AD715E;}
	.st80{fill:#AD8F74;}
	.st81{fill:#AA8E74;}
	.st82{fill:#795D42;}
	.st83{fill:#774141;}
	.st84{fill:#784441;}
	.st85{fill:#AD9174;}
	.st86{fill:#AC9075;}
	.st87{fill:#795C41;}
	.st88{fill:#AA6F5D;}
	.st89{fill:#774143;}
	.st90{fill:#755A40;}
	.st91{fill:#AC8F78;}
	.st92{fill:#6F4044;}
	.st93{fill:#704145;}
	.st94{fill:#A17376;}
	.st95{fill:#6E5743;}
	.st96{fill:#A28B8E;}
	.st97{fill:#6F585B;}
	.st98{fill:#A07276;}
	.st99{fill:#6B3E40;}
	.st100{fill:#A38C91;}
	.st101{fill:#6E585B;}
	.st102{fill:#715946;}
	.st103{fill:#A18A77;}
	.st104{fill:#9F8A8E;}
	.st105{fill:#D3A4A8;}
	.st106{fill:#3C2521;}
	.st107{fill:#3A2020;}
	.st108{fill:#9F898C;}
	.st109{fill:#D4A6A9;}
	.st110{fill:#6F5842;}
	.st111{fill:#A17377;}
	.st112{fill:#A38B78;}
	.st113{fill:#A0898D;}
	.st114{fill:#6D3F43;}
	.st115{fill:#E3D9C1;}
	.st116{fill:#E2D8D8;}
	.st117{fill:#AFA5A5;}
	.st118{fill:#E2C0C1;}
	.st119{fill:#E4D8C1;}
	.st120{fill:#7E725C;}
	.st121{fill:#DFBFC1;}
	.st122{fill:#AEA5A4;}
	.st123{fill:#7D7373;}
	.st124{fill:#7C5A5A;}
	.st125{fill:#7C725A;}
	.st126{fill:#E1C0BF;}
	.st127{fill:#493F3F;}
	.st128{fill:#7D5B5B;}
	.st129{fill:#E0C0C0;}
	.st130{fill:#B28E90;}
	.st131{fill:#AEA4A4;}
	.st132{fill:#AFA58E;}
	.st133{fill:#B0A5A6;}
	.st134{fill:#7D735B;}
	.st135{fill:#E3C1C1;}
	.st136{fill:#B08E8F;}
	.st137{fill:#7E745B;}
	.st138{fill:#B1A58F;}
	.st139{fill:#B0A48D;}
	.st140{fill:#7E745C;}
	.st141{fill:#E6DAC4;}
	.st142{fill:#E5D8D9;}
	.st143{fill:#B1A78F;}
	.st144{fill:#E4C2C2;}
	.st145{fill:#E1D7C1;}
	.st146{fill:none;stroke:#FFFFFF;stroke-miterlimit:10;}
	.st147{fill:#E5D9C3;}
	.st148{fill:#AF8E8D;}
	.st149{fill:#E5C2C2;}
	.st150{fill:#7F7373;}
	.st151{fill:#E4D8DA;}
	.st152{fill:#7C725C;}
	.st153{fill:#B0A6A6;}
	.st154{fill:#E0D6D6;}
	.st155{fill:#B1A58E;}
	.st156{fill:#B1A5A5;}
	.st157{fill:#A78380;}
	.st158{fill:#736766;}
	.st159{fill:#412323;}
	.st160{fill:#766950;}
	.st161{fill:#76694E;}
	.st162{fill:#755150;}
	.st163{fill:#170D0D;}
	.st164{fill:#766866;}
	.st165{fill:#766A4F;}
	.st166{fill:#403423;}
	.st167{fill:#423534;}
	.st168{fill:#73674D;}
	.st169{fill:#422424;}
	.st170{fill:#776A50;}
	.st171{fill:#74514D;}
	.st172{fill:#443635;}
	.st173{fill:#413523;}
	.st174{fill:#766967;}
	.st175{fill:#755050;}
	.st176{fill:#4A4028;}
	.st177{fill:#4C4040;}
	.st178{fill:#4B2929;}
	.st179{fill:#7C5B5A;}
	.st180{fill:#7C5A5B;}
	.st181{fill:#483E27;}
	.st182{fill:#493F3E;}
	.st183{fill:#AF8D8D;}
	.st184{fill:#7F735C;}
	.st185{fill:#7E5C5B;}
	.st186{fill:#4B3F29;}
	.st187{fill:#493F27;}
	.st188{fill:#483E3F;}
	.st189{fill:#B28F78;}
	.st190{fill:#7C705B;}
	.st191{fill:#7C735B;}
	.st192{fill:#B18F8F;}
	.st193{fill:#7E725B;}
	.st194{fill:#AEA48C;}
	.st195{fill:#483F27;}
	.st196{fill:#7C725B;}
	.st197{fill:#B18F77;}
	.st198{fill:#7D5B5C;}
	.st199{fill:#AEA48E;}
	.st200{fill:#AE8D8D;}
	.st201{fill:#483E28;}
	.st202{fill:#7C5B43;}
	.st203{fill:#7E5C5C;}
	.st204{fill:#AE8D75;}
	.st205{fill:#AF8D74;}
	.st206{fill:#7D735C;}
	.st207{fill:#7B7259;}
	.st208{fill:#7C5C43;}
	.st209{fill:#7F5C5D;}
	.st210{fill:#7C5B5B;}
	.st211{fill:#190D0F;}
	.st212{fill:#4E412C;}
	.st213{fill:#4B3F3F;}
	.st214{fill:#AF8E8E;}
	.st215{fill:#7C5B58;}
	.st216{fill:#7E725E;}
	.st217{fill:#4B4129;}
	.st218{fill:#7E7472;}
	.st219{fill:#7E5B5C;}
	.st220{fill:#B08E8E;}
	.st221{fill:#AEA48D;}
	.st222{fill:#B2A68F;}
	.st223{fill:#E4C1C2;}
	.st224{fill:#B08E75;}
	.st225{fill:#7D715B;}
	.st226{fill:#AFA5A3;}
	.st227{fill:#494027;}
	.st228{fill:#7D5B44;}
	.st229{fill:#B08E77;}
	.st230{fill:#7D5B5A;}
	.st231{fill:#B08E8D;}
	.st232{fill:#7E725A;}
	.st233{fill:#483E3E;}
	.st234{fill:#865753;}
	.st235{fill:#B68885;}
	.st236{fill:#846D69;}
	.st237{fill:#B7A083;}
	.st238{fill:#856E53;}
	.st239{fill:#522D2D;}
	.st240{fill:#532D2D;}
	.st241{fill:#533C2D;}
	.st242{fill:#1F1111;}
	.st243{fill:#1E1111;}
	.st244{fill:#B68882;}
	.st245{fill:#513A2C;}
	.st246{fill:#865653;}
	.st247{fill:#856E52;}
	.st248{fill:#211212;}
	.st249{fill:#201111;}
	.st250{fill:#552E2E;}
	.st251{fill:#502B2B;}
	.st252{fill:#1D1010;}
	.st253{fill:#533B2D;}
	.st254{fill:#866E52;}
	.st255{fill:#523B2D;}
	.st256{fill:#876E55;}
	.st257{fill:#83554F;}
	.st258{fill:#855748;}
	.st259{fill:#836C50;}
	.st260{fill:#866E6A;}
	.st261{fill:#845652;}
	.st262{fill:#B78983;}
	.st263{fill:#855653;}
	.st264{fill:#B98986;}
	.st265{fill:#866E53;}
	.st266{fill:#846D52;}
	.st267{fill:#836C67;}
	.st268{fill:#512C2C;}
	.st269{fill:#B88A86;}
	.st270{fill:#523A2D;}
	.st271{fill:#855651;}
	.st272{fill:#50392B;}
	.st273{fill:#865652;}
	.st274{fill:#836D52;}
	.st275{fill:#855551;}
	.st276{fill:#542E2E;}
	.st277{fill:#856D53;}
	.st278{fill:#835552;}
	.st279{fill:#885754;}
	.st280{fill:#B8A086;}
	.st281{fill:#855548;}
	.st282{fill:#6D5B3F;}
	.st283{fill:#3A2920;}
	.st284{fill:#3C2121;}
	.st285{fill:#A49075;}
	.st286{fill:#3B2820;}
	.st287{fill:#A17873;}
	.st288{fill:#A18F89;}
	.st289{fill:#705C41;}
	.st290{fill:#715D59;}
	.st291{fill:#3C2923;}
	.st292{fill:#3B2924;}
	.st293{fill:#6D443F;}
	.st294{fill:#6E5B40;}
	.st295{fill:#9F8F88;}
	.st296{fill:#6D5C57;}
	.st297{fill:#A07770;}
	.st298{fill:#6D443E;}
	.st299{fill:#6E5D59;}
	.st300{fill:#A39075;}
	.st301{fill:#6C5B55;}
	.st302{fill:#3C2921;}
	.st303{fill:#A28F73;}
	.st304{fill:#A37873;}
	.st305{fill:#A49074;}
	.st306{fill:#A27773;}
	.st307{fill:#A18F73;}
	.st308{fill:#6E5C3F;}
	.st309{fill:#6E5C56;}
	.st310{fill:#3E2A24;}
	.st311{fill:#A18F72;}
	.st312{fill:#A18E8A;}
	.st313{fill:#6E5D3F;}
	.st314{fill:#6F443F;}
	.st315{fill:#6B5B3D;}
	.st316{fill:#6D5D3E;}
	.st317{fill:#3B2920;}
	.st318{fill:#483E3D;}
	.st319{fill:#4A3E28;}
	.st320{fill:#7D715C;}
	.st321{fill:#E3C1A9;}
	.st322{fill:#B0A68E;}
	.st323{fill:#B18E8E;}
	.st324{fill:#7B7159;}
	.st325{fill:#7C5A5C;}
	.st326{fill:#B0A48E;}
	.st327{fill:#E2C0A9;}
	.st328{fill:#B28F8E;}
	.st329{fill:#E4D8C2;}
	.st330{fill:#7B715A;}
	.st331{fill:#B08D75;}
	.st332{fill:#AE8E75;}
	.st333{fill:#AFA58D;}
	.st334{fill:#7B5959;}
	.st335{fill:#AF8D77;}
	.st336{fill:#AF8D8E;}
	.st337{fill:#AF8D76;}
	.st338{fill:#7A5942;}
	.st339{fill:#7A5A58;}
	.st340{fill:#7E5C45;}
	.st341{fill:#7B5B43;}
	.st342{fill:#4C292C;}
	.st343{fill:#E2C0C0;}
	.st344{fill:#7B725A;}
	.st345{fill:#795958;}
	.st346{fill:#B1A78E;}
	.st347{fill:#ADA48C;}
	.st348{fill:#E3C1C2;}
	.st349{fill:#B18F8E;}
	.st350{fill:#AEA58C;}
	.st351{fill:#AEA58D;}
	.st352{fill:#E3D7C2;}
	.st353{fill:#7F5D5D;}
	.st354{fill:#7C5A43;}
	.st355{fill:#7F5B5D;}
	.st356{fill:#B18E76;}
	.st357{fill:#AEA5A6;}
	.st358{fill:#4D4141;}
	.st359{fill:#E2C1C1;}
	.st360{fill:#7C5A59;}
	.st361{fill-rule:evenodd;clip-rule:evenodd;fill:#FFFFFF;stroke:#1D1D1B;stroke-miterlimit:10;}
	.st362{fill-rule:evenodd;clip-rule:evenodd;fill:#B2292E;}
	.st363{fill-rule:evenodd;clip-rule:evenodd;fill:#937532;}
	.st364{fill-rule:evenodd;clip-rule:evenodd;fill:#53575A;}
	.st365{fill:#FFFFFF;}
</style>
<g id="Capa_9">
	<polygon class="st0" points="0,0 240.17,0 0,244.49 	"/>
	<polygon class="st1" points="0,244.49 197.27,417.6 0,509.18 	"/>
	<polygon class="st2" points="0,509.18 0,752.15 240.17,722.37 	"/>
	<polygon class="st3" points="240.17,722.37 0,909.68 0,752.15 	"/>
	<polygon class="st3" points="240.17,0 197.27,417.6 0,244.49 	"/>
	<polygon class="st1" points="0,909.68 295.33,1080 0,1080 	"/>
	<polygon class="st4" points="197.27,417.6 240.17,722.37 0,509.18 	"/>
	<polygon class="st0" points="240.17,722.37 295.33,1080 0,909.68 	"/>
	<polygon class="st4" points="218.19,214.02 536.11,-1.16 240.17,0 	"/>
	<path class="st5" d="M532.76,1.25"/>
	<polygon class="st3" points="218.19,214.02 554.66,268.45 532.76,1.25 	"/>
	<polygon class="st2" points="197.27,417.6 554.66,268.45 218.19,214.02 	"/>
	<polygon class="st0" points="240.17,722.37 375.47,342.53 197.27,417.6 	"/>
	<polygon class="st3" points="240.17,722.37 505.72,897.68 286.39,1022.06 	"/>
	<polygon class="st0" points="375.47,342.53 547.6,435.21 554.66,268.45 	"/>
	<polygon class="st1" points="240.17,722.37 547.6,435.21 375.47,342.53 	"/>
	<polygon class="st2" points="505.72,897.68 547.6,435.21 240.17,722.37 	"/>
	<polygon class="st1" points="505.72,897.68 688.7,1007.84 286.39,1022.06 	"/>
	<polygon class="st4" points="295.33,1080 688.7,1007.84 286.39,1022.06 	"/>
	<polygon class="st2" points="542.02,114.3 840.37,0 532.56,-1.15 	"/>
	<polygon class="st0" points="542.02,114.3 840.37,0 554.66,268.45 	"/>
	<polygon class="st2" points="688.7,1007.84 838.19,1080 295.33,1080 	"/>
	<polygon class="st6" points="1940,0 1666.53,0 1940,240.98 	"/>
	<polygon class="st7" points="1940,918.39 1686.44,1080 1940,1080 	"/>
	<polygon class="st8" points="1940,734.7 1783.55,1018.11 1940,918.39 	"/>
	<polygon class="st9" points="1848.37,160.23 1940,509.18 1940,240.98 	"/>
	<polygon class="st10" points="1940,734.7 1715.55,644.14 1940,509.18 	"/>
	<polygon class="st6" points="1783.55,1018.11 1715.55,644.14 1940,734.7 	"/>
	<polygon class="st7" points="1848.37,160.23 1715.55,644.14 1940,509.18 	"/>
	<polygon class="st9" points="1666.53,0 1800.48,334.71 1848.37,160.23 	"/>
	<polygon class="st10" points="1715.55,644.14 1686.44,1080 1783.55,1018.11 	"/>
	<polygon class="st11" points="1700.66,867.21 1338.7,1080 1686.44,1080 	"/>
	<polygon class="st7" points="1715.55,644.14 1428.02,737.26 1700.66,867.21 	"/>
	<polygon class="st8" points="1666.53,0 1385.3,0 1710.01,108.65 	"/>
	<polygon class="st9" points="1385.3,0 1092.6,0 1240.87,205.85 	"/>
	<polygon class="st6" points="1710.01,108.65 1240.87,205.85 1385.3,0 	"/>
	<polygon class="st11" points="1800.48,334.71 1240.87,205.85 1710.01,108.65 	"/>
	<polygon class="st9" points="1715.55,644.14 1544.51,275.77 1800.48,334.71 	"/>
	<polygon class="st10" points="1428.02,737.26 1544.51,275.77 1715.55,644.14 	"/>
	<polygon class="st8" points="1240.87,205.85 1428.02,737.26 1544.51,275.77 	"/>
	<polygon class="st9" points="1700.66,867.21 1428.02,737.26 1338.7,1080 	"/>
	<path class="st12" d="M547.6,435.21"/>
	<polygon class="st0" points="547.6,435.21 688.7,1007.84 505.72,897.68 	"/>
	<polygon class="st13" points="840.37,0 1240.87,205.85 1092.6,0 	"/>
	<polygon class="st3" points="554.66,268.45 1240.87,205.85 840.37,0 	"/>
	<polygon class="st1" points="547.6,435.21 955.88,231.85 554.66,268.45 	"/>
	<polygon class="st9" points="1428.02,737.26 1240.87,205.85 1131.25,845.87 	"/>
	<polygon class="st1" points="638.51,804.16 1131.25,845.87 688.7,1007.84 	"/>
	<polygon class="st3" points="547.6,435.21 846.89,821.8 638.51,804.16 	"/>
	<polygon class="st2" points="719.5,657.26 955.88,231.85 547.6,435.21 	"/>
	<polygon class="st14" points="846.89,821.8 719.5,657.26 1131.25,845.87 	"/>
	<polygon class="st9" points="1131.25,845.87 1240.87,205.85 949.07,231.85 	"/>
	<polygon class="st15" points="719.5,657.26 955.88,231.85 1131.25,845.87 	"/>
	<polygon class="st14" points="1131.25,845.87 838.19,1080 688.7,1007.84 	"/>
	<polygon class="st15" points="1338.7,1080 1131.25,845.87 838.19,1080 	"/>
	<polygon class="st11" points="1428.02,737.26 1131.25,845.87 1338.7,1080 	"/>
</g>
<g id="Capa_11">
	<rect class="st16" width="1940" height="1080"/>
</g>
<g id="Capa_2">
	<polygon class="st17" points="204.59,487.81 159.92,523.81 196.62,520.4 	"/>
	<polygon class="st18" points="204.59,487.81 237.18,482.79 232.62,505.81 	"/>
	<polygon class="st19" points="196.62,520.4 233.76,532.7 204.59,487.81 	"/>
	<polygon class="st17" points="232.62,505.81 233.76,532.7 204.59,487.81 	"/>
	<polygon class="st20" points="232.62,505.81 275.93,495.33 237.18,482.79 	"/>
	<polygon class="st21" points="233.76,532.7 275.93,495.33 232.62,505.81 	"/>
	<polygon class="st22" points="233.76,532.7 267.72,541.82 259.99,509.45 	"/>
	<polygon class="st23" points="275.93,495.33 267.72,541.82 259.99,509.45 	"/>
	<polygon class="st24" points="271.26,521.78 310.11,520.62 275.93,495.33 	"/>
	<polygon class="st25" points="267.72,541.82 310.11,520.62 271.26,521.78 	"/>
	<polygon class="st26" points="288.92,531.22 333.81,544.78 310.11,520.62 	"/>
	<polygon class="st27" points="267.72,541.82 333.81,544.78 288.92,531.22 	"/>
	<polygon class="st28" points="-79.68,481.65 -64.34,512.19 -45.65,502.77 	"/>
	<polygon class="st29" points="-64.34,512.19 -35.32,528.92 -45.65,502.77 	"/>
	<polygon class="st20" points="-79.68,481.65 -116.45,477.25 -72.45,496.04 	"/>
	<polygon class="st18" points="-64.34,512.19 -72.45,535.44 -35.32,528.92 	"/>
	<polygon class="st30" points="-72.45,496.04 -72.45,535.44 -64.34,512.19 	"/>
	<polygon class="st31" points="-116.45,477.25 -72.45,511.58 -72.45,496.04 	"/>
	<polygon class="st20" points="-116.45,477.25 -163.09,493.5 -98.79,491.03 	"/>
	<polygon class="st32" points="-98.79,491.03 -94.45,519.48 -72.45,511.58 	"/>
	<polygon class="st33" points="-94.45,519.48 -72.45,535.44 -72.45,511.58 	"/>
	<polygon class="st34" points="-94.45,519.48 -135.45,492.44 -98.79,491.03 	"/>
	<polygon class="st35" points="-94.45,519.48 -125.26,539.39 -72.45,535.44 	"/>
	<polygon class="st36" points="-135.45,492.44 -112,530.82 -94.45,519.48 	"/>
	<polygon class="st37" points="-163.09,493.5 -112,530.82 -135.45,492.44 	"/>
	<polygon class="st38" points="-137.5,512.19 -125.26,539.39 -112,530.82 	"/>
	<polygon class="st39" points="-137.5,512.19 -185.28,542.27 -125.26,539.39 	"/>
	<polygon class="st40" points="-163.09,493.5 -167.9,531.33 -137.5,512.19 	"/>
	<polygon class="st41" points="-163.09,493.5 -198.04,508.85 -167.9,531.33 	"/>
	<polygon class="st42" points="-198.04,508.85 -214.75,524.65 -167.9,531.33 	"/>
	<polygon class="st43" points="-214.75,524.65 -185.28,542.27 -167.9,531.33 	"/>
	<polygon class="st44" points="159.92,523.81 192.97,534.07 196.62,520.4 	"/>
	<polygon class="st45" points="192.97,534.07 233.76,532.7 196.62,520.4 	"/>
	<polygon class="st46" points="19.38,715.48 70.13,731.59 -31.97,740.4 	"/>
	<polygon class="st47" points="-31.97,740.4 -69.65,777.17 6.65,737.07 	"/>
	<polygon class="st48" points="6.65,737.07 59.19,769.27 70.13,731.59 	"/>
	<polygon class="st49" points="-69.65,777.17 -102.47,800.57 -69.65,826.7 	"/>
	<polygon class="st50" points="-102.47,800.57 -120.1,832.47 -82.44,816.52 	"/>
	<polygon class="st51" points="-69.65,777.17 -31.5,792.06 -23.93,753.14 	"/>
	<polygon class="st52" points="-120.1,832.47 -69.65,826.7 -82.44,816.52 	"/>
	<polygon class="st53" points="-69.65,826.7 -31.5,792.06 -69.65,777.17 	"/>
	<polygon class="st49" points="-23.93,753.14 59.19,769.27 6.65,737.07 	"/>
	<polygon class="st53" points="-31.5,792.06 21.22,761.9 -23.93,753.14 	"/>
	<polygon class="st54" points="-31.5,792.06 -21.03,805.73 -69.65,826.7 	"/>
	<polygon class="st55" points="-120.1,832.47 -101.27,844.63 -69.65,826.7 	"/>
	<polygon class="st56" points="-21.03,805.73 21.22,761.9 -31.5,792.06 	"/>
	<polygon class="st57" points="-21.03,805.73 38.39,785.07 21.22,761.9 	"/>
	<polygon class="st58" points="59.19,769.27 38.39,785.07 21.22,761.9 	"/>
	<polygon class="st59" points="70.13,731.59 118.14,715.48 157.34,737.07 	"/>
	<polygon class="st60" points="157.34,737.07 166.15,792.06 195.63,778.69 	"/>
	<polygon class="st61" points="195.63,778.69 237.56,840.07 248.5,821.84 	"/>
	<polygon class="st62" points="237.56,840.07 182.86,832.47 228.75,858.91 	"/>
	<polygon class="st63" points="166.15,792.06 211.51,801.93 195.63,778.69 	"/>
	<polygon class="st47" points="59.19,769.27 111.73,734.2 70.13,731.59 	"/>
	<polygon class="st64" points="111.73,734.2 166.15,792.06 157.34,737.07 	"/>
	<polygon class="st65" points="59.19,769.27 141.99,766.37 111.73,734.2 	"/>
	<polygon class="st58" points="59.19,769.27 95.05,790.31 38.39,785.07 	"/>
	<polygon class="st66" points="95.05,790.31 115.71,767.29 59.19,769.27 	"/>
	<polygon class="st67" points="115.71,767.29 166.15,792.06 141.99,766.37 	"/>
	<polygon class="st57" points="211.51,801.93 182.86,832.47 237.56,840.07 	"/>
	<polygon class="st68" points="166.15,792.06 182.86,832.47 211.51,801.93 	"/>
	<polygon class="st69" points="95.05,790.31 166.15,792.06 115.71,767.29 	"/>
	<polygon class="st70" points="95.05,790.31 182.86,832.47 166.15,792.06 	"/>
	<polygon class="st71" points="203.66,844.45 198.21,888.92 228.75,858.91 	"/>
	<polygon class="st72" points="-101.27,844.63 -86.06,872.05 -50.58,876.84 	"/>
	<polygon class="st73" points="-69.65,826.7 -65.04,867.65 -101.27,844.63 	"/>
	<polygon class="st74" points="-50.58,876.84 -13.51,883.22 -29.92,845.84 	"/>
	<polygon class="st71" points="-65.04,867.65 -29.92,845.84 -69.65,826.7 	"/>
	<polygon class="st75" points="-50.58,876.84 -29.92,845.84 -65.04,867.65 	"/>
	<polygon class="st62" points="201.66,860.73 154,883.22 198.21,888.92 	"/>
	<polygon class="st76" points="182.86,832.47 201.66,860.73 203.66,844.45 	"/>
	<polygon class="st77" points="182.86,832.47 154,883.22 201.66,860.73 	"/>
	<polygon class="st78" points="38.39,785.07 82.89,813.71 95.05,790.31 	"/>
	<path class="st55" d="M-21.03,805.73c0,0,58.34,9.8,58.12,8.89s1.3-29.55,1.3-29.55L-21.03,805.73z"/>
	<polygon class="st79" points="-29.92,845.84 -21.03,805.73 -69.65,826.7 	"/>
	<polygon class="st80" points="82.89,813.71 37.08,814.62 38.39,785.07 	"/>
	<polygon class="st81" points="82.89,813.71 143.78,813.71 95.05,790.31 	"/>
	<polygon class="st82" points="154,883.22 162.37,868.5 91.78,875.86 	"/>
	<polygon class="st83" points="162.37,868.5 90.64,855.19 91.78,875.86 	"/>
	<polygon class="st58" points="-21.72,864.53 30.93,860.73 -13.51,883.22 	"/>
	<polygon class="st53" points="30.93,860.73 91.78,875.86 -13.51,883.22 	"/>
	<polygon class="st84" points="30.93,860.73 90.64,855.19 91.78,875.86 	"/>
	<polygon class="st60" points="143.78,813.71 162.37,868.5 182.86,832.47 	"/>
	<polygon class="st85" points="-29.92,845.84 37.08,814.62 -21.03,805.73 	"/>
	<polygon class="st86" points="37.08,814.62 87.45,835.66 82.89,813.71 	"/>
	<polygon class="st51" points="87.45,835.66 143.78,813.71 82.89,813.71 	"/>
	<polygon class="st87" points="37.08,814.62 30.93,860.73 -29.92,845.84 	"/>
	<polygon class="st88" points="-29.92,845.84 -21.72,864.53 30.93,860.73 	"/>
	<polygon class="st89" points="87.45,835.66 90.64,855.19 30.93,860.73 	"/>
	<polygon class="st69" points="87.45,835.66 37.08,814.62 30.93,860.73 	"/>
	<polygon class="st90" points="143.78,813.71 87.45,835.66 90.64,855.19 	"/>
	<polygon class="st91" points="117.21,834.45 162.37,868.5 143.78,813.71 	"/>
	<polygon class="st66" points="90.64,855.19 117.21,834.45 162.37,868.5 	"/>
</g>
<g id="Capa_3">
	<polygon class="st92" points="-111.51,46.9 -99.66,111.08 -69.58,46.9 	"/>
	<polygon class="st93" points="-43.82,160.31 -99.66,111.08 -85.53,152.1 	"/>
	<polygon class="st94" points="-81.83,73.04 -76.55,131.45 -99.66,111.08 	"/>
	<polygon class="st95" points="-76.55,131.45 -26.5,102.25 -43.82,160.31 	"/>
	<polygon class="st96" points="-81.83,73.04 -2.35,46.9 -69.58,46.9 	"/>
	<polygon class="st97" points="-81.83,73.04 -26.5,102.25 -76.55,131.45 	"/>
	<polygon class="st98" points="-2.35,46.9 -26.5,102.25 -81.83,73.04 	"/>
	<polygon class="st99" points="-26.5,102.25 16.11,160.31 -43.82,160.31 	"/>
	<polygon class="st100" points="-2.35,46.9 51.44,46.9 -16.35,78.99 	"/>
	<polygon class="st101" points="16.11,160.31 58.05,114.73 81.98,159.17 	"/>
	<polygon class="st102" points="-26.5,102.25 58.05,114.73 16.11,160.31 	"/>
	<polygon class="st103" points="-16.35,78.99 58.05,114.73 -26.5,102.25 	"/>
	<polygon class="st104" points="-16.35,78.99 51.44,46.9 58.05,114.73 	"/>
	<polygon class="st105" points="54.89,82.34 124.6,46.9 51.44,46.9 	"/>
	<polygon class="st106" points="223.51,46.9 234.68,106.75 267.04,66.41 	"/>
	<polygon class="st107" points="234.68,106.75 151.49,156.43 197.75,152.33 	"/>
	<polygon class="st108" points="124.6,46.9 133.71,93.3 174.96,46.9 	"/>
	<polygon class="st109" points="174.96,46.9 228.67,74.58 223.51,46.9 	"/>
	<polygon class="st110" points="133.71,93.3 54.89,82.34 124.6,46.9 	"/>
	<polygon class="st101" points="174.96,46.9 228.67,74.58 133.71,93.3 	"/>
	<polygon class="st111" points="234.68,106.75 133.71,93.3 228.67,74.58 	"/>
	<polygon class="st112" points="58.05,114.73 133.71,93.3 54.89,82.34 	"/>
	<polygon class="st113" points="81.98,159.17 133.71,93.3 151.49,156.43 	"/>
	<polygon class="st94" points="58.05,114.73 81.98,159.17 133.71,93.3 	"/>
	<polygon class="st114" points="133.71,93.3 151.49,156.43 234.68,106.75 	"/>
</g>
<g id="Capa_4">
	<polygon class="st115" points="-165.98,46.9 -200.93,70.1 -111.51,46.9 	"/>
	<polygon class="st116" points="-104.97,82.34 -173.35,62.95 -111.51,46.9 	"/>
	<polygon class="st117" points="-200.93,70.1 -186.65,118.37 -173.35,62.95 	"/>
	<polygon class="st118" points="-186.65,118.37 -104.97,82.34 -173.35,62.95 	"/>
	<polygon class="st119" points="-152.15,103.15 -99.66,111.08 -104.97,82.34 	"/>
	<polygon class="st120" points="-186.65,118.37 -184.82,171.25 -152.15,103.15 	"/>
	<polygon class="st121" points="-99.66,111.08 -168.64,137.52 -152.15,103.15 	"/>
	<polygon class="st122" points="-85.53,152.1 -168.64,137.52 -99.66,111.08 	"/>
	<polygon class="st123" points="-184.82,171.25 -132.3,143.89 -168.64,137.52 	"/>
	<polygon class="st124" points="-132.3,143.89 -120.1,183.1 -85.53,152.1 	"/>
	<polygon class="st125" points="-120.1,183.1 -184.82,171.25 -132.3,143.89 	"/>
	<polygon class="st126" points="-184.82,171.25 -176.31,226.25 -147.07,178.16 	"/>
	<polygon class="st127" points="-176.31,226.25 -149.27,242.66 -147.07,178.16 	"/>
	<polygon class="st128" points="-149.27,242.66 -94.57,237.49 -147.07,178.16 	"/>
	<polygon class="st129" points="-147.07,178.16 -120.1,183.1 -94.57,237.49 	"/>
	<polygon class="st130" points="-85.53,152.1 -120.1,183.1 -94.57,237.49 	"/>
	<polygon class="st131" points="-85.53,152.1 -43.82,160.31 -90.05,194.8 	"/>
	<polygon class="st132" points="-90.05,194.8 -42.09,206.8 -43.82,160.31 	"/>
	<polygon class="st133" points="-94.57,237.49 -42.09,206.8 -90.05,194.8 	"/>
	<polygon class="st134" points="-42.09,206.8 -4.02,244.48 -94.57,237.49 	"/>
	<polygon class="st135" points="-43.82,160.31 16.11,160.31 -42.09,206.8 	"/>
	<polygon class="st136" points="-4.02,244.48 16.11,160.31 -42.09,206.8 	"/>
	<polygon class="st137" points="4.37,209.42 70.43,198.75 16.11,160.31 	"/>
	<polygon class="st138" points="70.43,198.75 81.98,159.17 16.11,160.31 	"/>
	<polygon class="st139" points="-4.02,244.48 77.72,237.49 4.37,209.42 	"/>
	<polygon class="st117" points="70.43,198.75 4.37,209.42 77.72,237.49 	"/>
	<polygon class="st140" points="77.72,237.49 145.49,248.13 70.43,198.75 	"/>
	<polygon class="st141" points="151.49,156.43 81.98,159.17 70.43,198.75 	"/>
	<polygon class="st142" points="267.04,66.41 319.3,85.55 234.68,106.75 	"/>
	<polygon class="st143" points="197.75,152.33 260.96,162.43 234.68,106.75 	"/>
	<polygon class="st144" points="319.3,85.55 304.11,122.93 234.68,106.75 	"/>
	<polygon class="st145" points="260.96,162.43 304.11,122.93 234.68,106.75 	"/>
	<path class="st146" d="M304.11,122.93"/>
	<polygon class="st147" points="319.3,85.55 352.73,106.75 304.11,122.93 	"/>
	<polygon class="st122" points="304.11,122.93 321.43,162.43 352.73,106.75 	"/>
	<polygon class="st148" points="321.43,162.43 260.96,162.43 304.11,122.93 	"/>
	<polygon class="st149" points="107.96,223.44 151.49,156.43 70.43,198.75 	"/>
	<polygon class="st148" points="151.49,156.43 181.19,206.8 197.75,152.33 	"/>
	<polygon class="st141" points="181.19,206.8 260.96,162.43 197.75,152.33 	"/>
	<polygon class="st150" points="260.96,162.43 286.18,216.14 321.43,162.43 	"/>
	<polygon class="st151" points="272.74,187.53 181.19,206.8 260.96,162.43 	"/>
	<polygon class="st152" points="234.68,195.54 265.21,250.56 286.18,216.14 	"/>
	<polygon class="st137" points="234.68,195.54 197.75,248.13 265.21,250.56 	"/>
	<polygon class="st153" points="272.74,187.53 234.68,195.54 286.18,216.14 	"/>
	<polygon class="st154" points="107.96,223.44 181.19,206.8 151.49,156.43 	"/>
	<polygon class="st135" points="181.19,206.8 145.49,248.13 107.96,223.44 	"/>
	<polygon class="st155" points="181.19,206.8 197.75,248.13 234.68,195.54 	"/>
	<polygon class="st156" points="145.49,248.13 197.75,248.13 181.19,206.8 	"/>
</g>
<g id="Capa_5">
	<polygon class="st157" points="-200.93,70.1 -254.71,94.06 -186.65,118.37 	"/>
	<polygon class="st158" points="-254.71,94.06 -308.8,137.52 -225.47,104.5 	"/>
	<polygon class="st159" points="-225.47,104.5 -184.82,171.25 -186.65,118.37 	"/>
	<polygon class="st160" points="-308.8,137.52 -246.81,163.49 -225.47,104.5 	"/>
	<polygon class="st161" points="-308.8,137.52 -343.14,196.16 -279.29,149.88 	"/>
	<polygon class="st162" points="-343.14,196.16 -299.38,222.6 -279.29,149.88 	"/>
	<polygon class="st163" points="-343.14,196.16 -363.2,265.14 -299.38,222.6 	"/>
	<polygon class="st163" points="-363.2,265.14 -299.38,257.24 -299.38,222.6 	"/>
	<polygon class="st164" points="-246.81,163.49 -184.82,171.25 -225.47,104.5 	"/>
	<polygon class="st165" points="-246.81,163.49 -176.31,226.25 -184.82,171.25 	"/>
	<polygon class="st163" points="-176.31,226.25 -234.96,244.48 -149.27,242.66 	"/>
	<polygon class="st159" points="-299.38,222.6 -234.96,244.48 -299.38,257.24 	"/>
	<polygon class="st166" points="-246.81,163.49 -234.96,244.48 -176.31,226.25 	"/>
	<polygon class="st163" points="-299.38,222.6 -246.81,163.49 -279.29,149.88 	"/>
	<polygon class="st167" points="-234.96,244.48 -246.81,163.49 -299.38,222.6 	"/>
	<polygon class="st168" points="352.73,106.75 409.25,156.43 321.43,162.43 	"/>
	<polygon class="st169" points="265.21,250.56 344.83,253.29 286.18,216.14 	"/>
	<path class="st170" d="M321.43,162.43c-0.64-1.47-35.25,53.71-35.25,53.71l58.65,37.15L321.43,162.43z"/>
	<polygon class="st171" points="369.23,159.17 334.9,214.74 321.43,162.43 	"/>
	<polygon class="st172" points="344.83,253.29 405,257.24 334.9,214.74 	"/>
	<polygon class="st173" points="369.23,159.17 384.23,244.65 334.9,214.74 	"/>
	<polygon class="st174" points="409.25,156.43 377.11,204.05 369.23,159.17 	"/>
	<polygon class="st163" points="405,257.24 452.7,218.65 467.9,284.59 	"/>
	<polygon class="st163" points="409.25,156.43 452.7,218.65 377.11,204.05 	"/>
	<polygon class="st175" points="384.23,244.65 452.7,218.65 377.11,204.05 	"/>
	<polygon class="st169" points="405,257.24 384.23,244.65 452.7,218.65 	"/>
	<polygon class="st176" points="-388.19,435.39 -315.72,419.66 -310.7,445.19 	"/>
	<polygon class="st120" points="-386.82,466.38 -388.19,435.39 -341.97,441.23 	"/>
	<polygon class="st127" points="-341.97,441.23 -306.14,503.08 -310.7,445.19 	"/>
	<polygon class="st177" points="-315.72,419.66 -288.14,415.79 -310.7,445.19 	"/>
	<polygon class="st178" points="-310.7,445.19 -287.23,485.37 -288.14,415.79 	"/>
	<polygon class="st179" points="-306.14,503.08 -287.23,485.37 -310.7,445.19 	"/>
	<polygon class="st180" points="-386.82,466.38 -324.06,472.15 -341.97,441.23 	"/>
	<polygon class="st181" points="-386.82,466.38 -392.29,525.79 -354.42,469.36 	"/>
	<polygon class="st120" points="-354.42,469.36 -356.97,533.46 -324.06,472.15 	"/>
	<polygon class="st182" points="-392.29,525.79 -356.97,533.46 -354.42,469.36 	"/>
	<polygon class="st183" points="-356.97,533.46 -306.14,503.08 -324.06,472.15 	"/>
	<polygon class="st184" points="-306.14,503.08 -291.33,547.52 -287.23,485.37 	"/>
	<polygon class="st185" points="-291.33,547.52 -328.51,516.45 -306.14,503.08 	"/>
	<polygon class="st186" points="-356.97,533.46 -291.33,547.52 -328.51,516.45 	"/>
	<polygon class="st179" points="-356.97,533.46 -397.08,586.94 -392.29,525.79 	"/>
	<polygon class="st187" points="-380.72,565.14 -344.66,569.17 -356.97,533.46 	"/>
	<polygon class="st188" points="-347.57,560.72 -319.52,541.48 -356.97,533.46 	"/>
	<polygon class="st189" points="-291.33,547.52 -301.93,608.37 -319.52,541.48 	"/>
	<polygon class="st190" points="-347.57,560.72 -313.37,564.87 -319.52,541.48 	"/>
	<polygon class="st191" points="-347.57,560.72 -335.85,595.3 -313.37,564.87 	"/>
	<polygon class="st192" points="-335.85,595.3 -301.93,608.37 -313.37,564.87 	"/>
	<polygon class="st193" points="-380.72,565.14 -397.08,586.94 -344.66,569.17 	"/>
	<polygon class="st128" points="-335.85,595.3 -397.08,586.94 -344.66,569.17 	"/>
	<polygon class="st120" points="-397.08,586.94 -402.09,648.02 -366.46,591.12 	"/>
	<polygon class="st194" points="-366.46,591.12 -344.66,632.53 -402.09,648.02 	"/>
	<polygon class="st134" points="-335.85,595.3 -344.66,632.53 -366.46,591.12 	"/>
	<polygon class="st195" points="-344.66,632.53 -301.93,608.37 -335.85,595.3 	"/>
	<polygon class="st196" points="-344.66,632.53 -301.93,673.09 -324.15,620.93 	"/>
	<polygon class="st197" points="-301.93,608.37 -301.93,673.09 -324.15,620.93 	"/>
	<polygon class="st198" points="-301.93,673.09 -305.42,729.61 -332.35,686.31 	"/>
	<polygon class="st199" points="-344.66,632.53 -332.35,686.31 -301.93,673.09 	"/>
	<polygon class="st200" points="-375.06,640.73 -332.35,686.31 -344.66,632.53 	"/>
	<polygon class="st140" points="-402.09,648.02 -397.08,710.01 -375.06,640.73 	"/>
	<polygon class="st132" points="-387.78,680.75 -351.15,666.25 -375.06,640.73 	"/>
	<polygon class="st201" points="-387.78,680.75 -332.35,686.31 -351.15,666.25 	"/>
	<polygon class="st202" points="-397.08,710.01 -332.35,686.31 -387.78,680.75 	"/>
	<polygon class="st203" points="-397.08,710.01 -395.25,761.9 -342.38,779.3 	"/>
	<polygon class="st134" points="-332.35,686.31 -369.47,744.99 -397.08,710.01 	"/>
	<polygon class="st176" points="-369.47,744.99 -305.42,729.61 -332.35,686.31 	"/>
	<polygon class="st120" points="-342.38,779.3 -305.42,729.61 -369.47,744.99 	"/>
	<polygon class="st204" points="-342.38,779.3 -294.98,799.88 -305.42,729.61 	"/>
	<polygon class="st205" points="-294.98,799.88 -337.45,832.47 -283.12,867.65 	"/>
	<polygon class="st206" points="-395.25,761.9 -395.25,818.95 -342.38,779.3 	"/>
	<polygon class="st207" points="-342.38,779.3 -337.45,832.47 -294.98,799.88 	"/>
	<polygon class="st208" points="-283.12,867.65 -317.14,922.42 -265.35,931.99 	"/>
	<polygon class="st176" points="-265.35,931.99 -265.35,970.28 -317.14,922.42 	"/>
	<polygon class="st209" points="-337.45,832.47 -395.25,818.95 -342.38,779.3 	"/>
	<polygon class="st186" points="-395.25,818.95 -377.48,867.65 -337.45,832.47 	"/>
	<polygon class="st176" points="-377.48,867.65 -317.14,922.42 -366.35,913.76 	"/>
	<polygon class="st178" points="-366.35,913.76 -327.79,950.22 -317.14,922.42 	"/>
	<polygon class="st125" points="-337.45,832.47 -317.14,922.42 -377.48,867.65 	"/>
	<polygon class="st210" points="-283.12,867.65 -317.14,922.42 -337.45,832.47 	"/>
	<polygon class="st211" points="-327.79,950.22 -265.35,970.28 -317.14,922.42 	"/>
	<polygon class="st128" points="416.09,426.5 416.09,484.84 443.89,435.16 	"/>
	<polygon class="st212" points="466.68,469.8 473.06,438.35 443.89,435.16 	"/>
	<polygon class="st212" points="466.68,469.8 500.41,452.48 473.06,438.35 	"/>
	<polygon class="st127" points="416.09,484.84 466.68,469.8 443.89,435.16 	"/>
	<polygon class="st213" points="466.68,469.8 500.41,508.56 500.41,452.48 	"/>
	<polygon class="st214" points="466.68,469.8 460.3,518.57 416.09,484.84 	"/>
	<polygon class="st215" points="500.41,508.56 460.3,518.57 466.68,469.8 	"/>
	<polygon class="st186" points="460.3,518.57 500.41,541.82 500.41,508.56 	"/>
	<polygon class="st216" points="416.09,484.84 413.35,541.82 460.3,518.57 	"/>
	<polygon class="st217" points="460.3,518.57 473.06,550.94 484.68,532.7 	"/>
	<polygon class="st218" points="473.06,550.94 413.35,541.82 460.3,518.57 	"/>
	<polygon class="st219" points="473.06,550.94 500.41,541.82 484.68,532.7 	"/>
	<polygon class="st193" points="473.06,550.94 497.68,614.75 500.41,541.82 	"/>
	<polygon class="st220" points="413.35,541.82 413.35,597.88 473.06,550.94 	"/>
	<polygon class="st186" points="439.82,577.08 488.63,591.3 473.06,550.94 	"/>
	<polygon class="st220" points="488.63,591.3 460.3,627.97 497.68,614.75 	"/>
	<polygon class="st120" points="439.82,577.08 460.3,627.97 488.63,591.3 	"/>
	<polygon class="st195" points="460.3,627.97 413.35,597.88 439.82,577.08 	"/>
	<polygon class="st124" points="413.35,597.88 416.09,647.11 460.3,627.97 	"/>
	<polygon class="st221" points="416.09,647.11 500.41,666.26 460.3,627.97 	"/>
	<polygon class="st120" points="497.68,614.75 500.41,666.26 460.3,627.97 	"/>
	<polygon class="st222" points="416.09,647.11 413.35,705.91 460.3,657.15 	"/>
	<polygon class="st140" points="460.3,657.15 505.43,726.27 500.41,666.26 	"/>
	<polygon class="st223" points="413.35,705.91 478.99,685.78 460.3,657.15 	"/>
	<polygon class="st224" points="478.99,685.78 473.06,751.73 505.43,726.27 	"/>
	<polygon class="st225" points="413.35,705.91 446.17,726.27 478.99,685.78 	"/>
	<polygon class="st198" points="446.17,726.27 473.06,751.73 478.99,685.78 	"/>
	<polygon class="st226" points="413.35,705.91 403.78,783.4 446.17,726.27 	"/>
	<polygon class="st200" points="403.78,783.4 398.31,840.07 446.17,809.38 	"/>
	<polygon class="st138" points="446.17,726.27 446.17,809.38 403.78,783.4 	"/>
	<polygon class="st224" points="398.31,840.07 387.83,899.63 436.83,899.63 	"/>
	<polygon class="st227" points="387.83,899.63 387.83,942.48 436.83,899.63 	"/>
	<polygon class="st228" points="387.83,942.48 366.4,982.13 450.73,966.18 	"/>
	<polygon class="st163" points="366.4,982.13 431.13,989.42 450.73,966.18 	"/>
	<polygon class="st210" points="473.06,751.73 503.15,801.93 505.43,726.27 	"/>
	<polygon class="st184" points="473.06,751.73 446.17,774.28 446.17,726.27 	"/>
	<polygon class="st224" points="446.17,774.28 503.15,801.93 473.06,751.73 	"/>
	<polygon class="st229" points="446.17,809.38 470.78,868.5 398.31,840.07 	"/>
	<polygon class="st140" points="446.17,809.38 503.15,801.93 446.17,774.28 	"/>
	<polygon class="st230" points="503.15,801.93 495.85,846.6 446.17,809.38 	"/>
	<polygon class="st231" points="470.78,868.5 495.85,846.6 446.17,809.38 	"/>
	<polygon class="st140" points="470.78,868.5 468.96,922.88 495.85,846.6 	"/>
	<polygon class="st176" points="468.96,922.88 387.83,942.48 450.73,966.18 	"/>
	<polygon class="st232" points="436.83,899.63 470.78,868.5 398.31,840.07 	"/>
	<polygon class="st233" points="436.83,899.63 468.96,922.88 470.78,868.5 	"/>
	<polygon class="st128" points="387.83,942.48 468.96,922.88 436.83,899.63 	"/>
</g>
<g id="Capa_6">
	<polygon class="st234" points="-35.32,528.92 -68.39,586.62 -13.74,553.21 	"/>
	<polygon class="st235" points="-72.45,535.44 -50.58,555.54 -35.32,528.92 	"/>
	<polygon class="st236" points="-72.45,535.44 -125.26,539.39 -83.45,560.05 	"/>
	<polygon class="st237" points="-125.26,539.39 -135.45,568.71 -83.45,560.05 	"/>
	<polygon class="st238" points="-83.45,560.05 -50.58,555.54 -72.45,535.44 	"/>
	<polygon class="st239" points="-83.45,560.05 -68.39,586.62 -50.58,555.54 	"/>
	<polygon class="st240" points="-35.32,528.92 -31.5,485.37 -0.98,531.98 	"/>
	<polygon class="st241" points="-31.5,485.37 -45.65,502.77 -35.32,528.92 	"/>
	<polygon class="st242" points="-31.5,485.37 11.33,485.37 -0.98,531.98 	"/>
	<polygon class="st243" points="11.33,485.37 -46.79,452.94 -31.5,485.37 	"/>
	<polygon class="st244" points="-185.28,542.27 -135.45,568.71 -125.26,539.39 	"/>
	<polygon class="st245" points="-135.45,568.71 -68.39,586.62 -83.45,560.05 	"/>
	<polygon class="st246" points="-135.45,568.71 -145.47,595.3 -68.39,586.62 	"/>
	<polygon class="st247" points="-185.28,542.27 -206.55,564.87 -135.45,568.71 	"/>
	<polygon class="st240" points="-206.55,564.87 -145.47,595.3 -135.45,568.71 	"/>
	<polygon class="st245" points="-206.55,564.87 -214.75,586.62 -145.47,595.3 	"/>
	<polygon class="st248" points="-214.75,524.65 -206.55,564.87 -185.28,542.27 	"/>
	<polygon class="st249" points="-46.79,452.94 -79.68,481.65 -31.5,485.37 	"/>
	<polygon class="st250" points="-45.65,502.77 -79.68,481.65 -31.5,485.37 	"/>
	<polygon class="st242" points="-46.79,452.94 -101.92,430.49 -65.37,469.16 	"/>
	<polygon class="st242" points="-101.92,430.49 -135.45,433.79 -65.37,469.16 	"/>
	<polygon class="st251" points="-135.45,433.79 -175.1,445.19 -139.54,456.58 	"/>
	<polygon class="st252" points="-175.1,445.19 -212.47,469.16 -139.54,456.58 	"/>
	<polygon class="st242" points="-212.47,469.16 -241.65,495.33 -214.75,524.65 	"/>
	<polygon class="st250" points="-241.65,495.33 -256.23,538 -214.75,524.65 	"/>
	<polygon class="st253" points="-256.23,538 -206.55,564.87 -214.75,524.65 	"/>
	<polygon class="st246" points="-139.54,456.58 -65.37,469.16 -135.45,433.79 	"/>
	<polygon class="st253" points="-79.68,481.65 -102.47,462.87 -65.37,469.16 	"/>
	<polygon class="st254" points="-139.54,456.58 -116.45,477.25 -102.47,462.87 	"/>
	<polygon class="st255" points="-212.47,469.16 -198.04,508.85 -214.75,524.65 	"/>
	<polygon class="st253" points="-163.09,493.5 -212.47,469.16 -198.04,508.85 	"/>
	<polygon class="st256" points="-163.09,493.5 -139.54,456.58 -212.47,469.16 	"/>
	<polygon class="st253" points="-116.45,477.25 -139.54,456.58 -163.09,493.5 	"/>
	<polygon class="st257" points="-102.47,462.87 -116.45,477.25 -79.68,481.65 	"/>
	<polygon class="st248" points="11.33,485.37 66.72,519.48 -0.98,531.98 	"/>
	<polygon class="st242" points="66.72,519.48 135.76,502.77 119.81,534.07 	"/>
	<polygon class="st253" points="-13.74,553.21 -0.98,531.98 -35.32,528.92 	"/>
	<polygon class="st253" points="-0.98,531.98 56.45,564.87 66.72,519.48 	"/>
	<polygon class="st254" points="56.45,564.87 95.2,547.52 66.72,519.48 	"/>
	<polygon class="st258" points="-13.74,553.21 56.45,564.87 -0.98,531.98 	"/>
	<polygon class="st259" points="-13.74,553.21 -5.14,611.1 27.44,560.05 	"/>
	<polygon class="st260" points="-5.14,611.1 -59.32,637.54 -0.98,653.04 	"/>
	<polygon class="st261" points="-59.32,637.54 -69.65,686.31 -0.98,653.04 	"/>
	<polygon class="st240" points="-69.65,686.31 -45.65,720.95 -33.81,668.94 	"/>
	<polygon class="st249" points="-33.81,668.94 6.85,690.87 -45.65,720.95 	"/>
	<polygon class="st262" points="-5.14,611.1 48.7,620.93 27.44,560.05 	"/>
	<polygon class="st263" points="95.2,547.52 119.81,534.07 66.72,519.48 	"/>
	<polygon class="st264" points="95.2,547.52 130.6,576.92 119.81,534.07 	"/>
	<polygon class="st265" points="-0.98,653.04 48.7,620.93 -5.14,611.1 	"/>
	<polygon class="st266" points="56.45,564.87 130.6,576.92 95.2,547.52 	"/>
	<polygon class="st267" points="56.45,564.87 48.7,620.93 27.44,560.05 	"/>
	<polygon class="st253" points="130.6,576.92 135.76,630.25 56.45,564.87 	"/>
	<path class="st237" d="M135.76,630.25c0,0,53.71,52.87,53.07,51.51s-10.56-41.02-10.56-41.02L135.76,630.25z"/>
	<polygon class="st249" points="169.84,663.64 163.32,719.13 188.83,681.75 	"/>
	<polygon class="st268" points="166.58,691.38 107.5,686.31 163.32,719.13 	"/>
	<polygon class="st249" points="107.5,686.31 50.53,673.09 66.72,705 	"/>
	<polygon class="st242" points="50.53,673.09 6.85,690.87 66.72,705 	"/>
	<polygon class="st269" points="48.7,620.93 135.76,630.25 56.45,564.87 	"/>
	<polygon class="st270" points="135.76,630.25 166.58,691.38 169.84,663.64 	"/>
	<polygon class="st271" points="135.76,630.25 111.73,666.26 166.58,691.38 	"/>
	<polygon class="st253" points="107.5,686.31 111.73,666.26 166.58,691.38 	"/>
	<polygon class="st238" points="48.7,620.93 111.73,666.26 135.76,630.25 	"/>
	<polygon class="st268" points="50.53,673.09 111.73,666.26 107.5,686.31 	"/>
	<polygon class="st272" points="6.85,690.87 -0.98,653.04 -33.81,668.94 	"/>
	<polygon class="st245" points="48.7,620.93 50.53,673.09 -0.98,653.04 	"/>
	<polygon class="st268" points="50.53,673.09 -0.98,653.04 6.85,690.87 	"/>
	<polygon class="st273" points="48.7,620.93 111.73,666.26 50.53,673.09 	"/>
	<polygon class="st274" points="132.9,600.68 178.27,640.73 135.76,630.25 	"/>
	<polygon class="st243" points="135.76,502.77 155.58,462.87 204.59,487.81 	"/>
	<polygon class="st240" points="159.92,523.81 135.76,502.77 204.59,487.81 	"/>
	<polygon class="st249" points="155.58,462.87 219.18,436.07 183.84,477.25 	"/>
	<polygon class="st275" points="204.59,487.81 219.18,436.07 183.84,477.25 	"/>
	<polygon class="st276" points="219.18,436.07 237.18,482.79 204.59,487.81 	"/>
	<polygon class="st241" points="159.92,523.81 119.81,534.07 135.76,502.77 	"/>
	<polygon class="st273" points="119.81,534.07 159.92,562.22 159.92,523.81 	"/>
	<polygon class="st277" points="159.92,562.22 192.97,534.07 159.92,523.81 	"/>
	<polygon class="st255" points="159.92,562.22 220.89,595.3 192.97,534.07 	"/>
	<polygon class="st264" points="233.76,532.7 192.97,534.07 207.01,564.87 	"/>
	<polygon class="st239" points="220.89,595.3 271.26,574.92 207.01,564.87 	"/>
	<polygon class="st238" points="233.76,532.7 271.26,574.92 207.01,564.87 	"/>
	<polygon class="st246" points="267.72,541.82 271.26,574.92 233.76,532.7 	"/>
	<polygon class="st242" points="219.18,436.07 282.54,451.47 237.18,482.79 	"/>
	<polygon class="st238" points="275.93,495.33 282.54,451.47 237.18,482.79 	"/>
	<polygon class="st251" points="351.82,503.08 310.11,520.62 333.81,544.78 	"/>
	<polygon class="st245" points="351.82,503.08 282.54,451.47 310.11,520.62 	"/>
	<polygon class="st278" points="275.93,495.33 282.54,451.47 310.11,520.62 	"/>
	<polygon class="st242" points="351.82,503.08 367.32,495.33 282.54,451.47 	"/>
	<polygon class="st279" points="333.81,544.78 370.96,518.57 351.82,503.08 	"/>
	<polygon class="st280" points="271.26,574.92 333.81,544.78 267.72,541.82 	"/>
	<polygon class="st253" points="220.89,595.3 302.14,597.56 271.26,574.92 	"/>
	<polygon class="st238" points="333.81,544.78 302.14,597.56 271.26,574.92 	"/>
	<polygon class="st281" points="130.6,576.92 159.92,562.22 119.81,534.07 	"/>
</g>
<g id="Capa_7">
	<polygon class="st282" points="-363.2,265.14 -388.58,352.66 -299.38,257.24 	"/>
	<polygon class="st163" points="-388.58,352.66 -388.19,435.39 -315.72,419.66 	"/>
	<polygon class="st163" points="-288.14,415.79 -287.23,347.87 -315.72,419.66 	"/>
	<polygon class="st283" points="-388.58,352.66 -315.72,419.66 -343.14,304.05 	"/>
	<polygon class="st284" points="-343.14,304.05 -287.23,347.87 -315.72,419.66 	"/>
	<polygon class="st285" points="-299.38,257.24 -287.23,347.87 -343.14,304.05 	"/>
	<polygon class="st286" points="-288.14,415.79 -198.04,401.89 -287.23,347.87 	"/>
	<polygon class="st287" points="-234.96,244.48 -292.98,304.95 -299.38,257.24 	"/>
	<polygon class="st288" points="-287.23,347.87 -234.96,244.48 -292.98,304.95 	"/>
	<polygon class="st289" points="-198.04,401.89 -200.93,321.89 -287.23,347.87 	"/>
	<polygon class="st290" points="-234.96,244.48 -149.27,242.66 -200.93,321.89 	"/>
	<polygon class="st291" points="-287.23,347.87 -200.93,321.89 -234.96,244.48 	"/>
	<polygon class="st292" points="500.41,452.48 486.74,361.86 473.06,438.35 	"/>
	<polygon class="st283" points="443.89,435.16 486.74,361.86 473.06,438.35 	"/>
	<polygon class="st293" points="416.09,426.5 486.74,361.86 443.89,435.16 	"/>
	<polygon class="st294" points="405,257.24 486.74,361.86 467.9,284.59 	"/>
	<polygon class="st295" points="486.74,361.86 396.26,332.83 405,257.24 	"/>
	<polygon class="st296" points="396.26,332.83 416.09,426.5 486.74,361.86 	"/>
	<polygon class="st297" points="344.83,253.29 396.26,332.83 405,257.24 	"/>
	<polygon class="st163" points="416.09,426.5 324.93,419.66 402.41,361.89 	"/>
	<polygon class="st163" points="-198.04,401.89 -102.81,400.1 -200.93,321.89 	"/>
	<polygon class="st298" points="396.26,332.83 324.93,419.66 402.41,361.89 	"/>
	<polygon class="st299" points="344.83,253.29 317.18,335.57 396.26,332.83 	"/>
	<polygon class="st283" points="324.93,419.66 317.18,335.57 396.26,332.83 	"/>
	<polygon class="st300" points="265.21,250.56 317.18,335.57 344.83,253.29 	"/>
	<polygon class="st301" points="317.18,335.57 244.48,332.83 324.93,419.66 	"/>
	<polygon class="st293" points="324.93,419.66 226.97,398.51 244.48,332.83 	"/>
	<polygon class="st302" points="244.48,332.83 151.49,394.19 226.97,398.51 	"/>
	<polygon class="st303" points="151.49,394.19 155.58,329.41 244.48,332.83 	"/>
	<polygon class="st304" points="265.21,250.56 244.48,332.83 317.18,335.57 	"/>
	<polygon class="st305" points="-149.27,242.66 -114.95,335.57 -200.93,321.89 	"/>
	<polygon class="st306" points="-94.57,237.49 -114.95,335.57 -149.27,242.66 	"/>
	<polygon class="st307" points="-114.95,335.57 -35.32,286.53 -94.57,237.49 	"/>
	<polygon class="st308" points="-35.32,286.53 -4.02,244.48 -94.57,237.49 	"/>
	<polygon class="st309" points="-35.32,286.53 4.37,368.38 -4.02,244.48 	"/>
	<polygon class="st310" points="-0.52,296.18 77.72,237.49 -4.02,244.48 	"/>
	<polygon class="st283" points="-0.52,296.18 96.11,286.53 77.72,237.49 	"/>
	<polygon class="st311" points="4.37,368.38 96.11,286.53 -0.52,296.18 	"/>
	<polygon class="st308" points="96.11,286.53 145.49,248.13 77.72,237.49 	"/>
	<polygon class="st312" points="197.75,248.13 155.58,329.41 244.48,332.83 	"/>
	<polygon class="st313" points="265.21,250.56 197.75,248.13 244.48,332.83 	"/>
	<polygon class="st314" points="145.49,248.13 155.58,329.41 96.11,286.53 	"/>
	<polygon class="st315" points="197.75,248.13 145.49,248.13 155.58,329.41 	"/>
	<polygon class="st292" points="-114.95,335.57 -102.81,400.1 -200.93,321.89 	"/>
	<polygon class="st306" points="40.2,336.41 155.58,329.41 96.11,286.53 	"/>
	<polygon class="st316" points="151.49,394.19 40.2,336.41 155.58,329.41 	"/>
	<polygon class="st163" points="-35.32,286.53 -102.81,400.1 -114.95,335.57 	"/>
	<polygon class="st302" points="4.37,368.38 -102.81,400.1 -35.32,286.53 	"/>
	<polygon class="st317" points="151.49,394.19 4.37,368.38 40.2,336.41 	"/>
	<polygon class="st163" points="-102.81,400.1 -10.09,411.46 4.37,368.38 	"/>
	<polygon class="st284" points="151.49,394.19 -10.09,411.46 4.37,368.38 	"/>
</g>
<g id="Capa_8">
	<polygon class="st318" points="-288.14,415.79 -212.47,469.16 -198.04,401.89 	"/>
	<polygon class="st319" points="-212.47,469.16 -287.23,485.37 -288.14,415.79 	"/>
	<polygon class="st320" points="-241.65,495.33 -287.23,485.37 -212.47,469.16 	"/>
	<polygon class="st209" points="-256.23,538 -287.23,485.37 -241.65,495.33 	"/>
	<polygon class="st120" points="-291.33,547.52 -256.23,538 -287.23,485.37 	"/>
	<polygon class="st138" points="-206.55,564.87 -291.33,547.52 -256.23,538 	"/>
	<polygon class="st143" points="-214.75,586.62 -291.33,547.52 -206.55,564.87 	"/>
	<polygon class="st321" points="-5.14,611.1 -68.39,586.62 -13.74,553.21 	"/>
	<polygon class="st134" points="-59.32,637.54 -68.39,586.62 -5.14,611.1 	"/>
	<polygon class="st322" points="-145.47,595.3 -59.32,637.54 -68.39,586.62 	"/>
	<polygon class="st192" points="-69.65,686.31 -145.47,595.3 -59.32,637.54 	"/>
	<polygon class="st323" points="-301.93,608.37 -214.75,586.62 -291.33,547.52 	"/>
	<polygon class="st176" points="-265.35,931.99 -214.75,986.46 -265.35,970.28 	"/>
	<polygon class="st228" points="-265.35,931.99 -121.01,982.13 -214.75,986.46 	"/>
	<polygon class="st178" points="-121.01,982.13 -100.41,1006.97 -214.75,986.46 	"/>
	<polygon class="st324" points="-214.75,586.62 -301.93,673.09 -301.93,608.37 	"/>
	<polygon class="st120" points="-305.42,729.61 -231.39,720.95 -301.93,673.09 	"/>
	<polygon class="st325" points="-214.75,586.62 -231.39,720.95 -301.93,673.09 	"/>
	<polygon class="st326" points="-145.47,595.3 -223.49,657.15 -214.75,586.62 	"/>
	<polygon class="st152" points="-69.65,686.31 -223.49,657.15 -145.47,595.3 	"/>
	<polygon class="st229" points="-231.39,720.95 -135.45,673.84 -223.49,657.15 	"/>
	<polygon class="st327" points="-69.65,686.31 -114.95,734.2 -45.65,720.95 	"/>
	<polygon class="st328" points="-231.39,720.95 -69.65,686.31 -135.45,673.84 	"/>
	<polygon class="st324" points="-114.95,734.2 -231.39,720.95 -69.65,686.31 	"/>
	<polygon class="st194" points="-45.65,720.95 -31.97,740.4 -69.65,777.17 	"/>
	<polygon class="st223" points="-114.95,734.2 -69.65,777.17 -45.65,720.95 	"/>
	<polygon class="st329" points="-102.47,800.57 -114.95,734.2 -69.65,777.17 	"/>
	<polygon class="st179" points="-231.39,720.95 -294.98,799.88 -305.42,729.61 	"/>
	<polygon class="st128" points="-283.12,867.65 -227.06,834.45 -294.98,799.88 	"/>
	<polygon class="st330" points="-231.39,720.95 -227.06,834.45 -294.98,799.88 	"/>
	<polygon class="st189" points="-114.95,734.2 -228.94,785.07 -231.39,720.95 	"/>
	<polygon class="st138" points="-102.47,800.57 -228.94,785.07 -114.95,734.2 	"/>
	<polygon class="st120" points="-227.06,834.45 -102.47,800.57 -228.94,785.07 	"/>
	<polygon class="st189" points="-120.1,832.47 -227.06,834.45 -102.47,800.57 	"/>
	<polygon class="st221" points="-101.27,844.63 -120.1,832.47 -86.06,872.05 	"/>
	<polygon class="st331" points="-120.1,832.47 -165.71,888.92 -86.06,872.05 	"/>
	<polygon class="st332" points="-227.06,834.45 -165.71,888.92 -283.12,867.65 	"/>
	<polygon class="st333" points="-120.1,832.47 -227.06,834.45 -165.71,888.92 	"/>
	<polygon class="st186" points="-165.71,888.92 -265.35,931.99 -283.12,867.65 	"/>
	<polygon class="st334" points="-121.01,982.13 -212.47,909.14 -265.35,931.99 	"/>
	<polygon class="st335" points="-165.71,888.92 -121.01,982.13 -212.47,909.14 	"/>
	<polygon class="st336" points="-86.06,872.05 -59.32,921.05 -165.71,888.92 	"/>
	<polygon class="st132" points="-121.01,982.13 -59.32,921.05 -165.71,888.92 	"/>
	<polygon class="st337" points="-50.58,876.84 -86.06,872.05 -59.32,921.05 	"/>
	<polygon class="st193" points="-13.51,883.22 -59.32,921.05 -50.58,876.84 	"/>
	<polygon class="st203" points="-121.01,982.13 8.68,966.18 -59.32,921.05 	"/>
	<polygon class="st338" points="-13.51,883.22 -59.32,921.05 8.68,966.18 	"/>
	<polygon class="st179" points="8.68,966.18 -100.41,1006.97 -121.01,982.13 	"/>
	<polygon class="st181" points="50.53,998.08 8.68,966.18 -100.41,1006.97 	"/>
	<polygon class="st335" points="91.78,875.86 0.48,935.52 -13.51,883.22 	"/>
	<polygon class="st339" points="8.68,966.18 79.02,955.69 0.48,935.52 	"/>
	<polygon class="st193" points="91.78,875.86 79.02,955.69 0.48,935.52 	"/>
	<polygon class="st192" points="154,883.22 166.58,931.99 91.78,875.86 	"/>
	<polygon class="st144" points="79.02,955.69 166.58,931.99 91.78,875.86 	"/>
	<polygon class="st197" points="198.21,888.92 166.58,931.99 154,883.22 	"/>
	<polygon class="st340" points="50.53,998.08 79.02,955.69 8.68,966.18 	"/>
	<polygon class="st341" points="166.58,931.99 182.86,1006.97 79.02,955.69 	"/>
	<polygon class="st128" points="50.53,998.08 182.86,1006.97 79.02,955.69 	"/>
	<polygon class="st181" points="173.16,962.3 280.71,998.08 182.86,1006.97 	"/>
	<polygon class="st220" points="198.21,888.92 173.16,962.3 166.58,931.99 	"/>
	<polygon class="st342" points="280.71,998.08 387.83,942.48 366.4,982.13 	"/>
	<polygon class="st343" points="6.85,690.87 -31.97,740.4 -45.65,720.95 	"/>
	<polygon class="st322" points="19.38,715.48 6.85,690.87 -31.97,740.4 	"/>
	<polygon class="st344" points="66.72,705 19.38,715.48 6.85,690.87 	"/>
	<polygon class="st138" points="70.13,731.59 66.72,705 19.38,715.48 	"/>
	<polygon class="st184" points="107.5,686.31 70.13,731.59 66.72,705 	"/>
	<polygon class="st119" points="118.14,715.48 107.5,686.31 70.13,731.59 	"/>
	<polygon class="st333" points="163.32,719.13 118.14,715.48 107.5,686.31 	"/>
	<polygon class="st119" points="157.34,737.07 118.14,715.48 163.32,719.13 	"/>
	<polygon class="st345" points="188.83,681.75 203.66,749.06 163.32,719.13 	"/>
	<polygon class="st149" points="195.63,778.69 163.32,719.13 157.34,737.07 	"/>
	<polygon class="st346" points="203.66,749.06 163.32,719.13 195.63,778.69 	"/>
	<polygon class="st347" points="159.92,562.22 132.9,600.68 130.6,576.92 	"/>
	<polygon class="st348" points="178.27,640.73 159.92,562.22 132.9,600.68 	"/>
	<polygon class="st203" points="220.89,595.3 159.92,562.22 178.27,640.73 	"/>
	<polygon class="st333" points="198.21,888.92 267.72,955.69 173.16,962.3 	"/>
	<polygon class="st324" points="280.71,998.08 267.72,955.69 173.16,962.3 	"/>
	<polygon class="st186" points="387.83,942.48 267.72,955.69 280.71,998.08 	"/>
	<polygon class="st179" points="-198.04,401.89 -175.1,445.19 -212.47,469.16 	"/>
	<polygon class="st221" points="416.09,426.5 282.54,451.47 367.32,495.33 	"/>
	<polygon class="st184" points="416.09,484.84 367.32,495.33 416.09,426.5 	"/>
	<polygon class="st233" points="370.96,518.57 367.32,495.33 351.82,503.08 	"/>
	<polygon class="st349" points="413.35,541.82 367.32,495.33 416.09,484.84 	"/>
	<polygon class="st124" points="370.96,518.57 413.35,541.82 367.32,495.33 	"/>
	<polygon class="st125" points="333.81,544.78 413.35,541.82 370.96,518.57 	"/>
	<polygon class="st350" points="220.89,595.3 239.13,668.94 178.27,640.73 	"/>
	<polygon class="st200" points="188.83,681.75 239.13,668.94 178.27,640.73 	"/>
	<polygon class="st337" points="302.14,597.56 239.13,668.94 220.89,595.3 	"/>
	<polygon class="st117" points="333.81,544.78 413.35,597.88 413.35,541.82 	"/>
	<polygon class="st149" points="302.14,597.56 376.58,573.33 333.81,544.78 	"/>
	<polygon class="st333" points="413.35,597.88 302.14,597.56 376.58,573.33 	"/>
	<polygon class="st144" points="416.09,647.11 302.14,597.56 413.35,597.88 	"/>
	<polygon class="st125" points="239.13,668.94 327.77,689.05 302.14,597.56 	"/>
	<polygon class="st351" points="203.66,749.06 239.13,668.94 188.83,681.75 	"/>
	<polygon class="st148" points="327.77,689.05 416.09,647.11 302.14,597.56 	"/>
	<polygon class="st352" points="248.5,821.84 203.66,749.06 195.63,778.69 	"/>
	<polygon class="st125" points="327.77,689.05 413.35,705.91 416.09,647.11 	"/>
	<polygon class="st231" points="403.78,783.4 327.77,689.05 413.35,705.91 	"/>
	<polygon class="st187" points="387.83,899.63 264.99,841.11 387.83,942.48 	"/>
	<polygon class="st229" points="267.72,955.69 317.86,884.74 387.83,942.48 	"/>
	<polygon class="st176" points="198.21,888.92 317.86,884.74 267.72,955.69 	"/>
	<polygon class="st353" points="228.75,858.91 317.86,884.74 198.21,888.92 	"/>
	<polygon class="st225" points="248.5,821.84 264.99,841.11 237.56,840.07 	"/>
	<polygon class="st225" points="228.75,858.91 264.99,841.11 237.56,840.07 	"/>
	<polygon class="st354" points="317.86,884.74 264.99,841.11 228.75,858.91 	"/>
	<polygon class="st229" points="203.66,749.06 327.77,689.05 239.13,668.94 	"/>
	<polygon class="st222" points="248.5,821.84 267.96,717.97 203.66,749.06 	"/>
	<polygon class="st184" points="398.31,840.07 264.99,841.11 387.83,899.63 	"/>
	<polygon class="st183" points="267.96,717.97 327.77,689.05 248.5,821.84 	"/>
	<polygon class="st355" points="398.31,840.07 403.78,783.4 264.99,841.11 	"/>
	<polygon class="st337" points="248.5,821.84 349.31,805.73 264.99,841.11 	"/>
	<polygon class="st199" points="327.77,689.05 349.31,805.73 403.78,783.4 	"/>
	<polygon class="st144" points="284.7,761.2 349.31,805.73 327.77,689.05 	"/>
	<polygon class="st356" points="248.5,821.84 284.7,761.2 349.31,805.73 	"/>
	<polygon class="st357" points="324.93,419.66 282.54,451.47 416.09,426.5 	"/>
	<polygon class="st233" points="-175.1,445.19 -102.81,400.1 -198.04,401.89 	"/>
	<polygon class="st187" points="-102.81,400.1 -101.92,430.49 -135.45,433.79 -175.1,445.19 	"/>
	<polygon class="st358" points="-102.81,400.1 -46.79,452.94 -101.92,430.49 	"/>
	<polygon class="st186" points="-10.09,411.46 -67.02,433.86 -102.81,400.1 	"/>
	<polygon class="st339" points="-46.79,452.94 -10.09,411.46 -67.02,433.86 	"/>
	<polygon class="st127" points="11.33,485.37 -10.09,411.46 -46.79,452.94 	"/>
	<polygon class="st322" points="219.18,436.07 324.93,419.66 282.54,451.47 	"/>
	<polygon class="st359" points="226.97,398.51 219.18,436.07 324.93,419.66 	"/>
	<polygon class="st155" points="151.49,394.19 219.18,436.07 226.97,398.51 	"/>
	<polygon class="st232" points="151.49,394.19 155.58,462.87 219.18,436.07 	"/>
	<polygon class="st360" points="135.76,502.77 151.49,394.19 155.58,462.87 	"/>
	<path class="st146" d="M66.72,519.48"/>
	<polygon class="st227" points="11.33,485.37 100.59,399.63 -10.09,411.46 	"/>
	<polygon class="st333" points="66.72,519.48 68.47,430.49 11.33,485.37 	"/>
	<polygon class="st176" points="151.49,394.19 100.59,399.63 135.76,502.77 	"/>
	<polygon class="st330" points="68.47,430.49 135.76,502.77 100.59,399.63 	"/>
	<polygon class="st220" points="66.72,519.48 135.76,502.77 68.47,430.49 	"/>
</g>
<g id="Capa_10">
	<rect x="897.77" y="394.3" class="st361" width="1047.04" height="292.01"/>
	<g>
		<g>
			<path class="st362" d="M1440.21,556.22c-11.28,0-22.38,0-33.61,0c0-41.56,0-83,0-124.66c0.71-0.06,1.38-0.16,2.04-0.16
				c11.56-0.01,23.11,0.02,34.67-0.05c1.48-0.01,2.21,0.59,2.92,1.92c12.14,22.72,24.32,45.41,36.5,68.1
				c0.35,0.66,0.71,1.3,1.3,2.38c0-24.28,0-48.1,0-72.14c11.12,0,22.33,0,33.68,0c0,41.52,0,82.96,0,124.75c-0.78,0-1.51,0-2.25,0
				c-11.63,0-23.26-0.04-34.88,0.04c-1.55,0.01-2.34-0.57-3.09-2c-11.9-22.6-23.84-45.18-35.78-67.76c-0.37-0.71-0.78-1.41-1.49-2.7
				C1440.21,508.41,1440.21,532.22,1440.21,556.22z"/>
			<path class="st362" d="M1738.07,556.25c-0.97,0.05-1.58,0.11-2.19,0.11c-12.19,0-24.38-0.03-36.57,0.04
				c-1.45,0.01-2.21-0.5-2.9-1.88c-6.7-13.33-13.51-26.6-20.17-39.95c-0.94-1.89-2.02-2.55-3.92-2.43
				c-2.57,0.16-5.15,0.04-7.97,0.04c0,14.78,0,29.32,0,44.01c-12.25,0-24.25,0-36.4,0c0-41.5,0-82.93,0-124.57
				c0.5-0.07,1.02-0.22,1.54-0.22c21.86,0.02,43.72-0.01,65.57,0.12c5.68,0.03,11.33,0.79,16.72,2.91
				c12.28,4.83,18.69,14.85,21.08,28.32c1.19,6.73,1.05,13.45-0.76,20.06c-2.62,9.51-8.12,16.31-16.4,20.47
				c-1.83,0.92-3.72,1.71-5.78,2.65C1719.29,522.7,1728.58,539.29,1738.07,556.25z M1664.36,486.93c7.55-0.29,14.88-0.36,22.19-0.96
				c3.64-0.3,6.77-2.32,8.79-5.9c5.24-9.36,0.35-21.07-9.63-22.1c-6.94-0.71-13.98-0.33-20.97-0.43c-0.11,0-0.21,0.19-0.38,0.34
				C1664.36,467.3,1664.36,476.78,1664.36,486.93z"/>
			<path class="st362" d="M1391.9,458.77c-18.27,0-36.31,0-54.47,0c0,6.25,0,12.29,0,18.61c17.02,0,33.93,0,50.97,0
				c0,9.07,0,17.84,0,26.9c-16.99,0-33.96,0-51.24,0c0,1.69,0,3.11,0,4.52c0,6.08,0.06,12.16-0.04,18.23
				c-0.03,1.91,0.51,2.43,2.25,2.43c18.28-0.06,36.56-0.04,54.85-0.04c0.83,0,1.66,0,2.63,0c0,8.96,0,17.74,0,26.73
				c-31.89,0-63.84,0-95.91,0c0-41.46,0-82.9,0-124.55c30.27,0,60.54,0,90.95,0C1391.9,440.57,1391.9,449.49,1391.9,458.77z"/>
			<path class="st362" d="M1620.07,462.01c-9.01,0-17.83,0.07-26.66-0.05c-2.02-0.03-2.57,0.59-2.56,2.78
				c0.06,29.47,0.05,58.93,0.05,88.4c0,0.97,0,1.94,0,3.06c-12.14,0-24.06,0-36.25,0c0-31.34,0-62.58,0-94.1
				c-9.86,0-19.48,0-29.26,0c0-10.32,0-20.36,0-30.56c31.56,0,63.05,0,94.68,0C1620.07,441.63,1620.07,451.67,1620.07,462.01z"/>
			<path class="st362" d="M1785.32,465.2c-9.83,14.95-10.31,30.99-5.3,47.49c3.02,9.95,10.14,14.83,19.64,15.93
				c16.91,1.97,24.88-11.49,27.03-23.71c1.38-7.82,1.46-15.68,0.2-23.56c-0.11-0.66,0.33-1.86,0.84-2.14
				c10.12-5.71,20.28-11.32,30.49-16.99c0.25,0.3,0.48,0.48,0.59,0.72c10.31,24.54,6.69,60.87-13.56,80.95
				c-9.56,9.49-20.96,14.46-33.68,15.93c-11.89,1.38-23.64,0.59-35-3.97c-5.83-2.34-11.19-5.6-15.84-10.09
				c-1.08-1.05-2.02-2.55-2.47-4.04c-5.27-17.25-3.98-34.17,2.82-50.58C1765.99,479.27,1774.2,470.75,1785.32,465.2z"/>
			<path class="st362" d="M1220.03,464.47c-9.53,14.54-9.42,30.29-4.94,46.36c2.36,8.45,7.63,14.49,15.77,16.82
				c11.14,3.18,22.59-2.84,27.37-14.22c0.72-1.72,1.31-3.51,2.04-5.49c10.32,5.38,20.57,10.72,30.98,16.15
				c-3.21,6.75-6.8,12.94-11.75,18.1c-9.48,9.88-20.91,15.4-33.83,17.21c-11.95,1.68-23.77,1-35.12-3.97
				c-1.23-0.53-2.42-1.18-3.64-1.77c-9.84-4.72-15.01-13.04-15.77-24.55c-0.95-14.4,0.72-28.37,6.85-41.39
				c4.64-9.87,11.45-17.5,20.6-22.58C1219.07,464.89,1219.57,464.68,1220.03,464.47z"/>
		</g>
		<path class="st363" d="M1855.52,459.56c-9.54,5.29-18.81,10.43-28.2,15.63c-0.82-1.77-1.48-3.51-2.39-5.09
			c-6.6-11.48-16.07-15.68-28.36-12.77c-10.63,2.51-20.15,7.39-27.94,15.67c-8.56,9.1-13.37,20.41-15.57,33.1
			c-1.54,8.85-1.81,17.75-0.46,27.33c-0.98-1.67-1.71-2.83-2.36-4.04c-0.75-1.37-1.45-2.77-2.12-4.19
			c-0.63-1.35-1.22-2.73-1.78-4.12c-4.16-10.28-5.8-21.09-4.88-32.19c1.42-17.1,6.25-32.77,17.98-45.09
			c7.51-7.89,16.65-12.45,26.83-14.48c15.13-3.02,29.93-1.56,44.19,4.81c6.57,2.93,11.93,7.87,16.67,13.51
			c2.58,3.07,4.79,6.5,7.14,9.79C1854.72,458.01,1855.03,458.69,1855.52,459.56z"/>
		<path class="st363" d="M1261.81,475.55c-2.05-3.66-3.76-7.42-6.06-10.68c-4.32-6.12-10.03-9.7-17.36-9.8
			c-11.41-0.16-21.27,4.43-30.08,11.84c-11.7,9.84-17.5,23.4-20.23,38.81c-1.45,8.2-1.52,16.47-1.05,25.14
			c-3.68-6.01-6.04-12.28-7.65-18.87c-3.98-16.32-1.87-32.08,3.98-47.46c2.77-7.29,6.61-13.86,11.74-19.4
			c8.12-8.78,18.03-13.73,29.36-15.51c12.58-1.97,24.75-0.35,36.59,4.56c4.83,2,9.07,5.15,12.75,8.93
			c4.74,4.87,9.04,10.25,13.5,15.43c0.97,1.12,1.15,2.16-0.41,3.03c-8.2,4.57-16.38,9.18-24.56,13.78
			C1262.11,475.48,1261.83,475.54,1261.81,475.55z"/>
		<g>
			<path class="st364" d="M1269.34,588.9c0-7.09,0-14.18,0-21.39c2.49,0,4.83,0,7.31,0c0,11.75,0,23.41,0,35.39
				c-2.41,0-4.77,0.1-7.11-0.08c-0.55-0.04-1.19-0.92-1.55-1.58c-3.22-5.86-6.39-11.77-9.58-17.66c-0.38-0.7-0.78-1.39-1.53-1.98
				c0,6.97,0,13.94,0,21.12c-2.5,0-4.96,0-7.52,0c0-11.79,0-23.44,0-35.34c2.47,0,4.84-0.1,7.19,0.07c0.55,0.04,1.19,0.92,1.54,1.57
				c3.2,5.88,6.35,11.8,9.52,17.7c0.41,0.77,0.85,1.53,1.28,2.29C1269.03,588.98,1269.18,588.94,1269.34,588.9z"/>
			<path class="st364" d="M1765.09,602.68c0-11.72,0-23.38,0-35.69c6.24,0.41,12.43,0.28,18.43,1.35
				c6.29,1.12,10.15,6.31,10.61,13.21c0.22,3.35,0.01,6.86-0.69,10.13c-1.41,6.59-5.74,10.29-11.75,10.96
				c-5.2,0.58-10.49,0.25-15.74,0.3C1765.7,602.95,1765.43,602.79,1765.09,602.68z M1773.16,596.22c2.45-0.21,4.54-0.25,6.59-0.58
				c3.33-0.54,5.5-2.77,6.09-6.31c0.39-2.42,0.45-4.99,0.16-7.43c-0.53-4.34-2.98-6.73-6.95-7.22c-1.52-0.19-3.09-0.17-4.61-0.03
				c-0.45,0.04-1.2,0.83-1.21,1.29C1773.13,582.54,1773.16,589.13,1773.16,596.22z"/>
			<path class="st364" d="M1454.84,603.24c0-12.23,0-23.88,0-35.89c6.56,0.4,13.15-0.98,19.57,1.22c6.07,2.08,8.95,7.03,9.5,13.61
				c0.23,2.68,0.07,5.49-0.4,8.14c-1.14,6.52-4.72,11.09-10.82,12.01C1466.86,603.19,1460.89,602.97,1454.84,603.24z
				 M1462.86,596.23c2.48-0.22,4.58-0.23,6.62-0.6c3.49-0.63,5.67-2.94,6.16-6.75c0.3-2.37,0.35-4.86,0-7.21
				c-0.24-1.62-1.11-3.27-2.09-4.57c-1.66-2.19-8.35-3.99-9.89-2.24c-1.07,1.22-0.59,4.03-0.79,6.13c-0.03,0.3-0.01,0.6-0.01,0.91
				C1462.86,586.51,1462.86,591.12,1462.86,596.23z"/>
			<path class="st364" d="M1549.79,602.92c0-12.06,0-23.66,0-35.55c3.22,0,6.35-0.04,9.48,0.01c3.42,0.07,6.89-0.12,10.25,0.43
				c4.84,0.78,7.67,4.3,8.2,9.25c0.59,5.53-1.13,8.82-5.87,11.24c-0.19,0.09-0.35,0.26-0.75,0.56c2.4,4.54,4.79,9.09,7.4,14.02
				c-2.98,0-5.61,0.08-8.22-0.07c-0.49-0.02-1.05-0.87-1.37-1.46c-1.75-3.28-3.43-6.61-5.16-9.91c-0.63-1.2-4.77-2.09-5.63-1.12
				c-0.36,0.4-0.41,1.24-0.42,1.9c-0.05,2.96-0.08,5.93,0,8.88c0.03,1.4-0.46,1.88-1.72,1.84
				C1553.97,602.87,1551.95,602.92,1549.79,602.92z M1557.64,578.7c0,1.21-0.09,2.43,0.05,3.62c0.06,0.51,0.59,1.36,0.92,1.37
				c2.57,0.05,5.17,0.17,7.71-0.2c2.36-0.34,3.62-2.53,3.5-5.13c-0.14-2.73-1.48-4.32-4.02-4.62c-1.17-0.13-2.36-0.06-3.55-0.06
				C1557.63,573.68,1557.63,573.68,1557.64,578.7z"/>
			<path class="st364" d="M1387.75,567.08c5.77,0.32,11.77,0.06,17.56,1.12c8.57,1.57,11.67,9.16,11.23,18.06
				c-0.13,2.61-0.69,5.29-1.58,7.71c-2.02,5.45-6.16,8.25-11.37,8.73c-4.87,0.44-9.79,0.27-14.69,0.22c-0.53,0-1.52-0.94-1.53-1.44
				c-0.07-11.08-0.04-22.16-0.02-33.25C1387.35,568.03,1387.49,567.82,1387.75,567.08z M1395.32,585.24c0,1.97,0,3.93,0,5.9
				c0,5.49,0.13,5.58,5.3,4.82c3.52-0.52,6.47-2.02,7.27-6.04c0.52-2.61,0.67-5.44,0.35-8.08c-0.54-4.44-3.29-6.87-7.42-7.21
				c-1.32-0.11-2.65,0.02-3.98-0.05c-1.22-0.06-1.56,0.57-1.53,1.79C1395.36,579.33,1395.32,582.28,1395.32,585.24z"/>
			<path class="st364" d="M1798.12,584.91c-0.05-9.42,4.89-16.64,12.46-18.31c10.54-2.34,19.67,5.22,20.16,16.91
				c0.11,2.75-0.16,5.66-0.92,8.28c-2.53,8.74-9.72,13.22-18.46,11.86c-7.31-1.14-12.78-7.93-13.24-16.46
				C1798.09,586.43,1798.12,585.67,1798.12,584.91z M1814.45,573.49c-3.48,0.03-5.8,1.73-7.22,4.86c-1.63,3.57-1.66,7.33-0.78,11.1
				c1.05,4.42,4.15,7.13,7.92,7.12c3.79-0.02,6.88-2.73,7.96-7.09c0.91-3.64,0.68-7.23-0.69-10.69
				C1820.26,575.3,1817.74,573.56,1814.45,573.49z"/>
			<path class="st364" d="M1227.31,603.84c-9.77,0.02-16.4-7.56-16.41-18.8c-0.01-11.08,6.63-18.76,16.23-18.75
				c9.94,0.01,16.54,7.52,16.62,18.91C1243.82,595.94,1236.88,603.81,1227.31,603.84z M1236.11,585.31
				c-0.62-2.48-0.97-4.9-1.84-7.08c-1.21-3.02-3.59-4.54-6.66-4.71c-3.17-0.18-5.66,1.19-7.15,4.2c-2.34,4.73-2.37,9.63-0.07,14.38
				c1.4,2.89,3.73,4.46,6.82,4.46c3.16,0,5.62-1.55,6.99-4.54C1235.14,589.97,1235.48,587.6,1236.11,585.31z"/>
			<path class="st364" d="M1184.74,580.13c4.34,0,8.22,0,12.39,0c0-4.24,0-8.36,0-12.62c2.82,0,5.36,0,8.02,0
				c0,11.76,0,23.41,0,35.24c-2.61,0-5.15,0-7.96,0c0-4.96,0-9.86,0-14.9c-4.21,0-8.15,0-12.41,0c0,3.94,0.02,7.79-0.01,11.63
				c-0.02,3.75,0.45,3.42-3.12,3.44c-1.52,0.02-3.04,0-4.71,0c0-11.92,0-23.57,0-35.38c2.5,0,4.99,0,7.79,0
				C1184.74,571.62,1184.74,575.74,1184.74,580.13z"/>
			<path class="st364" d="M1311.3,596.49c2.02-1.38,3.91-2.66,5.93-4.05c2.21,2.55,4.95,4.18,8.09,4.29
				c2.06,0.07,4.25-0.54,6.18-1.38c0.79-0.33,1.51-2.11,1.43-3.15c-0.07-0.91-1.2-2.17-2.09-2.45c-2.4-0.74-4.93-1.02-7.4-1.53
				c-1.23-0.25-2.47-0.52-3.67-0.91c-4.06-1.33-6.46-4.14-6.73-7.76c-0.4-5.35,1.4-9.09,5.42-11.31c6.89-3.8,16.6-1.69,21.96,4.85
				c-0.56,0.46-1.15,0.87-1.65,1.38c-2.31,2.32-4.38,3.52-7.32,0.52c-1.91-1.94-4.81-2.37-7.55-1.42c-1.65,0.57-2.98,1.69-2.9,3.69
				c0.08,2.12,1.68,2.83,3.34,3.16c3.09,0.62,6.21,1.07,9.29,1.76c3.41,0.77,6.15,2.55,7.07,6.54c0.98,4.29-0.07,8.02-2.99,11
				C1331.26,606.35,1316.61,604.63,1311.3,596.49z"/>
			<path class="st364" d="M1863.19,572.96c-2.15,1.67-4,3.12-5.34,4.15c-2.94-1.41-5.37-2.87-7.99-3.68c-1.32-0.41-3.14,0-4.39,0.73
				c-0.95,0.56-1.89,2.24-1.84,3.36c0.05,0.94,1.43,2.28,2.44,2.58c2.75,0.82,5.61,1.23,8.44,1.7c6.67,1.12,8.89,4.72,9.02,9.41
				c0.16,5.65-3.3,10.24-9.05,11.71c-5.75,1.48-11.43,1.24-16.62-2.24c-1.51-1.01-2.77-2.46-4.4-3.95c2.28-1.57,4.2-2.89,6.25-4.3
				c2.23,2.55,4.97,4.19,8.11,4.29c2.05,0.07,4.24-0.55,6.17-1.39c0.78-0.34,1.49-2.12,1.4-3.15c-0.08-0.91-1.21-2.17-2.09-2.45
				c-2.4-0.73-4.93-1.02-7.39-1.52c-1.17-0.23-2.33-0.5-3.47-0.86c-3.6-1.14-6.4-3.24-6.86-7.61c-0.58-5.43,1.23-9.4,5.41-11.49
				c6.18-3.09,12.25-2.41,18.04,1.33C1860.4,570.49,1861.6,571.67,1863.19,572.96z"/>
			<path class="st364" d="M1639.89,573c-0.49,0.41-0.94,0.76-1.35,1.14c-2.44,2.29-4.67,4.05-7.85,0.75
				c-1.72-1.79-4.45-2.15-6.98-1.45c-1.83,0.51-3.37,1.59-3.33,3.8c0.04,2.24,1.79,2.89,3.51,3.23c2.96,0.58,5.94,1,8.89,1.65
				c3.74,0.83,6.75,2.81,7.44,7.25c0.73,4.66-0.65,8.63-4.27,11.34c-4.28,3.21-9.18,3.38-14.13,2.7c-4.47-0.62-8.28-2.66-11.24-6.87
				c1.99-1.36,3.92-2.68,5.98-4.1c2.22,2.52,4.95,4.15,8.08,4.29c2,0.09,4.14-0.42,6.01-1.24c0.86-0.38,1.71-2.18,1.64-3.25
				c-0.06-0.94-1.32-2.25-2.26-2.55c-2.4-0.75-4.94-0.99-7.41-1.49c-1.16-0.23-2.33-0.51-3.47-0.88c-3.61-1.17-6.32-3.4-6.76-7.74
				c-0.49-4.79,0.93-8.87,5.05-11.07c6.65-3.58,13.15-2.66,19.3,1.67c0.64,0.45,1.23,1.01,1.83,1.53
				C1639,572.11,1639.4,572.53,1639.89,573z"/>
			<path class="st364" d="M1645.46,567.47c2.56,0,5.07,0,7.92,0c0,0.81,0,1.6,0,2.4c0.01,6.83-0.02,13.66,0.03,20.5
				c0.03,4.27,1.84,6.13,5.85,6.2c3.95,0.06,5.92-1.82,5.99-6.1c0.11-6.98,0.04-13.97,0.05-20.95c0-0.6,0.05-1.2,0.09-1.96
				c2.54,0,5.02,0,7.51,0c0.07,0.11,0.23,0.22,0.23,0.34c0.01,7.89,0.28,15.8-0.08,23.67c-0.32,6.94-5.51,11.7-12.6,12.06
				c-2.12,0.11-4.35-0.19-6.41-0.8c-5.1-1.5-8.36-5.1-8.52-10.98C1645.29,583.81,1645.46,575.77,1645.46,567.47z"/>
			<path class="st364" d="M1606.06,580.9c0,2.31,0,4.2,0,6.44c-3.19,0-6.31,0-9.43,0c-5.81,0-5.81,0-5.72,6.38
				c0.01,0.74,0.09,1.48,0.15,2.4c5.9,0,11.63,0,17.52,0c0,2.27,0,4.35,0,6.63c-8.47,0-16.9,0-25.49,0c0-11.68,0-23.34,0-35.19
				c7.9,0,15.83,0,23.94,0c0,2.05,0,4.12,0,6.47c-4.24,0-8.42-0.03-12.6,0.01c-3.89,0.04-3.48-0.71-3.53,3.92
				c0,0.23,0.03,0.46,0,0.69c-0.26,1.88,0.61,2.32,2.19,2.29C1597.34,580.84,1601.6,580.9,1606.06,580.9z"/>
			<path class="st364" d="M1291.83,574.01c-0.22,0.41-0.28,0.47-0.29,0.54c-0.6,6.35-0.6,6.35,5.19,6.35c3.2,0,6.41,0,9.74,0
				c0,2.21,0,4.15,0,6.44c-3.49,0-6.96,0-10.44,0c-4.59,0-4.59,0-4.59,5.04c0,1.13,0,2.26,0,3.77c3.06,0,5.97,0,8.87,0
				c2.85,0,5.71,0,8.69,0c0,2.3,0,4.38,0,6.59c-0.62,0.08-1.16,0.19-1.7,0.19c-7.28,0.01-14.56-0.01-21.85,0.03
				c-1.34,0.01-2.04-0.28-2.03-1.98c0.06-10.7,0.03-21.41,0.04-32.12c0-0.37,0.08-0.74,0.15-1.3c7.95,0,15.89,0,23.82,0
				c0.07,0.13,0.19,0.25,0.21,0.39c0.55,6.08,0.55,6.08-4.99,6.08C1299.05,574.01,1295.42,574.01,1291.83,574.01z"/>
			<path class="st364" d="M1430.38,567.44c2.98,0,5.7,0,8.56,0c3.98,11.7,7.95,23.39,12.05,35.46c-2.81,0-5.3,0.05-7.78-0.05
				c-0.38-0.02-0.88-0.65-1.07-1.12c-0.39-0.96-0.47-2.1-0.95-2.99c-0.34-0.63-1.12-1.38-1.72-1.4c-3.21-0.14-6.44,0.02-9.65-0.1
				c-1.5-0.05-1.67,1.02-1.99,2.09c-1.07,3.61-1.07,3.61-4.47,3.61c-1.59,0-3.18,0-5.11,0
				C1422.35,590.89,1426.35,579.2,1430.38,567.44z M1434.79,576.31c-0.2,0.02-0.39,0.05-0.58,0.07c-1.28,4.81-2.55,9.61-3.86,14.55
				c3.03,0,5.66,0,8.59,0C1437.51,585.89,1436.15,581.1,1434.79,576.31z"/>
			<path class="st364" d="M1728.52,602.93c1.87-5.47,3.58-10.43,5.27-15.38c2.07-6.04,4.21-12.05,6.16-18.13
				c0.54-1.68,1.29-2.19,2.85-2.08c2.09,0.15,4.19,0.04,6.41,0.04c4,11.77,7.98,23.46,12.07,35.54c-2.8,0-5.24,0.09-7.65-0.08
				c-0.49-0.03-1.12-0.97-1.35-1.62c-1.29-3.93-1.26-3.94-5.13-3.94c-2.18,0-4.35,0.09-6.51-0.03c-1.43-0.08-2.09,0.4-2.51,1.96
				c-0.99,3.77-1.08,3.74-4.81,3.74C1731.86,602.93,1730.4,602.93,1728.52,602.93z M1740.61,590.95c3.06,0,5.7,0,8.64,0
				c-1.44-5.03-2.81-9.84-4.19-14.66c-0.18,0.02-0.36,0.04-0.54,0.06C1743.25,581.12,1741.97,585.88,1740.61,590.95z"/>
			<path class="st364" d="M1499.69,567.38c2.99,0,5.51-0.11,8.01,0.07c0.72,0.05,1.61,0.77,2.04,1.47
				c2.11,3.37,4.08,6.83,6.32,10.64c2.12-3.64,4.13-6.88,5.93-10.25c0.82-1.52,1.76-2.08,3.35-1.97c2.16,0.15,4.34,0.04,6.84,0.04
				c-0.49,0.84-0.82,1.46-1.2,2.04c-3.3,4.99-6.68,9.93-9.87,15c-0.73,1.15-1.16,2.74-1.21,4.15c-0.16,4.09-0.11,8.19-0.03,12.29
				c0.03,1.56-0.42,2.19-1.9,2.11c-1.87-0.11-3.76-0.03-5.98-0.03c0-2.83-0.25-5.49,0.05-8.08c0.71-6.03-0.98-11-4.56-15.6
				C1504.7,575.68,1502.45,571.63,1499.69,567.38z"/>
			<path class="st364" d="M1368.6,567.52c0,2.23,0,4.25,0,6.58c-1.83,0-3.55-0.01-5.27,0c-3.72,0.03-3.3-0.38-3.31,3.48
				c-0.02,7.51,0,15.03,0,22.54c0,0.82,0,1.63,0,2.78c-2.42,0-4.64,0.02-6.85,0c-1.46-0.02-1.14-1.26-1.14-2.16
				c-0.02-7.82-0.01-15.64-0.01-23.46c0-3.18,0-3.18-3-3.18c-1.8,0-3.61,0-5.56,0c0-2.28,0-4.36,0-6.58
				C1351.81,567.52,1360.1,567.52,1368.6,567.52z"/>
			<path class="st364" d="M1727.66,574.1c-2.08,0-4.1,0.12-6.1-0.03c-1.9-0.15-2.55,0.49-2.51,2.64c0.11,7.89-0.02,15.78,0.08,23.67
				c0.02,1.94-0.41,2.77-2.32,2.58c-1.78-0.17-3.61-0.04-5.6-0.04c-0.04-1.06-0.11-1.86-0.11-2.67c-0.01-7.89-0.07-15.78,0.05-23.67
				c0.03-2.06-0.59-2.66-2.4-2.52c-2.01,0.16-4.04,0.03-6.22,0.03c0-2.22,0-4.3,0-6.55c8.33,0,16.67,0,25.14,0
				C1727.66,569.67,1727.66,571.75,1727.66,574.1z"/>
			<path class="st364" d="M1700.76,602.91c-6.64,0-13.08,0.03-19.51-0.05c-0.44,0-1.24-0.81-1.25-1.25
				c-0.06-11.3-0.06-22.59-0.06-34.06c2.66,0,5.14,0,7.84,0c0,9.21,0,18.44,0,28c4.42,0,8.63,0,12.97,0
				C1700.76,598.1,1700.76,600.34,1700.76,602.91z"/>
			<path class="st364" d="M1380.47,602.92c-2.08,0-3.96-0.09-5.84,0.03c-1.56,0.1-2.05-0.5-2.04-2.2
				c0.07-7.89,0.03-15.77,0.03-23.66c0-3.16,0-6.32,0-9.6c2.77,0,5.25,0,7.85,0C1380.47,579.26,1380.47,590.91,1380.47,602.92z"/>
		</g>
		<g>
			<path class="st362" d="M1464,644.27c-0.35,1.91-0.58,4.35-1.25,6.63c-1.99,6.81-6.83,10.46-13.08,10.11
				c-5.85-0.33-10.18-4.62-11.51-11.56c-0.78-4.07-0.64-8.15,0.49-12.14c1.92-6.77,6.65-10.39,13.06-10.05
				c6.18,0.33,10.48,4.54,11.68,11.53C1463.67,640.42,1463.76,642.09,1464,644.27z M1446.27,644.84c0.28,1.99,0.47,4.41,1.01,6.73
				c0.41,1.73,1.8,3.07,3.42,2.69c1.23-0.29,2.34-1.58,3.32-2.62c0.44-0.46,0.62-1.4,0.63-2.12c0.03-3.99,0.16-8-0.11-11.97
				c-0.17-2.5-1.85-4-3.62-4.03c-1.71-0.03-3.36,1.48-3.8,3.9C1446.69,639.71,1446.57,642.06,1446.27,644.84z"/>
			<path class="st362" d="M1592.98,643.92c-0.49,2.51-0.74,5.11-1.49,7.52c-2.02,6.45-6.97,9.97-13.02,9.57
				c-5.77-0.39-10.41-4.72-11.34-11.45c-0.5-3.66-0.43-7.61,0.26-11.23c1.4-7.49,6.51-11.45,13.31-11.06
				c6.35,0.36,10.69,4.89,11.72,12.29c0.2,1.42,0.23,2.87,0.35,4.31C1592.84,643.88,1592.91,643.9,1592.98,643.92z M1584.2,643.62
				c-0.35-2.7-0.52-4.67-0.87-6.59c-0.36-1.96-1.47-3.36-3.39-3.45c-2.02-0.1-3.3,1.3-3.77,3.28c-1.09,4.6-1.26,9.28-0.27,13.94
				c0.43,2.01,1.58,3.46,3.59,3.54c2.06,0.08,3.27-1.41,3.68-3.38C1583.72,648.33,1583.93,645.61,1584.2,643.62z"/>
			<path class="st362" d="M1595.17,660.06c-0.06-0.43-0.1-0.65-0.14-0.88c-0.53-3.46,0.48-5.78,3.45-7.74
				c3.74-2.46,7.13-5.62,10.42-8.78c1.13-1.09,1.84-3.02,2.13-4.7c0.36-2.1-0.94-3.51-2.79-3.79c-2.25-0.34-3.94,0.68-4.36,2.85
				c-0.24,1.24-0.18,2.56-0.27,4.13c-2.66-0.35-5.4-0.7-8.1-1.05c-0.91-5.73,1.9-10.81,7.11-11.9c3.23-0.67,6.74-0.8,9.96-0.18
				c6.97,1.34,9.87,9.56,5.75,15.83c-1.23,1.87-2.97,3.41-4.66,4.85c-1.63,1.39-3.5,2.45-5.8,4.02c2.36,0,4.17,0,5.97,0
				c1.88,0,3.75,0,5.77,0c0,2.56,0,4.87,0,7.33C1611.46,660.06,1603.39,660.06,1595.17,660.06z"/>
			<path class="st362" d="M1423.4,652.84c3.65,0,7.31,0,11.07,0c0,2.48,0,4.73,0,7.18c-8.13,0-16.2,0-24.29,0
				c-1.09-4.13-0.54-5.54,2.65-8.04c3.52-2.74,6.99-5.57,10.33-8.56c1.13-1.01,2.05-2.52,2.63-4.01c0.89-2.29-0.19-4.56-2.12-5.13
				c-2.45-0.73-4.46,0.45-4.97,3.06c-0.22,1.15-0.17,2.38-0.26,3.82c-2.68-0.35-5.36-0.7-8-1.05c-0.97-5.13,1.49-9.97,6.01-11.62
				c3.94-1.44,8.01-1.54,12-0.29c6.11,1.91,8.61,9.6,4.91,15.42c-1.28,2.01-3.14,3.63-4.93,5.18c-1.57,1.36-3.39,2.37-5.1,3.53
				C1423.35,652.51,1423.38,652.67,1423.4,652.84z"/>
			<path class="st362" d="M1538.77,660.03c0-1.77-0.13-3.51,0.07-5.2c0.07-0.64,0.85-1.26,1.42-1.74c4-3.31,8.12-6.45,12-9.92
				c1.19-1.07,2.1-2.87,2.53-4.52c0.61-2.37-0.71-4.14-2.76-4.46c-2.39-0.37-4.14,0.85-4.47,3.28c-0.15,1.1-0.02,2.25-0.02,3.71
				c-2.87-0.38-5.52-0.72-8.14-1.07c-1.02-5.54,1.55-10.56,6.61-11.74c3.33-0.78,7-0.97,10.35-0.35c7.08,1.32,10.08,9.8,5.6,15.94
				c-2.14,2.94-5.41,4.9-8.18,7.29c-0.52,0.45-1.12,0.79-2.1,1.47c2.36,0,4.2,0,6.05,0c1.87,0,3.74,0,5.69,0c0,2.58,0,4.84,0,7.29
				C1555.26,660.03,1547.14,660.03,1538.77,660.03z"/>
			<path class="st362" d="M1479.75,652.8c3.66,0,7.32,0,11.11,0c0,2.5,0,4.81,0,7.27c-8.17,0-16.24,0-24.59,0
				c0-1.77-0.15-3.44,0.07-5.05c0.1-0.73,0.85-1.46,1.47-1.97c3.74-3.07,7.57-6,11.25-9.15c1.17-1,2.38-2.37,2.82-3.84
				c0.42-1.39,0.35-3.53-0.41-4.58c-0.67-0.94-2.59-1.2-3.92-1.11c-1.67,0.11-2.37,1.74-2.57,3.42c-0.12,1.03-0.02,2.09-0.02,3.4
				c-2.79-0.37-5.47-0.72-8.13-1.07c-1-4.55,1.18-9.47,5.19-11.25c4.51-2,9.21-2.11,13.76-0.3c5.61,2.22,7.59,10.05,3.68,15.38
				c-1.99,2.71-4.92,4.62-7.47,6.83c-0.72,0.63-1.58,1.06-2.38,1.59C1479.66,652.51,1479.7,652.66,1479.75,652.8z"/>
			<path class="st362" d="M1623.08,653.49c-0.84-4.23,0-7.4,2.41-10.43c3.47-4.35,6.47-9.14,9.8-13.63
				c0.59-0.79,1.78-1.36,2.74-1.46c2.22-0.21,4.46-0.07,6.97-0.07c0,6.38,0,12.63,0,19.08c1.34,0.1,2.43,0.17,3.7,0.26
				c0,1.93,0,3.86,0,6.02c-1.05,0.09-2.19,0.18-3.58,0.3c0,2.15,0,4.24,0,6.47c-2.86,0-5.48,0-8.34,0c0-2.11,0-4.19,0-6.55
				C1632.07,653.49,1627.57,653.49,1623.08,653.49z M1636.61,647.06c0-3.38,0-6.54,0-10.03c-2.33,3.46-4.43,6.6-6.74,10.03
				C1632.35,647.06,1634.36,647.06,1636.61,647.06z"/>
			<path class="st362" d="M1498.08,639.41c0-2.61,0-4.77,0-6.8c1.73-0.48,3.34-0.9,4.93-1.38c0.31-0.1,0.7-0.34,0.85-0.63
				c2.2-4.36,5.89-2.21,9.19-2.7c0,10.82,0,21.38,0,32.12c-2.8,0-5.57,0-8.61,0c0-6.95,0-13.95,0-20.98
				C1502.19,639.17,1500.22,639.28,1498.08,639.41z"/>
			<path class="st362" d="M1536,649.26c-4.17,0-8.22,0.03-12.27-0.06c-0.38-0.01-1.06-0.75-1.08-1.19
				c-0.11-2.11-0.05-4.23-0.05-6.52c4.52,0,8.89,0,13.41,0C1536,643.99,1536,646.45,1536,649.26z"/>
		</g>
	</g>
	<rect x="891.55" y="394.02" class="st362" width="207.58" height="292.01"/>
	<g>
		<g>
			<path class="st365" d="M1805.31,954.14c1.04-7.12,3.53-13.97,7.36-20.06c0.83-1.31,2.94-5.45,4.87-3.35
				c1.14,1.24,1.92,2.96,2.55,4.51c1.33,3.25,1.97,6.74,2.48,10.2c2.3,15.56,2.71,31.39,1.54,47.07
				c-0.59,7.87-1.58,15.71-2.94,23.49c-1.3,7.41-2.87,14.8-5.14,21.98c-0.6,1.91-1.26,3.8-1.97,5.66c-0.33,0.87-0.68,1.74-1.04,2.6
				c-0.41,0.99-1.15,3.45-2.59,1.83c-2.08-2.35-3.46-5.64-4.46-8.57c-2.13-6.23-2.47-12.99-1.43-19.46
				c2.44-15.31,12.5-27.97,23.33-38.46c-0.21-0.04-0.43-0.08-0.64-0.13c-0.92,1.37,0.91,2.75,2.24,2.48
				c1.84-0.38,2.25-2.56,2.16-4.13c-0.02-0.29-0.73-0.14-0.73,0.13c-0.01,1.55-1.21,4.26,0.75,5.2c1.28,0.61,2.39-0.53,2.84-1.62
				c0.39-0.96,0.49-2.03,0.66-3.05c0.25-1.48,0.5-2.95,0.75-4.43c0.51-3.03,1.03-6.07,1.54-9.1c-0.24,0.02-0.49,0.04-0.73,0.06
				c-0.79,5.77-0.71,11.59,0.25,17.34c0.04,0.25,0.47,0.14,0.6,0.05c2.09-1.43,3.16-3.83,2.79-6.34c-0.05-0.32-0.68-0.11-0.73,0.13
				c-0.41,2.2,0.21,4.37,1.73,6.01c0.14,0.15,0.42,0.11,0.57,0c2.13-1.7,3.23-4.25,2.94-6.96c-0.03-0.28-0.55-0.13-0.66,0
				c-1.19,1.42-1.52,3.39-0.78,5.11c0.48,1.13,1.96,2.92,3.32,1.9c0.73-0.54,0.8-1.67,0.95-2.47c0.29-1.52,0.54-3.05,0.76-4.59
				c0.45-3.15,0.73-6.32,0.88-9.5c0.02-0.36-0.7-0.24-0.73,0.06c-0.25,2.66-0.51,5.32-0.76,7.98c-0.13,1.33-0.3,2.66-0.38,4
				c-0.05,0.82-0.03,1.71,0.56,2.36c0.82,0.9,2.28,0.76,3.26,0.21c1.6-0.9,1.93-2.88,2.15-4.54c-0.24,0.02-0.49,0.04-0.73,0.06
				c-0.15,1.45-3.21,5.1-0.54,6.09c2.69,0.99,3-3.35,4.1-4.55c-0.22-0.02-0.44-0.04-0.67-0.06c-0.83,2.88-1.72,7.24,1.62,8.96
				c1.87,0.96,4.69-0.13,4.78-2.41c0-0.1-0.06-0.17-0.15-0.2c-4.46-1.22-9.07-0.87-13.57-0.04c-5.09,0.94-10.12,2.22-15.16,3.36
				c-5.14,1.17-10.29,2.34-15.43,3.5c-2.57,0.58-5.14,1.19-7.72,1.75c-0.79,0.17-2.66,0.59-3.07-0.46c-0.42-1.1,1.66-2.06,2.48-2.35
				c2.27-0.81,4.84-0.94,7.22-1.19c2.6-0.28,5.2-0.47,7.81-0.59c5.36-0.25,10.72-0.21,16.08-0.02c10.45,0.37,20.89,1.17,31.3,2.06
				c11.85,1.01,23.69,2.21,35.52,3.41c0.17,0.02,0.75-0.26,0.41-0.45c-1.97-1.11-4.04-1.92-6.24-2.44
				c-0.29-0.07-0.86,0.36-0.42,0.46c2.15,0.51,4.17,1.29,6.1,2.37c0.14-0.15,0.27-0.3,0.41-0.45c-12.16-1.23-24.33-2.47-36.51-3.49
				c-12.03-1.01-24.12-1.98-36.2-2.12c-5.91-0.07-11.82,0.1-17.7,0.7c-2.52,0.26-5.19,0.42-7.62,1.18c-1.05,0.33-3.4,1.31-3.49,2.67
				c-0.1,1.52,2.37,1.47,3.29,1.32c2.84-0.47,5.67-1.28,8.47-1.92c5.95-1.35,11.89-2.7,17.84-4.05c6.39-1.45,12.98-3.49,19.58-3.56
				c1.7-0.02,3.91-0.03,5.51,0.6c0.93,0.37,0.17,1.33-0.43,1.74c-0.81,0.56-1.84,0.58-2.69,0.11c-3.06-1.72-2.08-5.87-1.3-8.55
				c0.1-0.33-0.56-0.18-0.67-0.06c-0.52,0.56-0.77,1.21-1.01,1.93c-0.14,0.42-0.24,0.86-0.44,1.26c-0.5,0.97-1.83,1.54-2.28,0.3
				c-0.61-1.71,1.33-3.26,1.5-4.91c0.04-0.35-0.69-0.24-0.73,0.06c-0.21,1.56-0.5,3.83-2.31,4.34c-2.63,0.73-2.19-2.57-2.05-4.07
				c0.33-3.46,0.66-6.93,0.99-10.39c-0.24,0.02-0.49,0.04-0.73,0.06c-0.2,4.24-0.65,8.46-1.38,12.65c-0.16,0.9-0.26,1.84-0.52,2.71
				c-0.57,1.92-2.19-0.1-2.56-0.95c-0.68-1.57-0.44-3.42,0.66-4.73c-0.22,0-0.44,0-0.66,0c0.26,2.49-0.73,4.91-2.69,6.47
				c0.19,0,0.38,0,0.57,0c-1.47-1.59-2.06-3.64-1.67-5.77c-0.24,0.04-0.49,0.09-0.73,0.13c0.34,2.3-0.62,4.53-2.54,5.84
				c0.2,0.02,0.4,0.04,0.6,0.05c-0.95-5.7-1.03-11.48-0.24-17.21c0.05-0.35-0.68-0.24-0.73,0.06c-0.68,4.02-1.36,8.03-2.05,12.05
				c-0.25,1.5-0.23,4.01-1.32,5.2c-1.48,1.61-2.16-0.8-2.09-1.72c0.07-0.9,0.36-1.74,0.36-2.65c-0.24,0.04-0.49,0.09-0.73,0.13
				c0.06,1.02-0.03,2.41-0.9,3.1c-1.02,0.81-2.92-0.32-2.08-1.57c0.23-0.34-0.5-0.27-0.64-0.13
				c-10.34,10.01-19.97,21.96-23.03,36.36c-1.44,6.78-1.4,13.98,0.59,20.64c0.98,3.27,2.44,6.4,4.38,9.21
				c0.6,0.87,1.52,2.07,2.73,1.59c1.19-0.47,1.61-2.5,2.04-3.54c3.1-7.6,5.15-15.57,6.77-23.6c1.7-8.43,2.96-16.95,3.75-25.52
				c1.57-16.99,1.29-34.19-1.18-51.09c-0.54-3.73-1.22-7.51-2.75-10.98c-0.83-1.89-2.49-6.02-5.2-4.61
				c-1.25,0.65-2.06,2.13-2.8,3.25c-1.07,1.62-2.05,3.31-2.92,5.04c-1.67,3.3-2.98,6.77-3.91,10.35c-0.49,1.88-0.87,3.79-1.15,5.71
				C1804.53,954.55,1805.27,954.44,1805.31,954.14L1805.31,954.14z"/>
		</g>
	</g>
	<g>
		<g>
			<path class="st365" d="M1825.94,975.02c11.66-0.13,23.33-0.26,34.99-0.39c0.41,0,0.56-0.52,0.07-0.51
				c-11.66,0.13-23.33,0.26-34.99,0.39C1825.6,974.51,1825.45,975.02,1825.94,975.02L1825.94,975.02z"/>
		</g>
	</g>
	<g>
		<g>
			<path class="st365" d="M1839.77,976.23c0.16,0,0.82-0.3,0.47-0.3C1840.08,975.93,1839.42,976.23,1839.77,976.23L1839.77,976.23z"
				/>
		</g>
	</g>
</g>
</svg>
